<svg width="22" height="13" viewBox="0 0 22 13" fill="none" xmlns="http://www.w3.org/2000/svg">
<path d="M6.61091 10.7314L3.3652 7.48573L20.6989 7.48573C21.2432 7.48573 21.6845 7.04442 21.6845 6.50008C21.6845 5.95573 21.2432 5.51442 20.6989 5.51442L3.3652 5.51442L6.61091 2.26871C6.80338 2.07631 6.89965 1.82404 6.89965 1.57178C6.89965 1.31952 6.80338 1.06726 6.61091 0.874854C6.22605 0.489922 5.60193 0.489922 5.21699 0.874854L0.2887 5.80315C-0.0962331 6.18802 -0.0962331 6.81214 0.2887 7.19707L5.21699 12.1254C5.60186 12.5103 6.22598 12.5103 6.61091 12.1254C6.99578 11.7404 6.99578 11.1163 6.61091 10.7314Z" fill="#1A1A1A"/>
</svg>
