<svg width="12" height="8" viewBox="0 0 12 8" fill="none" xmlns="http://www.w3.org/2000/svg">
<path d="M7.24853 1.57878L9.09587 3.42612L1.13885 3.42612C0.829025 3.42612 0.577845 3.6773 0.577845 3.98713C0.577845 4.29695 0.829025 4.54813 1.13885 4.54813H9.09587L7.24853 6.39547C7.13898 6.50498 7.08419 6.64856 7.08419 6.79214C7.08419 6.93572 7.13898 7.0793 7.24853 7.1888C7.46758 7.40789 7.82281 7.40789 8.0419 7.1888L10.8469 4.38379C11.066 4.16474 11.066 3.80951 10.8469 3.59042L8.0419 0.785411C7.82284 0.566321 7.46762 0.566321 7.24853 0.785411C7.02947 1.0045 7.02947 1.35973 7.24853 1.57878Z" fill="white"/>
</svg>
