<svg width="16" height="11" viewBox="0 0 16 11" fill="none" xmlns="http://www.w3.org/2000/svg">
<path d="M9.68672 2.13213L12.3912 4.83664L1.40214 4.83664C0.948558 4.83664 0.580831 5.20437 0.580831 5.65795C0.580831 6.11153 0.948558 6.47926 1.40214 6.47926L12.3912 6.47926L9.68671 9.18377C9.52634 9.34409 9.44613 9.55429 9.44613 9.76449C9.44613 9.97469 9.52634 10.1849 9.68671 10.3452C10.0074 10.666 10.5275 10.666 10.8482 10.3452L14.9548 6.23867C15.2755 5.91798 15.2755 5.39792 14.9548 5.07718L10.8482 0.970633C10.5275 0.649885 10.0075 0.649885 9.68672 0.970633C9.36602 1.29138 9.36602 1.81143 9.68672 2.13213Z" fill="#10B068"/>
</svg>
