<svg width="35" height="35" viewBox="0 0 35 35" fill="none" xmlns="http://www.w3.org/2000/svg">
<path d="M9.47917 2.91675H25.5208C25.7472 2.91675 25.9705 2.96946 26.173 3.07071C26.3755 3.17196 26.5517 3.31896 26.6875 3.50008L30.625 8.75008V30.6251C30.625 31.0119 30.4714 31.3828 30.1979 31.6563C29.9244 31.9298 29.5534 32.0834 29.1667 32.0834H5.83333C5.44656 32.0834 5.07563 31.9298 4.80214 31.6563C4.52865 31.3828 4.375 31.0119 4.375 30.6251V8.75008L8.3125 3.50008C8.44834 3.31896 8.62448 3.17196 8.82698 3.07071C9.02948 2.96946 9.25277 2.91675 9.47917 2.91675ZM26.9792 8.75008L24.7917 5.83341H10.2083L8.02083 8.75008H26.9792ZM13.125 14.5834H10.2083V17.5001C10.2083 19.434 10.9766 21.2886 12.344 22.6561C13.7115 24.0235 15.5661 24.7917 17.5 24.7917C19.4339 24.7917 21.2885 24.0235 22.656 22.6561C24.0234 21.2886 24.7917 19.434 24.7917 17.5001V14.5834H21.875V17.5001C21.875 18.6604 21.4141 19.7732 20.5936 20.5937C19.7731 21.4141 18.6603 21.8751 17.5 21.8751C16.3397 21.8751 15.2269 21.4141 14.4064 20.5937C13.5859 19.7732 13.125 18.6604 13.125 17.5001V14.5834Z" fill="#10B068"/>
</svg>
