<svg width="36" height="35" viewBox="0 0 36 35" fill="none" xmlns="http://www.w3.org/2000/svg">
<path d="M3.79126 16.0416H32.9579V29.1666C32.9579 29.5534 32.8043 29.9244 32.5308 30.1978C32.2573 30.4713 31.8864 30.625 31.4996 30.625H5.24959C4.86282 30.625 4.49189 30.4713 4.2184 30.1978C3.94491 29.9244 3.79126 29.5534 3.79126 29.1666V16.0416ZM25.6663 4.37498H31.4996C31.8864 4.37498 32.2573 4.52863 32.5308 4.80212C32.8043 5.07561 32.9579 5.44654 32.9579 5.83331V13.125H3.79126V5.83331C3.79126 5.44654 3.94491 5.07561 4.2184 4.80212C4.49189 4.52863 4.86282 4.37498 5.24959 4.37498H11.0829V1.45831H13.9996V4.37498H22.7496V1.45831H25.6663V4.37498Z" fill="#10B068"/>
</svg>
