<svg width="41" height="40" viewBox="0 0 41 40" fill="none" xmlns="http://www.w3.org/2000/svg">
<path d="M35.1553 27.3667V33.26C35.1555 33.682 34.9956 34.0883 34.7079 34.397C34.4203 34.7057 34.0262 34.8938 33.6053 34.9233C32.8769 34.9733 32.2819 35 31.8219 35C17.0936 35 5.15527 23.0617 5.15527 8.33333C5.15527 7.87333 5.18027 7.27833 5.23194 6.55C5.26148 6.12907 5.44958 5.73502 5.75828 5.44735C6.06698 5.15968 6.47331 4.99981 6.89527 5H12.7886C12.9953 4.99979 13.1948 5.07643 13.3482 5.21503C13.5015 5.35364 13.5979 5.5443 13.6186 5.75C13.6569 6.13333 13.6919 6.43833 13.7253 6.67C14.0565 8.98154 14.7353 11.2297 15.7386 13.3383C15.8969 13.6717 15.7936 14.07 15.4936 14.2833L11.8969 16.8533C14.096 21.9774 18.1795 26.0609 23.3036 28.26L25.8703 24.67C25.9752 24.5233 26.1282 24.4181 26.3028 24.3728C26.4773 24.3274 26.6622 24.3447 26.8253 24.4217C28.9336 25.4231 31.1812 26.1002 33.4919 26.43C33.7236 26.4633 34.0286 26.5 34.4086 26.5367C34.614 26.5577 34.8043 26.6543 34.9425 26.8076C35.0808 26.961 35.1572 27.1602 35.1569 27.3667H35.1553Z" fill="#10B068"/>
</svg>
