<svg width="36" height="36" viewBox="0 0 36 36" fill="none" xmlns="http://www.w3.org/2000/svg">
<g clip-path="url(#clip0)">
<path d="M32.5496 20.2438V31.1813C32.5496 31.568 32.396 31.939 32.1225 32.2125C31.849 32.486 31.4781 32.6396 31.0913 32.6396H29.633C29.2462 32.6396 28.8753 32.486 28.6018 32.2125C28.3283 31.939 28.1746 31.568 28.1746 31.1813V29.7229H7.75798V31.1813C7.75798 31.568 7.60433 31.939 7.33084 32.2125C7.05735 32.486 6.68642 32.6396 6.29964 32.6396H4.84131C4.45453 32.6396 4.0836 32.486 3.81011 32.2125C3.53662 31.939 3.38298 31.568 3.38298 31.1813V20.2438L1.57027 19.7917C1.25491 19.7127 0.974988 19.5306 0.774973 19.2743C0.574958 19.018 0.466317 18.7022 0.466309 18.3771L0.466309 17.3271C0.466309 17.1337 0.543131 16.9483 0.679877 16.8115C0.816622 16.6748 1.00209 16.5979 1.19548 16.5979H4.0086L6.99964 9.61544C7.2246 9.09067 7.59863 8.64346 8.07536 8.32927C8.5521 8.01508 9.11056 7.84772 9.68152 7.84794H12.133V4.93127H16.508V7.84794H19.4246V4.93127H23.7996V7.84794H26.2511C26.8218 7.848 27.38 8.0155 27.8564 8.32967C28.3329 8.64385 28.7067 9.0909 28.9315 9.61544L31.924 16.5979H34.7371C34.9305 16.5979 35.116 16.6748 35.2527 16.8115C35.3895 16.9483 35.4663 17.1337 35.4663 17.3271V18.3771C35.4663 18.7022 35.3577 19.018 35.1576 19.2743C34.9576 19.5306 34.6777 19.7127 34.3624 19.7917L32.5496 20.2438ZM6.29964 22.4313V25.3479C6.29964 25.7347 6.45329 26.1056 6.72678 26.3791C7.00027 26.6526 7.3712 26.8063 7.75798 26.8063H12.4903C12.6162 26.8061 12.7399 26.7733 12.8494 26.7111C12.9588 26.6488 13.0503 26.5593 13.115 26.4513C13.1796 26.3432 13.2151 26.2202 13.2181 26.0943C13.221 25.9685 13.1914 25.8439 13.1319 25.7329C11.958 23.5309 9.68006 22.4313 6.29964 22.4313ZM29.633 22.4313C26.254 22.4313 23.9761 23.5323 22.7992 25.7329C22.7397 25.8441 22.7101 25.9687 22.7131 26.0947C22.7161 26.2207 22.7518 26.3438 22.8166 26.4519C22.8814 26.56 22.9731 26.6495 23.0827 26.7116C23.1924 26.7737 23.3163 26.8063 23.4424 26.8063H28.1746C28.5614 26.8063 28.9324 26.6526 29.2058 26.3791C29.4793 26.1056 29.633 25.7347 29.633 25.3479V22.4313ZM9.21631 10.7646L7.10027 16.0569C7.0119 16.2781 6.97905 16.5176 7.0046 16.7544C7.03016 16.9912 7.11332 17.2181 7.24684 17.4154C7.38035 17.6126 7.56015 17.7742 7.77052 17.8859C7.98088 17.9976 8.21541 18.0561 8.4536 18.0563H27.479C27.7172 18.0561 27.9517 17.9976 28.1621 17.8859C28.3725 17.7742 28.5523 17.6126 28.6858 17.4154C28.8193 17.2181 28.9025 16.9912 28.928 16.7544C28.9536 16.5176 28.9207 16.2781 28.8324 16.0569L26.7163 10.7646H9.21631Z" fill="#10B068"/>
</g>
<defs>
<clipPath id="clip0">
<rect width="35" height="35" fill="white" transform="translate(0.466309 0.556274)"/>
</clipPath>
</defs>
</svg>
