<svg width="63" height="63" viewBox="0 0 63 63" fill="none" xmlns="http://www.w3.org/2000/svg">
<path d="M24.5653 30.2016H30.201C33.3006 30.2016 36.2732 31.4329 38.4649 33.6246C40.6566 35.8163 41.8879 38.7889 41.8879 41.8885H23.7057L23.7083 44.4856H44.485V41.8885C44.4768 39.1251 43.6784 36.4217 42.184 34.0972H49.6791C52.1341 34.0966 54.5389 34.7918 56.6147 36.1023C58.6906 37.4128 60.3524 39.2849 61.4076 41.5015C55.2655 49.607 45.3212 54.8739 34.0966 54.8739C26.9261 54.8739 20.8515 53.3416 15.9171 50.6536V26.4904C19.0767 26.943 22.0604 28.2234 24.5653 30.2016ZM10.7229 23.7089C11.359 23.709 11.973 23.9425 12.4483 24.3652C12.9237 24.7879 13.2274 25.3704 13.3018 26.0021L13.32 26.306V49.6797C13.32 50.3685 13.0464 51.0291 12.5593 51.5162C12.0723 52.0032 11.4117 52.2768 10.7229 52.2768H5.52872C4.83993 52.2768 4.17936 52.0032 3.69231 51.5162C3.20526 51.0291 2.93164 50.3685 2.93164 49.6797V26.306C2.93164 25.6172 3.20526 24.9566 3.69231 24.4696C4.17936 23.9825 4.83993 23.7089 5.52872 23.7089H10.7229ZM35.7744 9.61973L36.6937 10.5417L37.6131 9.62232C38.2151 9.01517 38.9311 8.53291 39.7201 8.20323C40.509 7.87355 41.3552 7.70293 42.2102 7.70118C43.0653 7.69943 43.9122 7.86658 44.7025 8.19303C45.4927 8.51948 46.2107 8.99881 46.8152 9.60349C47.4197 10.2082 47.8989 10.9263 48.2251 11.7166C48.5513 12.507 48.7182 13.354 48.7162 14.209C48.7142 15.064 48.5434 15.9102 48.2135 16.6991C47.8836 17.4879 47.4011 18.2038 46.7938 18.8056L36.6937 28.9031L26.5911 18.8004C25.9839 18.1984 25.5017 17.4824 25.172 16.6935C24.8423 15.9045 24.6717 15.0583 24.6699 14.2033C24.6682 13.3482 24.8353 12.5013 25.1618 11.711C25.4882 10.9208 25.9676 10.2028 26.5722 9.59829C27.1769 8.99378 27.895 8.51466 28.6854 8.18843C29.4757 7.8622 30.3227 7.69529 31.1777 7.69728C32.0328 7.69928 32.879 7.87013 33.6678 8.20004C34.4566 8.52994 35.1725 9.01241 35.7744 9.61973Z" fill="#11B051"/>
</svg>
