<svg width="201" height="37" viewBox="0 0 201 37" fill="none" xmlns="http://www.w3.org/2000/svg">
<g clip-path="url(#clip0)">
<path d="M99.535 24.0097C98.158 26.3334 95.7483 27.2801 92.9082 27.2801C89.6379 27.2801 87.4863 25.2146 87.4863 22.4606C87.4863 19.7066 89.81 17.9854 93.6828 17.9854H99.535V16.3502C99.535 13.5962 97.8998 11.875 94.5434 11.875C92.4779 11.875 90.7567 12.7356 88.9494 14.0265L88.3469 12.9938C90.3264 11.5307 92.2197 10.6701 94.7155 10.6701C98.5883 10.6701 100.74 12.8217 100.826 16.2641L100.912 27.2801H99.6211L99.535 24.0097ZM99.535 21.9442V19.2763H93.7688C90.4985 19.2763 88.7773 20.3951 88.7773 22.5466C88.7773 24.6982 90.4985 26.2473 93.1664 26.2473C96.1786 26.1612 98.5023 24.7843 99.535 21.9442ZM118.727 17.2108V27.2801H117.35V17.469C117.35 14.1126 115.37 12.0471 111.928 12.0471C108.141 12.1332 105.731 14.5429 105.473 18.3296V27.2801H104.182V10.7562H105.559V14.9732C106.678 12.2192 109.002 10.7562 112.358 10.7562C116.317 10.7562 118.727 13.1659 118.727 17.2108ZM136.8 27.2801H135.509V22.977C134.304 25.7309 131.722 27.3661 128.452 27.3661C123.718 27.3661 120.362 23.8376 120.362 19.0181C120.362 14.1126 123.718 10.6701 128.366 10.6701C131.636 10.6701 134.218 12.3913 135.423 15.0593V3.78516H136.714L136.8 27.2801ZM135.423 19.0181C135.423 14.8871 132.497 11.875 128.538 11.875C124.579 11.875 121.653 14.8871 121.653 19.0181C121.653 23.1491 124.579 26.1612 128.538 26.1612C132.583 26.1612 135.423 23.1491 135.423 19.0181Z" fill="#1A1A1A"/>
<path d="M159.003 18.8461C159.003 24.0959 155.733 27.5384 150.741 27.5384C148.417 27.5384 146.524 26.6778 145.233 25.0426V27.3663H139.467V3.69926H145.233V12.3915C146.524 10.8424 148.331 9.98177 150.569 9.98177C155.646 9.98177 159.003 13.5103 159.003 18.8461ZM153.237 18.674C153.237 16.0922 151.602 14.1988 149.192 14.1988C146.868 14.1988 145.233 16.0061 145.233 18.674C145.233 21.3419 146.868 23.1492 149.192 23.1492C151.602 23.1492 153.237 21.3419 153.237 18.674ZM164.597 5.24837C164.597 6.96961 163.306 8.17447 161.585 8.17447C159.863 8.17447 158.573 6.96961 158.573 5.24837C158.573 3.52713 159.863 2.32227 161.585 2.32227C163.306 2.32227 164.597 3.52713 164.597 5.24837ZM158.745 10.1539H164.425V27.2802H158.745V10.1539ZM172.601 22.6329V27.2802H166.834V3.69926H172.601V16.1782L178.539 10.1539H184.994L178.453 16.7807L185.252 27.3663H178.453L174.58 20.7395L172.601 22.6329ZM200.399 20.2231H187.834C188.436 22.2886 189.899 23.4074 192.051 23.4074C193.6 23.4074 195.149 22.805 196.354 21.6862L199.366 24.5262C197.559 26.4196 194.891 27.5384 191.62 27.5384C185.768 27.5384 182.154 24.0099 182.154 18.8461C182.154 13.5103 185.94 10.0678 191.448 10.0678C197.645 9.98177 200.743 13.9406 200.399 20.2231ZM194.891 17.297C194.891 15.2315 193.514 13.8546 191.448 13.8546C189.469 13.8546 188.092 15.2315 187.748 17.297H194.891Z" fill="#D13438"/>
<path d="M57.7085 13.8544L53.5775 16.2641C52.7169 15.1453 51.512 14.4568 49.9629 14.4568C47.7253 14.4568 46.1762 16.178 46.1762 18.7599C46.1762 21.4278 47.7253 23.149 49.9629 23.149C51.5981 23.149 52.8029 22.5466 53.5775 21.1696L57.7945 23.4933C56.3315 25.9891 53.4914 27.4521 49.7047 27.4521C44.1968 27.5382 40.4961 24.0097 40.4961 18.7599C40.4961 13.5101 44.2828 9.98157 49.7908 9.98157C53.3193 9.98157 56.1594 11.3586 57.7085 13.8544ZM73.1135 16.092V27.28H67.5195V25.3006C66.4007 26.7636 64.5074 27.5382 62.0116 27.5382C58.2248 27.5382 55.9012 25.3006 55.9012 22.2024C55.9012 18.932 58.3109 17.0386 62.7861 17.0386H67.5195V16.7805C67.5195 15.0592 66.4007 14.1125 64.0771 14.1125C62.614 14.1125 60.6346 14.6289 58.7412 15.5756L57.106 11.961C59.86 10.7561 62.4419 9.98157 65.368 9.98157C70.1874 9.89551 73.1135 12.2192 73.1135 16.092ZM67.4335 21.5139V19.9647H63.8189C62.0976 19.9647 61.237 20.5672 61.237 21.772C61.237 22.9769 62.1837 23.8375 63.7328 23.8375C65.5401 23.8375 67.0892 22.8909 67.4335 21.5139ZM79.8264 13.0798C81.0312 11.1004 83.0967 9.98157 85.5925 9.89551V14.8871C82.2361 14.6289 80.0846 16.092 79.8264 18.5017V27.28H74.0602V10.1537H79.8264V13.0798Z" fill="#1A1A1A"/>
<path d="M17.4311 1.63379C26.5537 1.63379 34.0411 9.03511 34.0411 18.2437C34.0411 27.4524 26.6397 34.8537 17.4311 34.8537C8.30855 34.8537 0.907227 27.3663 0.907227 18.2437C0.907227 9.12117 8.30855 1.63379 17.4311 1.63379Z" fill="#1A1A1A"/>
<path d="M17.5171 32.7021C9.51336 32.7021 2.97266 26.2474 2.97266 18.1576C2.97266 10.0678 9.51336 3.69922 17.5171 3.69922C25.5209 3.69922 32.0616 10.1539 32.0616 18.2437C32.0616 26.3335 25.5209 32.7021 17.5171 32.7021ZM17.5171 31.3251C24.7463 31.3251 30.5985 25.4729 30.5985 18.2437C30.5985 11.0145 24.7463 5.16227 17.5171 5.16227C10.374 5.16227 4.52177 11.0145 4.52177 18.2437C4.52177 25.4729 10.374 31.3251 17.5171 31.3251Z" fill="#D13438"/>
<path d="M25.4346 16.0064C24.4018 15.0597 23.4551 14.5433 22.0781 14.5433C21.5618 14.5433 20.9593 14.6294 20.9593 14.7155V9.55176C20.0987 9.55176 19.2381 9.80994 18.5496 10.3263C17.8611 10.8427 17.5169 11.3591 17.5169 11.7894V17.2113L14.1604 20.3956C13.8162 20.7398 13.3859 20.9119 12.8695 20.9119C12.4392 20.9119 12.0089 20.7398 11.6647 20.3956C11.3204 20.0513 11.1483 19.7071 11.1483 19.2768C11.1483 18.8464 11.3204 18.4161 11.6647 18.0719C12.0089 17.7276 12.3531 17.5555 12.7835 17.5555C13.2998 17.5555 13.6441 17.7276 13.9883 18.0719L14.2465 18.3301L16.5702 16.0064L16.3981 15.6622C15.4514 14.7155 14.2465 14.1991 12.8695 14.1991C11.4925 14.1991 10.2877 14.7155 9.34098 15.6622C8.3943 16.6088 7.87793 17.8137 7.87793 19.1907C7.87793 20.5677 8.3943 21.6865 9.34098 22.7192C10.2877 23.6659 11.4925 24.1823 12.8695 24.1823C14.2465 24.1823 15.3653 23.6659 16.3981 22.7192L17.2587 21.8586L20.7872 18.3301C21.1315 17.9858 21.4757 17.8137 21.9921 17.8137C22.4224 17.8137 22.8527 17.9858 23.1109 18.3301C23.4551 18.6743 23.6273 19.0186 23.6273 19.4489C23.6273 19.8792 23.4551 20.3095 23.1109 20.6537C22.7666 20.998 22.4224 21.1701 21.9921 21.1701C21.4757 21.1701 21.1315 20.998 20.7872 20.6537L20.529 20.3956L18.2054 22.7192L18.4635 22.9774C19.4102 23.9241 20.6151 24.4405 21.9921 24.4405C23.3691 24.4405 24.5739 23.9241 25.5206 22.9774C26.4673 22.0307 26.9837 20.8259 26.9837 19.4489C26.9837 18.1579 26.4673 16.9531 25.4346 16.0064Z" fill="black"/>
</g>
<defs>
<clipPath id="clip0">
<rect width="199.664" height="36.146" fill="white" transform="translate(0.734375 0.170898)"/>
</clipPath>
</defs>
</svg>
