<svg width="44" height="44" viewBox="0 0 44 44" fill="none" xmlns="http://www.w3.org/2000/svg">
<g clip-path="url(#clip0)">
<path d="M38.0155 40.2107V39.2606C38.0155 38.8562 37.7833 38.4892 37.4192 38.3151C37.187 38.2037 31.8233 35.7006 23.0465 35.5087V31.931C23.6708 31.5687 24.094 30.8994 24.094 30.1262V28.9701H31.5237C31.5303 28.9701 31.5396 28.9701 31.5443 28.9701C32.7013 28.9701 33.6393 28.0312 33.6393 26.8752C33.6393 26.7001 33.6159 26.5316 33.5756 26.3697C35.4038 25.7659 36.3642 25.2192 36.4494 25.1677C36.7696 24.9805 36.9671 24.637 36.9671 24.2635V18.5346H37.9603C38.5397 18.5346 39.0077 18.0656 39.0077 17.4871C39.0077 16.9086 38.5397 16.4396 37.9603 16.4396H33.8798C33.3013 16.4396 32.8333 16.9086 32.8333 17.4871C32.8333 18.0656 33.3013 18.5346 33.8798 18.5346H34.874V23.6166C34.361 23.8525 33.467 24.2204 32.207 24.593L31.4975 23.8834C31.0182 23.4041 30.3349 23.1851 29.6656 23.2984C29.6422 23.3021 27.5537 23.6456 24.0949 23.7542V21.9242C27.9085 21.6873 29.8481 20.8636 30.0877 20.755C30.9068 20.3843 31.3973 19.5315 31.3075 18.6366L29.7021 2.68845C29.6253 1.92554 29.1376 1.26466 28.4318 0.966982C28.1959 0.867756 26.0186 0 21.999 0C17.9794 0 15.803 0.867756 15.5681 0.966982C14.8604 1.26466 14.3736 1.9246 14.2968 2.68845L12.6914 18.6404C12.6006 19.5353 13.0921 20.3881 13.9121 20.7587C14.1508 20.8664 16.0904 21.6911 19.904 21.9279V23.758C16.4452 23.6494 14.3577 23.3077 14.3352 23.3021C13.6612 23.187 12.9826 23.406 12.5014 23.8872L11.7928 24.5967C10.531 24.2241 9.63698 23.8563 9.12588 23.6204V18.5393H10.1191C10.6985 18.5393 11.1666 18.0703 11.1666 17.4918C11.1666 16.9133 10.6985 16.4443 10.1191 16.4443H6.03772C5.45828 16.4443 4.99023 16.9133 4.99023 17.4918C4.99023 18.0703 5.45828 18.5393 6.03772 18.5393H7.03091V24.2681C7.03091 24.6388 7.22843 24.9852 7.54857 25.1733C7.6375 25.2248 8.60261 25.7781 10.4514 26.3837C10.3475 26.8078 10.3643 27.2618 10.5394 27.6821C10.8642 28.4646 11.628 28.9748 12.4752 28.9748H19.905V30.1318C19.905 30.905 20.3281 31.5725 20.9524 31.9366V35.5143C12.1747 35.7044 6.8128 38.2075 6.57972 38.3189C6.21651 38.4939 5.98436 38.8618 5.98436 39.2643V40.2163C5.39182 40.5739 4.99117 41.217 4.99117 41.9603C4.99117 43.0873 5.90667 44.0019 7.03185 44.0019C8.15984 44.0019 9.07346 43.0873 9.07346 41.9603C9.07346 41.217 8.67281 40.573 8.07933 40.2163V39.9598C9.6529 39.3345 14.2641 37.76 20.9524 37.6074V40.2163C20.3599 40.5739 19.9592 41.217 19.9592 41.9603C19.9592 43.0873 20.8747 44.0019 21.9999 44.0019C23.1279 44.0019 24.0415 43.0873 24.0415 41.9603C24.0415 41.217 23.6409 40.573 23.0474 40.2163V37.6074C29.7105 37.7619 34.3395 39.3364 35.9205 39.9598V40.2163C35.327 40.5739 34.9264 41.217 34.9264 41.9603C34.9264 43.0873 35.8428 44.0019 36.968 44.0019C38.0951 44.0019 39.0087 43.0873 39.0087 41.9603C39.0077 41.2114 38.609 40.5674 38.0155 40.2107ZM18.6534 6.05089C18.7002 6.03123 19.8413 5.55944 21.999 5.55944C24.1567 5.55944 25.2968 6.03123 25.3446 6.05089C25.6114 6.16416 25.7368 6.47119 25.6245 6.73704C25.5393 6.93643 25.3446 7.05719 25.1414 7.05719C25.0731 7.05719 25.0048 7.04315 24.9364 7.016C24.929 7.01225 23.9217 6.60693 21.9981 6.60693C20.0744 6.60693 19.0672 7.01225 19.0569 7.01693C18.7901 7.12833 18.4849 7.00008 18.3735 6.73423C18.2631 6.46839 18.3885 6.16228 18.6534 6.05089ZM18.1301 9.23079C18.1844 9.20832 19.4978 8.66539 21.9999 8.66539C24.5021 8.66539 25.8154 9.20832 25.8697 9.23079C26.1365 9.34406 26.2619 9.65109 26.1505 9.91694C26.0644 10.1163 25.8697 10.2371 25.6666 10.2371C25.5983 10.2371 25.5299 10.224 25.4625 10.1959C25.4513 10.1922 24.2662 9.71194 21.9999 9.71194C19.7337 9.71194 18.5476 10.1912 18.5355 10.1968C18.2687 10.3073 17.9635 10.1809 17.8521 9.91507C17.7407 9.64922 17.8633 9.34312 18.1301 9.23079ZM21.999 12.817C19.3901 12.817 18.0244 13.3702 18.0112 13.3758C17.7426 13.4853 17.4384 13.3618 17.326 13.095C17.2156 12.8282 17.3401 12.523 17.6059 12.4107C17.6668 12.3845 19.1542 11.7695 21.999 11.7695C24.8438 11.7695 26.3312 12.3845 26.3921 12.4107C26.657 12.523 26.7815 12.8282 26.6719 13.095C26.5858 13.2953 26.3921 13.416 26.1871 13.416C26.1197 13.416 26.0513 13.4029 25.9849 13.3758C25.9746 13.3711 24.6088 12.817 21.999 12.817Z" fill="#10B068"/>
</g>
<defs>
<clipPath id="clip0">
<rect width="43.999" height="44" fill="white"/>
</clipPath>
</defs>
</svg>
