<svg width="16" height="15" viewBox="0 0 16 15" fill="none" xmlns="http://www.w3.org/2000/svg">
<path d="M14.2872 3.42657C14.0999 3.13907 13.6918 3.10095 13.4492 3.34358C13.2697 3.52305 13.2374 3.8038 13.3762 4.01643C14.1125 5.14586 14.5069 6.51668 14.3966 7.9866C14.1659 11.0616 11.7088 13.5846 8.63947 13.8833C4.60118 14.2765 1.22303 10.8983 1.61647 6.86027C1.90815 3.86482 4.32098 1.43766 7.31382 1.12141C8.8589 0.958081 10.303 1.35467 11.4836 2.12406C11.6962 2.26261 11.9769 2.23025 12.1564 2.05072C12.399 1.8081 12.361 1.40003 12.0735 1.21267C10.6014 0.253412 8.77773 -0.207305 6.83606 0.0888066C3.64182 0.57617 1.07921 3.12834 0.590274 6.32233C-0.183055 11.3745 4.12446 15.6823 9.17688 14.9095C12.3711 14.4211 14.9235 11.8585 15.4109 8.66423C15.7073 6.72256 15.2463 4.89856 14.2872 3.42657Z" fill="#1A1A1A"/>
<path d="M7.89118 8.61565V8.61545V4.55366C7.89118 4.25415 7.64826 4.01099 7.34851 4.01099C7.04875 4.01099 6.80583 4.2539 6.80583 4.55366V9.15808C6.80583 9.45759 7.04875 9.70075 7.34851 9.70075H11.9529C12.2527 9.70075 12.4953 9.45784 12.4953 9.15808C12.4953 8.85857 12.2524 8.61565 11.9529 8.61565H7.89118Z" fill="#1A1A1A"/>
</svg>
