<svg width="18" height="19" viewBox="0 0 18 19" fill="none" xmlns="http://www.w3.org/2000/svg">
<g clip-path="url(#clip0)">
<path d="M17.8076 3.15346C17.8076 1.88079 16.776 0.849121 15.5033 0.849121H2.4977C1.22502 0.849121 0.193359 1.88079 0.193359 3.15346V16.1589C0.193359 17.4317 1.22502 18.4634 2.4977 18.4634H15.5032C16.776 18.4634 17.8076 17.4317 17.8076 16.159V3.15346ZM4.14719 15.2324C3.76555 15.3348 3.4163 14.9855 3.51867 14.6039L4.15155 12.2449L6.50608 14.5994L4.14719 15.2324ZM14.3156 6.65359L7.34721 13.6221L5.00347 11.2784L11.9719 4.30994C12.3024 3.97944 12.8381 3.97944 13.1686 4.30994L14.3156 5.45695C14.646 5.78736 14.646 6.32308 14.3156 6.65359Z" fill="white"/>
</g>
<defs>
<clipPath id="clip0">
<rect width="17.6143" height="17.6143" fill="white" transform="translate(0.193359 0.849121)"/>
</clipPath>
</defs>
</svg>
