<svg width="15" height="15" viewBox="0 0 15 15" fill="none" xmlns="http://www.w3.org/2000/svg">
<g clip-path="url(#clip0)">
<path d="M14.4316 2.13115C14.4316 1.08842 13.5864 0.243164 12.5437 0.243164H1.88798C0.84526 0.243164 0 1.08842 0 2.13115V12.7867C0 13.8295 0.84526 14.6748 1.88798 14.6748H12.5436C13.5864 14.6748 14.4316 13.8295 14.4316 12.7868V2.13115ZM3.23944 12.0276C2.92675 12.1115 2.6406 11.8253 2.72448 11.5126L3.24301 9.57989L5.17211 11.509L3.23944 12.0276ZM11.5706 4.99886L5.86126 10.7083L3.941 8.78801L9.65034 3.07867C9.92113 2.80788 10.3601 2.80788 10.6308 3.07867L11.5706 4.01844C11.8413 4.28914 11.8413 4.72807 11.5706 4.99886Z" fill="#10B068"/>
</g>
<defs>
<clipPath id="clip0">
<rect width="14.4316" height="14.4316" fill="white" transform="translate(0 0.243164)"/>
</clipPath>
</defs>
</svg>
