<svg width="532" height="60" viewBox="0 0 532 60" fill="none" xmlns="http://www.w3.org/2000/svg">
<path d="M71.2601 1.15951L66.7694 13.1537H18.8497L23.3405 1.15951H71.2601ZM9.85849 37.0447C10.5791 35.0944 11.672 33.2741 13.1372 31.5839C14.6676 29.8936 16.3841 28.4309 18.2864 27.1958C20.2477 25.8956 22.3687 24.8879 24.6495 24.1728C26.9302 23.4577 29.2139 23.1002 31.5004 23.1002H62.9569L58.4661 35.0944H34.4573C32.6934 35.0944 30.9812 35.6145 29.3207 36.6546C27.7256 37.6948 26.6431 38.9624 26.0732 40.4577L23.5968 47.0886H53.9753L49.4749 58.9853H17.2345H1.55524L9.85849 37.0447Z" fill="#10B068"/>
<path d="M147.677 1.15951H153.557L131.772 58.9853H114.133L124.303 32.169L103.941 58.9853H88.1638L88.0445 32.169L77.9723 58.9853H60.3332L82.1184 1.15951H87.9982H103.677L103.845 38.3124L131.998 1.15951H147.677ZM203.538 1.15951C205.825 1.15951 207.82 1.51706 209.525 2.23216C211.294 2.94727 212.669 3.95491 213.647 5.2551C214.685 6.49028 215.32 7.95299 215.554 9.64323C215.787 11.3335 215.543 13.1537 214.823 15.104L203.503 45.1383C202.782 47.0886 201.656 48.9089 200.126 50.5991C198.654 52.2244 196.938 53.6871 194.977 54.9873C193.009 56.2224 190.885 57.1976 188.604 57.9127C186.323 58.6278 184.04 58.9853 181.753 58.9853H158.626C156.47 58.9853 154.511 58.6603 152.747 58.0102C151.043 57.2951 149.669 56.2874 148.625 54.9873C146.394 52.2569 146.002 48.9739 147.449 45.1383L158.76 15.0065C159.487 13.1212 160.583 11.3335 162.048 9.64323C163.579 7.95299 165.328 6.49028 167.295 5.2551C169.257 3.95491 171.345 2.94727 173.56 2.23216C175.841 1.51706 178.125 1.15951 180.411 1.15951H203.538ZM178.806 47.0886C180.57 47.0886 182.249 46.5685 183.844 45.5284C185.505 44.4882 186.62 43.2206 187.19 41.7253L195.857 18.517C196.427 17.0218 196.301 15.7541 195.479 14.714C194.657 13.6738 193.364 13.1537 191.6 13.1537H183.466C181.702 13.1537 179.99 13.6738 178.33 14.714C176.735 15.7541 175.652 17.0218 175.082 18.517L166.317 41.7253C165.747 43.2206 165.873 44.4882 166.695 45.5284C167.583 46.5685 168.908 47.0886 170.672 47.0886H178.806ZM277.383 1.15951L272.892 13.1537H257.213L239.919 58.9853H222.377L239.574 13.1537H223.895L228.385 1.15951H277.383ZM324.402 1.15951C326.688 1.15951 328.684 1.51706 330.388 2.23216C332.158 2.94727 333.532 3.95491 334.51 5.2551C335.548 6.49028 336.183 7.95299 336.417 9.64323C336.65 11.3335 336.407 13.1537 335.686 15.104L324.366 45.1383C323.645 47.0886 322.52 48.9089 320.989 50.5991C319.518 52.2244 317.801 53.6871 315.84 54.9873C313.872 56.2224 311.748 57.1976 309.467 57.9127C307.187 58.6278 304.903 58.9853 302.616 58.9853H279.489C277.334 58.9853 275.374 58.6603 273.611 58.0102C271.906 57.2951 270.532 56.2874 269.488 54.9873C267.257 52.2569 266.865 48.9739 268.313 45.1383L279.623 15.0065C280.35 13.1212 281.446 11.3335 282.911 9.64323C284.442 7.95299 286.191 6.49028 288.159 5.2551C290.12 3.95491 292.208 2.94727 294.424 2.23216C296.704 1.51706 298.988 1.15951 301.275 1.15951H324.402ZM299.669 47.0886C301.433 47.0886 303.113 46.5685 304.708 45.5284C306.368 44.4882 307.483 43.2206 308.053 41.7253L316.72 18.517C317.29 17.0218 317.164 15.7541 316.342 14.714C315.52 13.6738 314.227 13.1537 312.463 13.1537H304.33C302.566 13.1537 300.853 13.6738 299.193 14.714C297.598 15.7541 296.515 17.0218 295.945 18.517L287.18 41.7253C286.61 43.2206 286.736 44.4882 287.559 45.5284C288.446 46.5685 289.772 47.0886 291.536 47.0886H299.669ZM395.05 21.2474C394.323 23.1327 393.195 24.9204 391.664 26.6107C390.199 28.3009 388.486 29.7961 386.525 31.0963C384.557 32.3315 382.433 33.3066 380.152 34.0217C377.871 34.7368 375.62 35.0944 373.399 35.0944H371.145L380.773 58.9853H362.84L354.16 37.7273L346.181 58.9853H328.541C328.699 58.5953 329.039 57.7502 329.563 56.45C330.022 55.1498 330.618 53.5896 331.351 51.7693C332.02 49.949 332.767 47.9337 333.592 45.7234C334.417 43.5131 335.243 41.3028 336.068 39.0925C336.894 36.8821 337.696 34.7693 338.476 32.7541C339.249 30.6738 339.917 28.8535 340.481 27.2933C341.26 25.278 341.774 23.8803 342.023 23.1002H372.696C374.002 23.1002 375.27 22.7101 376.499 21.93C377.728 21.1499 378.549 20.2072 378.962 19.1021L379.65 17.1518C380.063 16.0467 379.936 15.104 379.271 14.3239C378.67 13.5438 377.717 13.1537 376.41 13.1537H345.836L350.327 1.15951H386.193C388.414 1.15951 390.377 1.51706 392.081 2.23216C393.851 2.94727 395.225 3.95491 396.204 5.2551C397.241 6.49028 397.877 7.95299 398.11 9.64323C398.344 11.3335 398.097 13.1212 397.37 15.0065L395.05 21.2474ZM434.049 1.15951H452.766L453.03 58.9853H434.313L434.141 25.733L409.03 58.9853H390.313L427.651 9.74075L421.212 1.15951H434.049ZM518.157 1.15951C520.378 1.15951 522.341 1.51706 524.046 2.23216C525.815 2.94727 527.189 3.95491 528.168 5.2551C529.206 6.49028 529.841 7.95299 530.074 9.64323C530.308 11.3335 530.061 13.1212 529.334 15.0065C528.77 16.5667 527.939 18.712 526.838 21.4424C525.803 24.1728 524.719 27.0657 523.586 30.1212C522.511 33.1116 521.456 35.972 520.421 38.7024C519.386 41.4328 518.587 43.5781 518.024 45.1383C517.303 47.0886 516.177 48.9089 514.647 50.5991C513.175 52.2244 511.459 53.6871 509.498 54.9873C507.53 56.2224 505.406 57.1976 503.125 57.9127C500.844 58.6278 498.593 58.9853 496.372 58.9853H460.506C460.761 58.2702 461.256 57.0025 461.989 55.1823C462.658 53.362 463.46 51.2492 464.397 48.8439C465.262 46.3735 466.215 43.8056 467.256 41.1403C468.291 38.4099 469.245 35.842 470.116 33.4367C471.053 31.0313 471.852 28.886 472.514 27.0007C473.241 25.1155 473.732 23.8153 473.988 23.1002H491.627L482.645 47.0886H499.696C500.103 45.9184 500.64 44.4232 501.308 42.603C502.042 40.7827 502.792 38.7999 503.558 36.6546C504.39 34.5093 505.248 32.299 506.133 30.0237C507.011 27.6833 507.836 25.473 508.609 23.3927C509.441 21.2474 510.194 19.2971 510.869 17.5419C511.537 15.7216 512.078 14.2589 512.49 13.1537H477.8L482.291 1.15951H518.157Z" fill="white"/>
<path d="M71.2601 1.15951L72.2068 1.58392L72.7383 0.164416H71.1612L71.2601 1.15951ZM66.7694 13.1537L66.8683 14.1488H67.5024L67.7161 13.5781L66.7694 13.1537ZM18.8497 13.1537L17.903 12.7293L17.3715 14.1488H18.9487L18.8497 13.1537ZM23.3405 1.15951L23.2415 0.164416H22.6075L22.3938 0.735095L23.3405 1.15951ZM9.85849 37.0447L10.8041 37.472L10.8065 37.4655L9.85849 37.0447ZM13.1372 31.5839L12.3601 30.8803L12.3538 30.8871L12.3477 30.8942L13.1372 31.5839ZM18.2864 27.1958L18.8934 28.0442L18.9004 28.0396L18.2864 27.1958ZM62.9569 23.1002L63.9036 23.5246L64.435 22.1051H62.8579L62.9569 23.1002ZM58.4661 35.0944L58.5651 36.0895H59.1991L59.4128 35.5188L58.4661 35.0944ZM29.3207 36.6546L28.7258 35.7985L28.719 35.8028L28.7123 35.8071L29.3207 36.6546ZM26.0732 40.4577L25.1283 40.0283L25.1262 40.034L26.0732 40.4577ZM23.5968 47.0886L22.6499 46.6649L22.12 48.0837H23.6958L23.5968 47.0886ZM53.9753 47.0886L54.921 47.5159L55.459 46.0935H53.8764L53.9753 47.0886ZM49.4749 58.9853L49.5738 59.9804H50.2057L50.4205 59.4126L49.4749 58.9853ZM1.55524 58.9853L0.609647 58.558L0.0713347 59.9804H1.65421L1.55524 58.9853ZM70.3134 0.735095L65.8227 12.7293L67.7161 13.5781L72.2068 1.58392L70.3134 0.735095ZM66.6704 12.1586H18.7507L18.9487 14.1488H66.8683L66.6704 12.1586ZM19.7964 13.5781L24.2872 1.58392L22.3938 0.735095L17.903 12.7293L19.7964 13.5781ZM23.4395 2.1546H71.3591L71.1612 0.164416H23.2415L23.4395 2.1546ZM10.8065 37.4655C11.4874 35.6228 12.5237 33.892 13.9266 32.2736L12.3477 30.8942C10.8203 32.6563 9.67087 34.5659 8.91045 36.6239L10.8065 37.4655ZM13.9143 32.2875C15.3952 30.652 17.0547 29.238 18.8934 28.0442L17.6795 26.3473C15.7134 27.6239 13.9401 29.1353 12.3601 30.8803L13.9143 32.2875ZM18.9004 28.0396C20.7922 26.7854 22.8369 25.8141 25.0363 25.1245L24.2626 23.2212C21.9005 23.9618 19.7032 25.0057 17.6725 26.3519L18.9004 28.0396ZM25.0363 25.1245C27.2322 24.436 29.4191 24.0953 31.5994 24.0953L31.4014 22.1051C29.0087 22.1051 26.6283 22.4794 24.2626 23.2212L25.0363 25.1245ZM31.5994 24.0953H63.0558L62.8579 22.1051H31.4014L31.5994 24.0953ZM62.0102 22.6758L57.5194 34.67L59.4128 35.5188L63.9036 23.5246L62.0102 22.6758ZM58.3671 34.0993H34.3583L34.5563 36.0895H58.5651L58.3671 34.0993ZM34.3583 34.0993C32.3876 34.0993 30.5076 34.6824 28.7258 35.7985L29.9157 37.5107C31.4548 36.5466 32.9991 36.0895 34.5563 36.0895L34.3583 34.0993ZM28.7123 35.8071C26.9941 36.9276 25.7761 38.3289 25.1283 40.0283L27.018 40.887C27.5101 39.596 28.4571 38.462 29.9291 37.5021L28.7123 35.8071ZM25.1262 40.034L22.6499 46.6649L24.5438 47.5123L27.0201 40.8814L25.1262 40.034ZM23.6958 48.0837H54.0743L53.8764 46.0935H23.4979L23.6958 48.0837ZM53.0297 46.6614L48.5292 58.5581L50.4205 59.4126L54.921 47.5159L53.0297 46.6614ZM49.3759 57.9902H17.1355L17.3334 59.9804H49.5738L49.3759 57.9902ZM17.1355 57.9902H1.45626L1.65421 59.9804H17.3334L17.1355 57.9902ZM2.50082 59.4127L10.8041 37.472L8.9129 36.6173L0.609647 58.558L2.50082 59.4127ZM153.557 1.15951L154.503 1.58562L155.038 0.164416H153.458L153.557 1.15951ZM131.772 58.9853L131.871 59.9804H132.503L132.718 59.4114L131.772 58.9853ZM114.133 58.9853L113.187 58.5574L112.647 59.9804H114.232L114.133 58.9853ZM124.303 32.169L125.248 32.5969L123.478 31.5225L124.303 32.169ZM103.941 58.9853L104.04 59.9804H104.501L104.766 59.6318L103.941 58.9853ZM88.1638 58.9853L87.159 58.8917L87.1638 59.9804H88.2628L88.1638 58.9853ZM88.0445 32.169L89.0494 32.2626L87.0982 31.7437L88.0445 32.169ZM77.9723 58.9853L78.0713 59.9804H78.7047L78.9187 59.4106L77.9723 58.9853ZM60.3332 58.9853L59.3871 58.5592L58.8517 59.9804H60.4322L60.3332 58.9853ZM82.1184 1.15951L82.0195 0.164416H81.3867L81.1724 0.733391L82.1184 1.15951ZM103.677 1.15951L104.682 1.25311L104.677 0.164416H103.578L103.677 1.15951ZM103.845 38.3124L102.84 38.2187L102.854 41.3544L104.67 38.9581L103.845 38.3124ZM131.998 1.15951L131.899 0.164416H131.438L131.173 0.513712L131.998 1.15951ZM147.776 2.1546H153.656L153.458 0.164416H147.578L147.776 2.1546ZM152.611 0.733391L130.826 58.5592L132.718 59.4114L154.503 1.58562L152.611 0.733391ZM131.673 57.9902H114.034L114.232 59.9804H131.871L131.673 57.9902ZM115.078 59.4133L125.248 32.5969L123.357 31.741L113.187 58.5574L115.078 59.4133ZM123.478 31.5225L103.117 58.3389L104.766 59.6318L125.127 32.8154L123.478 31.5225ZM103.842 57.9902H88.0649L88.2628 59.9804H104.04L103.842 57.9902ZM89.1687 59.079L89.0494 32.2626L87.0397 32.0753L87.159 58.8917L89.1687 59.079ZM87.0982 31.7437L77.026 58.5601L78.9187 59.4106L88.9909 32.5943L87.0982 31.7437ZM77.8734 57.9902H60.2342L60.4322 59.9804H78.0713L77.8734 57.9902ZM61.2793 59.4114L83.0645 1.58562L81.1724 0.733391L59.3871 58.5592L61.2793 59.4114ZM82.2174 2.1546H88.0971L87.8992 0.164416H82.0195L82.2174 2.1546ZM88.0971 2.1546H103.776L103.578 0.164416H87.8992L88.0971 2.1546ZM102.673 1.0659L102.84 38.2187L104.85 38.406L104.682 1.25311L102.673 1.0659ZM104.67 38.9581L132.823 1.8053L131.173 0.513712L103.02 37.6666L104.67 38.9581ZM132.097 2.1546H147.776L147.578 0.164416H131.899L132.097 2.1546ZM209.525 2.23216L209.213 3.14298L209.219 3.14584L209.226 3.14861L209.525 2.23216ZM213.647 5.2551L212.863 5.79741L212.881 5.82189L212.901 5.84539L213.647 5.2551ZM215.554 9.64323L216.549 9.60498L215.554 9.64323ZM214.823 15.104L215.769 15.5303L215.771 15.5248L214.823 15.104ZM203.503 45.1383L202.557 44.7121L202.555 44.7175L203.503 45.1383ZM200.126 50.5991L199.349 49.8955L200.126 50.5991ZM194.977 54.9873L195.572 55.8429L195.582 55.8371L195.591 55.8311L194.977 54.9873ZM188.604 57.9127L188.991 58.8643L188.604 57.9127ZM152.747 58.0102L152.435 58.921L152.458 58.9305L152.481 58.939L152.747 58.0102ZM148.625 54.9873L149.388 54.4166L149.381 54.4089L148.625 54.9873ZM147.449 45.1383L148.395 45.565L148.396 45.5634L147.449 45.1383ZM158.76 15.0065L157.816 14.5739L157.813 14.5814L158.76 15.0065ZM162.048 9.64323L161.271 8.93959L161.265 8.94649L161.259 8.95352L162.048 9.64323ZM167.295 5.2551L167.891 6.11073L167.9 6.10494L167.909 6.09894L167.295 5.2551ZM173.56 2.23216L173.174 1.28048L173.166 1.28285L173.56 2.23216ZM183.844 45.5284L183.249 44.6723L183.243 44.6766L183.236 44.6809L183.844 45.5284ZM187.19 41.7253L188.135 42.1547L188.137 42.1491L187.19 41.7253ZM195.857 18.517L194.912 18.0877L194.91 18.0933L195.857 18.517ZM195.479 14.714L196.247 14.1502L196.247 14.1502L195.479 14.714ZM178.33 14.714L177.735 13.8579L177.728 13.8621L177.721 13.8665L178.33 14.714ZM175.082 18.517L174.137 18.0877L174.136 18.0902L175.082 18.517ZM166.317 41.7253L167.262 42.1547L167.263 42.1521L166.317 41.7253ZM166.695 45.5284L165.927 46.0921L165.941 46.109L165.955 46.1254L166.695 45.5284ZM203.637 2.1546C205.823 2.1546 207.672 2.49674 209.213 3.14298L209.837 1.32134C207.968 0.537381 205.827 0.164416 203.439 0.164416L203.637 2.1546ZM209.226 3.14861C210.84 3.80084 212.031 4.69236 212.863 5.79741L214.432 4.71279C213.306 3.21746 211.748 2.09369 209.823 1.31572L209.226 3.14861ZM212.901 5.84539C213.79 6.90373 214.349 8.16916 214.558 9.68147L216.549 9.60498C216.291 7.73681 215.58 6.07683 214.394 4.66481L212.901 5.84539ZM214.558 9.68147C214.765 11.1763 214.556 12.8384 213.875 14.6832L215.771 15.5248C216.53 13.4691 216.809 11.4906 216.549 9.60498L214.558 9.68147ZM213.877 14.6778L202.557 44.7121L204.449 45.5646L215.769 15.5303L213.877 14.6778ZM202.555 44.7175C201.877 46.5517 200.813 48.2782 199.349 49.8955L200.903 51.3028C202.5 49.5395 203.687 47.6255 204.451 45.5591L202.555 44.7175ZM199.349 49.8955C197.929 51.464 196.268 52.8805 194.363 54.1434L195.591 55.8311C197.608 54.4937 199.38 52.9847 200.903 51.3028L199.349 49.8955ZM194.381 54.1316C192.479 55.3258 190.425 56.2689 188.217 56.961L188.991 58.8643C191.345 58.1263 193.539 57.1191 195.572 55.8429L194.381 54.1316ZM188.217 56.961C186.021 57.6495 183.834 57.9902 181.654 57.9902L181.852 59.9804C184.245 59.9804 186.625 59.6061 188.991 58.8643L188.217 56.961ZM181.654 57.9902H158.527L158.725 59.9804H181.852L181.654 57.9902ZM158.527 57.9902C156.472 57.9902 154.639 57.6804 153.014 57.0814L152.481 58.939C154.383 59.6402 156.469 59.9804 158.725 59.9804L158.527 57.9902ZM153.06 57.0994C151.509 56.4487 150.298 55.5504 149.387 54.4166L147.863 55.5579C149.04 57.0245 150.577 58.1415 152.435 58.921L153.06 57.0994ZM149.381 54.4089C147.456 52.0535 147.033 49.1753 148.395 45.565L146.504 44.7117C144.971 48.7725 145.331 52.4602 147.869 55.5656L149.381 54.4089ZM148.396 45.5634L159.706 15.4316L157.813 14.5814L146.503 44.7132L148.396 45.5634ZM159.703 15.4391C160.39 13.6591 161.43 11.9564 162.838 10.3329L161.259 8.95352C159.736 10.7105 158.584 12.5834 157.816 14.5739L159.703 15.4391ZM162.825 10.3469C164.302 8.71595 165.99 7.30411 167.891 6.11073L166.7 4.39947C164.665 5.67645 162.855 7.19002 161.271 8.93959L162.825 10.3469ZM167.909 6.09894C169.805 4.84219 171.82 3.87056 173.955 3.18147L173.166 1.28285C170.87 2.02398 168.708 3.06763 166.682 4.41127L167.909 6.09894ZM173.947 3.18382C176.143 2.49534 178.33 2.1546 180.51 2.1546L180.312 0.164416C177.92 0.164416 175.539 0.538776 173.174 1.28051L173.947 3.18382ZM180.51 2.1546H203.637L203.439 0.164416H180.312L180.51 2.1546ZM178.905 48.0837C180.877 48.0837 182.73 47.4996 184.453 46.3759L183.236 44.6809C181.769 45.6375 180.262 46.0935 178.707 46.0935L178.905 48.0837ZM184.439 46.3845C186.223 45.2672 187.483 43.8649 188.135 42.1547L186.245 41.296C185.757 42.5762 184.787 43.7093 183.249 44.6723L184.439 46.3845ZM188.137 42.1491L196.804 18.9407L194.91 18.0933L186.243 41.3016L188.137 42.1491ZM196.802 18.9463C197.45 17.2452 197.373 15.5755 196.247 14.1502L194.711 15.2777C195.229 15.9327 195.404 16.7984 194.912 18.0877L196.802 18.9463ZM196.247 14.1502C195.135 12.7429 193.455 12.1586 191.501 12.1586L191.699 14.1488C193.273 14.1488 194.179 14.6047 194.711 15.2777L196.247 14.1502ZM191.501 12.1586H183.367L183.565 14.1488H191.699L191.501 12.1586ZM183.367 12.1586C181.397 12.1586 179.517 12.7417 177.735 13.8579L178.925 15.57C180.464 14.6059 182.008 14.1488 183.565 14.1488L183.367 12.1586ZM177.721 13.8665C176.003 14.9869 174.785 16.3883 174.137 18.0877L176.027 18.9463C176.519 17.6553 177.466 16.5213 178.938 15.5614L177.721 13.8665ZM174.136 18.0902L165.371 41.2985L167.263 42.1521L176.028 18.9438L174.136 18.0902ZM165.372 41.296C164.724 42.9972 164.801 44.6668 165.927 46.0921L167.463 44.9646C166.946 44.3097 166.77 43.4439 167.262 42.1547L165.372 41.296ZM165.955 46.1254C167.125 47.4977 168.812 48.0837 170.771 48.0837L170.573 46.0935C169.005 46.0935 168.04 45.6393 167.436 44.9313L165.955 46.1254ZM170.771 48.0837H178.905L178.707 46.0935H170.573L170.771 48.0837ZM277.383 1.15951L278.33 1.58392L278.861 0.164416H277.284L277.383 1.15951ZM272.892 13.1537L272.991 14.1488H273.625L273.839 13.5781L272.892 13.1537ZM257.213 13.1537L257.114 12.1586H256.482L256.267 12.7272L257.213 13.1537ZM239.919 58.9853L240.018 59.9804H240.65L240.864 59.4119L239.919 58.9853ZM222.377 58.9853L221.431 58.5603L220.898 59.9804H222.476L222.377 58.9853ZM239.574 13.1537L240.52 13.5787L241.053 12.1586H239.475L239.574 13.1537ZM223.895 13.1537L222.948 12.7293L222.416 14.1488H223.994L223.895 13.1537ZM228.385 1.15951L228.286 0.164416H227.652L227.439 0.735095L228.385 1.15951ZM276.436 0.735095L271.946 12.7293L273.839 13.5781L278.33 1.58392L276.436 0.735095ZM272.793 12.1586H257.114L257.312 14.1488H272.991L272.793 12.1586ZM256.267 12.7272L238.973 58.5588L240.864 59.4119L258.159 13.5803L256.267 12.7272ZM239.82 57.9902H222.278L222.476 59.9804H240.018L239.82 57.9902ZM223.324 59.4103L240.52 13.5787L238.627 12.7287L221.431 58.5603L223.324 59.4103ZM239.475 12.1586H223.796L223.994 14.1488H239.673L239.475 12.1586ZM224.841 13.5781L229.332 1.58392L227.439 0.735095L222.948 12.7293L224.841 13.5781ZM228.484 2.1546H277.482L277.284 0.164416H228.286L228.484 2.1546ZM330.388 2.23216L330.076 3.14298L330.083 3.14584L330.089 3.14861L330.388 2.23216ZM334.51 5.2551L333.726 5.79741L333.744 5.82189L333.764 5.84539L334.51 5.2551ZM336.417 9.64323L337.412 9.60498L336.417 9.64323ZM335.686 15.104L336.632 15.5303L336.634 15.5248L335.686 15.104ZM324.366 45.1383L323.42 44.7121L323.418 44.7175L324.366 45.1383ZM320.989 50.5991L320.212 49.8955L320.989 50.5991ZM315.84 54.9873L316.436 55.8429L316.445 55.8371L316.454 55.8311L315.84 54.9873ZM309.467 57.9127L309.854 58.8643L309.467 57.9127ZM273.611 58.0102L273.299 58.921L273.321 58.9305L273.344 58.939L273.611 58.0102ZM269.488 54.9873L270.251 54.4166L270.244 54.4089L269.488 54.9873ZM268.313 45.1383L269.259 45.565L269.259 45.5634L268.313 45.1383ZM279.623 15.0065L278.679 14.5739L278.677 14.5814L279.623 15.0065ZM282.911 9.64323L282.134 8.93959L282.128 8.94649L282.122 8.95352L282.911 9.64323ZM288.159 5.2551L288.754 6.11073L288.764 6.10494L288.773 6.09894L288.159 5.2551ZM294.424 2.23216L294.037 1.28048L294.029 1.28285L294.424 2.23216ZM304.708 45.5284L304.113 44.6723L304.106 44.6766L304.099 44.6809L304.708 45.5284ZM308.053 41.7253L308.998 42.1547L309 42.1491L308.053 41.7253ZM316.72 18.517L315.776 18.0877L315.773 18.0933L316.72 18.517ZM316.342 14.714L317.11 14.1502L317.11 14.1502L316.342 14.714ZM299.193 14.714L298.598 13.8579L298.591 13.8621L298.585 13.8665L299.193 14.714ZM295.945 18.517L295.001 18.0877L295 18.0902L295.945 18.517ZM287.18 41.7253L288.125 42.1547L288.126 42.1521L287.18 41.7253ZM287.559 45.5284L286.791 46.0921L286.804 46.109L286.818 46.1254L287.559 45.5284ZM324.501 2.1546C326.686 2.1546 328.536 2.49674 330.076 3.14298L330.7 1.32134C328.832 0.537381 326.69 0.164416 324.303 0.164416L324.501 2.1546ZM330.089 3.14861C331.704 3.80084 332.894 4.69236 333.726 5.79741L335.295 4.71279C334.169 3.21746 332.612 2.09369 330.686 1.31572L330.089 3.14861ZM333.764 5.84539C334.653 6.90373 335.212 8.16916 335.421 9.68147L337.412 9.60498C337.154 7.73681 336.443 6.07683 335.257 4.66481L333.764 5.84539ZM335.421 9.68147C335.628 11.1763 335.42 12.8384 334.738 14.6832L336.634 15.5248C337.394 13.4691 337.673 11.4906 337.412 9.60498L335.421 9.68147ZM334.74 14.6778L323.42 44.7121L325.312 45.5646L336.632 15.5303L334.74 14.6778ZM323.418 44.7175C322.74 46.5517 321.677 48.2782 320.212 49.8955L321.766 51.3028C323.363 49.5395 324.55 47.6255 325.314 45.5591L323.418 44.7175ZM320.212 49.8955C318.792 51.464 317.131 52.8805 315.226 54.1434L316.454 55.8311C318.471 54.4937 320.243 52.9847 321.766 51.3028L320.212 49.8955ZM315.244 54.1316C313.342 55.3258 311.288 56.2689 309.08 56.961L309.854 58.8643C312.208 58.1263 314.403 57.1191 316.436 55.8429L315.244 54.1316ZM309.08 56.961C306.885 57.6495 304.698 57.9902 302.517 57.9902L302.715 59.9804C305.108 59.9804 307.488 59.6061 309.854 58.8643L309.08 56.961ZM302.517 57.9902H279.39L279.588 59.9804H302.715L302.517 57.9902ZM279.39 57.9902C277.335 57.9902 275.502 57.6804 273.877 57.0814L273.344 58.939C275.246 59.6402 277.332 59.9804 279.588 59.9804L279.39 57.9902ZM273.923 57.0994C272.372 56.4487 271.161 55.5504 270.251 54.4166L268.726 55.5579C269.903 57.0245 271.441 58.1415 273.299 58.921L273.923 57.0994ZM270.244 54.4089C268.32 52.0535 267.896 49.1753 269.259 45.565L267.367 44.7117C265.834 48.7725 266.194 52.4602 268.732 55.5656L270.244 54.4089ZM269.259 45.5634L280.569 15.4316L278.677 14.5814L267.366 44.7132L269.259 45.5634ZM280.567 15.4391C281.253 13.6591 282.294 11.9564 283.701 10.3329L282.122 8.95352C280.599 10.7105 279.447 12.5834 278.679 14.5739L280.567 15.4391ZM283.689 10.3469C285.165 8.71595 286.853 7.30411 288.754 6.11073L287.563 4.39947C285.529 5.67645 283.719 7.19002 282.134 8.93959L283.689 10.3469ZM288.773 6.09894C290.668 4.84219 292.683 3.87056 294.818 3.18147L294.029 1.28285C291.733 2.02398 289.572 3.06763 287.545 4.41127L288.773 6.09894ZM294.811 3.18382C297.006 2.49534 299.193 2.1546 301.374 2.1546L301.176 0.164416C298.783 0.164416 296.403 0.538776 294.037 1.28051L294.811 3.18382ZM301.374 2.1546H324.501L324.303 0.164416H301.176L301.374 2.1546ZM299.768 48.0837C301.74 48.0837 303.593 47.4996 305.316 46.3759L304.099 44.6809C302.632 45.6375 301.126 46.0935 299.57 46.0935L299.768 48.0837ZM305.303 46.3845C307.086 45.2672 308.346 43.8649 308.998 42.1547L307.108 41.296C306.62 42.5762 305.65 43.7093 304.113 44.6723L305.303 46.3845ZM309 42.1491L317.667 18.9407L315.773 18.0933L307.106 41.3016L309 42.1491ZM317.665 18.9463C318.314 17.2452 318.237 15.5755 317.11 14.1502L315.574 15.2777C316.092 15.9327 316.267 16.7984 315.776 18.0877L317.665 18.9463ZM317.11 14.1502C315.998 12.7429 314.318 12.1586 312.364 12.1586L312.562 14.1488C314.136 14.1488 315.042 14.6047 315.574 15.2777L317.11 14.1502ZM312.364 12.1586H304.231L304.429 14.1488H312.562L312.364 12.1586ZM304.231 12.1586C302.26 12.1586 300.38 12.7417 298.598 13.8579L299.788 15.57C301.327 14.6059 302.871 14.1488 304.429 14.1488L304.231 12.1586ZM298.585 13.8665C296.866 14.9869 295.648 16.3883 295.001 18.0877L296.89 18.9463C297.382 17.6553 298.329 16.5213 299.801 15.5614L298.585 13.8665ZM295 18.0902L286.234 41.2985L288.126 42.1521L296.891 18.9438L295 18.0902ZM286.235 41.296C285.587 42.9972 285.664 44.6668 286.791 46.0921L288.327 44.9646C287.809 44.3097 287.634 43.4439 288.125 42.1547L286.235 41.296ZM286.818 46.1254C287.989 47.4977 289.675 48.0837 291.635 48.0837L291.437 46.0935C289.868 46.0935 288.903 45.6393 288.299 44.9313L286.818 46.1254ZM291.635 48.0837H299.768L299.57 46.0935H291.437L291.635 48.0837ZM395.05 21.2474L395.994 21.68L395.998 21.6697L395.05 21.2474ZM391.664 26.6107L390.887 25.907L390.881 25.9139L390.875 25.921L391.664 26.6107ZM386.525 31.0963L387.12 31.9519L387.129 31.9462L387.138 31.9401L386.525 31.0963ZM371.145 35.0944L371.046 34.0993H369.699L370.216 35.3821L371.145 35.0944ZM380.773 58.9853L380.872 59.9804H382.218L381.701 58.6976L380.773 58.9853ZM362.84 58.9853L361.913 59.2777L362.2 59.9804H362.939L362.84 58.9853ZM354.16 37.7273L355.086 37.4349L354.084 34.981L353.213 37.3022L354.16 37.7273ZM346.181 58.9853L346.279 59.9804H346.913L347.127 59.4104L346.181 58.9853ZM328.541 58.9853L327.603 58.5403L327.022 59.9804H328.64L328.541 58.9853ZM329.563 56.45L330.502 56.895L330.509 56.8768L330.516 56.8583L329.563 56.45ZM331.351 51.7693L332.29 52.2143L332.295 52.2014L332.3 52.1883L331.351 51.7693ZM333.592 45.7234L332.645 45.2997L333.592 45.7234ZM336.068 39.0925L335.121 38.6688L336.068 39.0925ZM338.476 32.7541L339.419 33.1875L339.423 33.1764L338.476 32.7541ZM340.481 27.2933L339.537 26.8598L339.534 26.8692L339.53 26.8787L340.481 27.2933ZM342.023 23.1002L341.924 22.1051H341.258L341.062 22.7174L342.023 23.1002ZM376.499 21.93L375.9 21.0767L376.499 21.93ZM378.962 19.1021L379.909 19.5258L379.912 19.5181L379.914 19.5104L378.962 19.1021ZM379.65 17.1518L378.703 16.7281L378.7 16.7358L378.697 16.7435L379.65 17.1518ZM379.271 14.3239L378.493 14.8759L378.511 14.8989L378.53 14.921L379.271 14.3239ZM345.836 13.1537L344.889 12.7293L344.358 14.1488H345.935L345.836 13.1537ZM350.327 1.15951L350.228 0.164416H349.594L349.38 0.735095L350.327 1.15951ZM392.081 2.23216L391.769 3.14298L391.776 3.14584L391.783 3.14861L392.081 2.23216ZM396.204 5.2551L395.419 5.79741L395.438 5.82189L395.457 5.84539L396.204 5.2551ZM398.11 9.64323L399.106 9.60498L398.11 9.64323ZM397.37 15.0065L396.426 14.5739L396.422 14.5841L397.37 15.0065ZM394.107 20.8148C393.424 22.5864 392.356 24.2847 390.887 25.907L392.441 27.3143C394.033 25.5562 395.223 23.6789 395.994 21.68L394.107 20.8148ZM390.875 25.921C389.463 27.5496 387.809 28.9937 385.911 30.2525L387.138 31.9401C389.162 30.5986 390.935 29.0523 392.454 27.3004L390.875 25.921ZM385.929 30.2407C384.027 31.4348 381.973 32.3779 379.765 33.0701L380.539 34.9734C382.893 34.2353 385.087 33.2282 387.12 31.9519L385.929 30.2407ZM379.765 33.0701C377.566 33.7594 375.412 34.0993 373.3 34.0993L373.498 36.0895C375.828 36.0895 378.176 35.7142 380.539 34.9734L379.765 33.0701ZM373.3 34.0993H371.046L371.244 36.0895H373.498L373.3 34.0993ZM370.216 35.3821L379.844 59.273L381.701 58.6976L372.074 34.8067L370.216 35.3821ZM380.674 57.9902H362.741L362.939 59.9804H380.872L380.674 57.9902ZM363.766 58.693L355.086 37.4349L353.233 38.0196L361.913 59.2777L363.766 58.693ZM353.213 37.3022L345.234 58.5602L347.127 59.4104L355.106 38.1524L353.213 37.3022ZM346.082 57.9902H328.442L328.64 59.9804H346.279L346.082 57.9902ZM329.48 59.4303C329.637 59.0403 329.978 58.1952 330.502 56.895L328.624 56.0049C328.1 57.3051 327.76 58.1503 327.603 58.5403L329.48 59.4303ZM330.516 56.8583C330.969 55.5744 331.56 54.0271 332.29 52.2143L330.413 51.3243C329.676 53.152 329.075 54.7251 328.611 56.0416L330.516 56.8583ZM332.3 52.1883C332.968 50.3699 333.714 48.3562 334.539 46.1471L332.645 45.2997C331.819 47.5113 331.072 49.5281 330.403 51.3502L332.3 52.1883ZM334.539 46.1471C335.364 43.9368 336.19 41.7265 337.015 39.5162L335.121 38.6688C334.296 40.8791 333.471 43.0894 332.645 45.2997L334.539 46.1471ZM337.015 39.5162C337.84 37.3088 338.641 35.1993 339.419 33.1875L337.533 32.3206C336.752 34.3394 335.948 36.4555 335.121 38.6688L337.015 39.5162ZM339.423 33.1764C340.197 31.0943 340.866 29.2714 341.431 27.7079L339.53 26.8787C338.968 28.4356 338.301 30.2532 337.528 32.3317L339.423 33.1764ZM341.424 27.7267C342.203 25.7132 342.726 24.2921 342.985 23.4829L341.062 22.7174C340.822 23.4685 340.317 24.8427 339.537 26.8598L341.424 27.7267ZM342.122 24.0953H372.795L372.597 22.1051H341.924L342.122 24.0953ZM372.795 24.0953C374.311 24.0953 375.748 23.6406 377.099 22.7833L375.9 21.0767C374.792 21.7797 373.694 22.1051 372.597 22.1051L372.795 24.0953ZM377.099 22.7833C378.449 21.9263 379.415 20.8484 379.909 19.5258L378.015 18.6784C377.683 19.5661 377.008 20.3735 375.9 21.0767L377.099 22.7833ZM379.914 19.5104L380.602 17.5602L378.697 16.7435L378.009 18.6937L379.914 19.5104ZM380.597 17.5755C381.097 16.2366 380.995 14.8804 380.011 13.7268L378.53 14.921C378.877 15.3276 379.028 15.8567 378.703 16.7281L380.597 17.5755ZM380.048 13.7719C379.158 12.6155 377.811 12.1586 376.311 12.1586L376.509 14.1488C377.623 14.1488 378.183 14.472 378.493 14.8759L380.048 13.7719ZM376.311 12.1586H345.737L345.935 14.1488H376.509L376.311 12.1586ZM346.783 13.5781L351.273 1.58392L349.38 0.735095L344.889 12.7293L346.783 13.5781ZM350.426 2.1546H386.292L386.094 0.164416H350.228L350.426 2.1546ZM386.292 2.1546C388.407 2.1546 390.225 2.49529 391.769 3.14298L392.393 1.32134C390.528 0.53883 388.421 0.164416 386.094 0.164416L386.292 2.1546ZM391.783 3.14861C393.397 3.80084 394.588 4.69236 395.419 5.79741L396.988 4.71279C395.863 3.21746 394.305 2.09369 392.38 1.31572L391.783 3.14861ZM395.457 5.84539C396.346 6.90373 396.906 8.16916 397.115 9.68147L399.106 9.60498C398.848 7.73681 398.136 6.07683 396.95 4.66481L395.457 5.84539ZM397.115 9.68147C397.321 11.1749 397.11 12.8009 396.426 14.5739L398.313 15.4391C399.084 13.4416 399.366 11.4921 399.106 9.60498L397.115 9.68147ZM396.422 14.5841L394.103 20.825L395.998 21.6697L398.317 15.4289L396.422 14.5841ZM452.766 1.15951L453.771 1.25306L453.766 0.164416H452.667L452.766 1.15951ZM453.03 58.9853L453.129 59.9804H454.039L454.035 59.0789L453.03 58.9853ZM434.313 58.9853L433.308 58.8924L433.313 59.9804H434.412L434.313 58.9853ZM434.141 25.733L435.146 25.826L435.13 22.6855L433.315 25.0884L434.141 25.733ZM409.03 58.9853L409.129 59.9804H409.591L409.856 59.63L409.03 58.9853ZM390.313 58.9853L389.488 58.3393L388.244 59.9804H390.412L390.313 58.9853ZM427.651 9.74075L428.476 10.3867L428.904 9.82244L428.436 9.19977L427.651 9.74075ZM421.212 1.15951L421.113 0.164416H419.273L420.426 1.70048L421.212 1.15951ZM434.148 2.1546H452.865L452.667 0.164416H433.95L434.148 2.1546ZM451.761 1.06595L452.025 58.8918L454.035 59.0789L453.771 1.25306L451.761 1.06595ZM452.931 57.9902H434.214L434.412 59.9804H453.129L452.931 57.9902ZM435.318 59.0783L435.146 25.826L433.136 25.6401L433.308 58.8924L435.318 59.0783ZM433.315 25.0884L408.204 58.3407L409.856 59.63L434.967 26.3777L433.315 25.0884ZM408.931 57.9902H390.214L390.412 59.9804H409.129L408.931 57.9902ZM391.138 59.6313L428.476 10.3867L426.826 9.09476L389.488 58.3393L391.138 59.6313ZM428.436 9.19977L421.997 0.618529L420.426 1.70048L426.865 10.2817L428.436 9.19977ZM421.311 2.1546H434.148L433.95 0.164416H421.113L421.311 2.1546ZM524.046 2.23216L523.733 3.14298L523.74 3.14584L523.747 3.14861L524.046 2.23216ZM528.168 5.2551L527.384 5.79741L527.402 5.82189L527.422 5.84539L528.168 5.2551ZM530.074 9.64323L531.07 9.60498L530.074 9.64323ZM529.334 15.0065L528.39 14.5739L528.387 14.5828L528.384 14.5919L529.334 15.0065ZM526.838 21.4424L525.899 20.9974L525.896 21.006L525.893 21.0146L526.838 21.4424ZM523.586 30.1212L522.638 29.6993L522.635 29.7079L523.586 30.1212ZM518.024 45.1383L518.972 45.5592L518.974 45.5529L518.024 45.1383ZM514.647 50.5991L515.424 51.3028L515.424 51.3028L514.647 50.5991ZM509.498 54.9873L510.093 55.8429L510.102 55.8371L510.112 55.8311L509.498 54.9873ZM503.125 57.9127L502.738 56.961L503.125 57.9127ZM460.506 58.9853L459.554 58.5736L459.052 59.9804H460.605L460.506 58.9853ZM461.989 55.1823L462.928 55.6273L462.933 55.6144L462.938 55.6013L461.989 55.1823ZM464.397 48.8439L465.339 49.2792L465.345 49.2648L465.35 49.2502L464.397 48.8439ZM467.256 41.1403L468.199 41.5766L468.202 41.5681L467.256 41.1403ZM470.116 33.4367L469.173 33.0013L469.17 33.0112L469.166 33.0212L470.116 33.4367ZM472.514 27.0007L471.57 26.5681L471.565 26.5808L471.561 26.5937L472.514 27.0007ZM473.988 23.1002L473.889 22.1051H473.245L473.036 22.6884L473.988 23.1002ZM491.627 23.1002L492.573 23.5246L493.105 22.1051H491.528L491.627 23.1002ZM482.645 47.0886L481.699 46.6642L481.167 48.0837H482.744L482.645 47.0886ZM499.696 47.0886L499.795 48.0837H500.445L500.65 47.4928L499.696 47.0886ZM501.308 42.603L500.369 42.158L500.364 42.1709L500.36 42.1839L501.308 42.603ZM503.558 36.6546L502.615 36.2205L502.611 36.2316L502.607 36.2428L503.558 36.6546ZM506.133 30.0237L507.076 30.4584L507.079 30.4486L506.133 30.0237ZM508.609 23.3927L507.666 22.9585L507.662 22.9704L508.609 23.3927ZM510.869 17.5419L511.813 17.9736L511.818 17.9609L510.869 17.5419ZM512.49 13.1537L513.437 13.5774L513.967 12.1586H512.391L512.49 13.1537ZM477.8 13.1537L476.853 12.7293L476.322 14.1488H477.899L477.8 13.1537ZM482.291 1.15951L482.192 0.164416H481.558L481.344 0.735095L482.291 1.15951ZM518.256 2.1546C520.372 2.1546 522.19 2.49529 523.733 3.14298L524.358 1.32134C522.493 0.53883 520.385 0.164416 518.058 0.164416L518.256 2.1546ZM523.747 3.14861C525.361 3.80084 526.552 4.69236 527.384 5.79741L528.953 4.71279C527.827 3.21746 526.269 2.09369 524.344 1.31572L523.747 3.14861ZM527.422 5.84539C528.311 6.90373 528.87 8.16916 529.079 9.68147L531.07 9.60498C530.812 7.73681 530.1 6.07683 528.914 4.66481L527.422 5.84539ZM529.079 9.68147C529.285 11.1749 529.074 12.8009 528.39 14.5739L530.278 15.4391C531.048 13.4416 531.33 11.4921 531.07 9.60498L529.079 9.68147ZM528.384 14.5919C527.826 16.137 526.998 18.2706 525.899 20.9974L527.777 21.8874C528.879 19.1534 529.715 16.9965 530.284 15.4211L528.384 14.5919ZM525.893 21.0146C524.857 23.7472 523.772 26.6421 522.638 29.6993L524.533 30.543C525.666 27.4894 526.749 24.5984 527.784 21.8702L525.893 21.0146ZM522.635 29.7079C521.562 32.6939 520.509 35.5494 519.476 38.2746L521.367 39.1302C522.404 36.3946 523.46 33.5293 524.536 30.5344L522.635 29.7079ZM519.476 38.2746C518.44 41.0066 517.639 43.157 517.073 44.7237L518.974 45.5529C519.535 43.9992 520.332 41.859 521.367 39.1302L519.476 38.2746ZM517.075 44.7175C516.398 46.5517 515.334 48.2782 513.87 49.8955L515.424 51.3028C517.021 49.5395 518.208 47.6255 518.972 45.5591L517.075 44.7175ZM513.87 49.8955C512.45 51.464 510.789 52.8805 508.884 54.1434L510.112 55.8311C512.129 54.4937 513.901 52.9847 515.424 51.3028L513.87 49.8955ZM508.902 54.1316C507 55.3258 504.946 56.2689 502.738 56.961L503.512 58.8643C505.866 58.1263 508.06 57.1191 510.093 55.8429L508.902 54.1316ZM502.738 56.961C500.539 57.6504 498.385 57.9902 496.273 57.9902L496.471 59.9804C498.801 59.9804 501.149 59.6052 503.512 58.8643L502.738 56.961ZM496.273 57.9902H460.407L460.605 59.9804H496.471L496.273 57.9902ZM461.457 59.3971C461.706 58.7009 462.194 57.4485 462.928 55.6273L461.051 54.7373C460.317 56.5566 459.817 57.8396 459.554 58.5736L461.457 59.3971ZM462.938 55.6013C463.604 53.788 464.404 51.6808 465.339 49.2792L463.454 48.4086C462.516 50.8177 461.711 52.9361 461.041 54.7632L462.938 55.6013ZM465.35 49.2502C466.211 46.7908 467.161 44.233 468.199 41.5765L466.314 40.704C465.269 43.3783 464.312 45.9562 463.444 48.4375L465.35 49.2502ZM468.202 41.5681C469.238 38.8341 470.193 36.2621 471.066 33.8521L469.166 33.0212C468.296 35.4219 467.345 37.9856 466.311 40.7124L468.202 41.5681ZM471.059 33.872C471.998 31.4598 472.801 29.3048 473.467 27.4078L471.561 26.5937C470.903 28.4672 470.108 30.6028 469.173 33.0013L471.059 33.872ZM473.457 27.4333C474.184 25.5489 474.679 24.2389 474.939 23.5119L473.036 22.6884C472.785 23.3916 472.298 24.682 471.57 26.5681L473.457 27.4333ZM474.087 24.0953H491.726L491.528 22.1051H473.889L474.087 24.0953ZM490.68 22.6758L481.699 46.6642L483.592 47.513L492.573 23.5246L490.68 22.6758ZM482.744 48.0837H499.795L499.597 46.0935H482.546L482.744 48.0837ZM500.65 47.4928C501.054 46.3295 501.59 44.8398 502.257 43.022L500.36 42.1839C499.69 44.0067 499.151 45.5074 498.742 46.6845L500.65 47.4928ZM502.247 43.048C502.986 41.2152 503.74 39.2212 504.51 37.0664L502.607 36.2428C501.844 38.3787 501.098 40.3502 500.369 42.158L502.247 43.048ZM504.501 37.0887C505.333 34.9437 506.191 32.7336 507.075 30.4584L505.19 29.5889C504.306 31.8644 503.447 34.075 502.615 36.2205L504.501 37.0887ZM507.079 30.4486C507.957 28.1075 508.783 25.8963 509.557 23.8151L507.662 22.9704C506.889 25.0497 506.064 27.2592 505.186 29.5988L507.079 30.4486ZM509.552 23.8268C510.384 21.6809 511.138 19.7298 511.813 17.9736L509.925 17.1102C509.251 18.8645 508.498 20.8139 507.666 22.9586L509.552 23.8268ZM511.818 17.9609C512.486 16.1414 513.026 14.6804 513.437 13.5774L511.543 12.73C511.13 13.8374 510.589 15.3019 509.92 17.1228L511.818 17.9609ZM512.391 12.1586H477.701L477.899 14.1488H512.589L512.391 12.1586ZM478.747 13.5781L483.238 1.58392L481.344 0.735095L476.853 12.7293L478.747 13.5781ZM482.39 2.1546H518.256L518.058 0.164416H482.192L482.39 2.1546Z" fill="#10B068"/>
</svg>
