<svg width="21" height="20" viewBox="0 0 21 20" fill="none" xmlns="http://www.w3.org/2000/svg">
<path d="M10.3685 2.8374H1.57812V5.49819H10.3685V2.8374Z" fill="white"/>
<path d="M1.57812 7.97998V14.8568H4.26932V10.2364H11.9829V7.97998H1.57812Z" fill="white"/>
<path d="M11.9511 10.2527C12.3163 8.77553 13.6495 7.68114 15.2391 7.68114C16.2491 7.68114 17.1555 8.12234 17.7759 8.82353L19.7855 6.70355C18.6359 5.41675 16.9639 4.60596 15.1023 4.60596C11.8483 4.60596 9.17267 7.08154 8.85547 10.2523H11.9511V10.2527Z" fill="white"/>
<path d="M17.7977 13.2926C17.1761 14.0062 16.2621 14.457 15.2417 14.457C13.8749 14.457 12.6973 13.6474 12.1617 12.4814H9.03125C9.73765 15.1754 12.1889 17.1634 15.1045 17.1634C16.9153 17.1634 18.5469 16.3966 19.6929 15.1698L17.7977 13.2926Z" fill="white"/>
</svg>
