<svg width="182" height="23" viewBox="0 0 182 23" fill="none" xmlns="http://www.w3.org/2000/svg">
<path d="M9.41125 3.66198H3.3915V7.06314H8.3277V9.56134H3.3915V14.7082H0.682617V1.13369H9.44135V3.66198H9.41125ZM13.7154 14.7082H11.0065V1.13369H13.7154V14.7082ZM27.621 1.16378V14.9791H26.718L19.0128 6.58156V14.7383H16.3039V0.922994H17.1767L24.882 9.26035V1.16378H27.621ZM35.3263 6.09998L33.5505 10.675H37.072L35.3263 6.09998ZM38.0352 12.9625H32.5873L31.8348 14.7383H28.9152L34.8447 0.922994H35.7477L41.6771 14.7383H38.7575C38.7876 14.7082 38.0352 12.9625 38.0352 12.9625ZM54.3788 1.16378V14.9791H53.4758L45.7705 6.58156V14.7383H43.0616V0.922994H43.9345L51.6398 9.26035V1.16378H54.3788ZM68.7359 4.26396L66.6892 5.73879C65.8163 4.29405 64.5522 3.45129 62.8666 3.45129C60.3985 3.45129 58.5625 5.31741 58.5625 7.936C58.5625 10.5546 60.3684 12.3906 62.8666 12.3906C64.5522 12.3906 65.7862 11.5479 66.6892 10.1031L68.7359 11.5779C67.5921 13.6548 65.425 14.949 62.8365 14.949C58.8936 14.949 55.7633 11.909 55.7633 7.90591C55.7633 3.93287 58.8936 0.862793 62.8666 0.862793C65.425 0.892892 67.562 2.21724 68.7359 4.26396ZM73.3109 14.7082H70.602V1.13369H73.3109V14.7082ZM81.0162 6.09998L79.2403 10.675H82.792L81.0162 6.09998ZM83.7251 12.9625H78.3073L77.5548 14.7383H74.6352L80.5647 0.922994H81.4677L87.3971 14.7383H84.4775L83.7251 12.9625ZM91.4604 12.21H97.2695V14.7082H88.7215V1.13369H91.4303L91.4604 12.21ZM112.59 3.66198H106.359V6.43106H110.934V8.80887H106.359V12.2401H112.831V14.7383H103.65V1.16378H112.59V3.66198ZM122.191 14.7082L119.362 10.1934L116.533 14.7082H113.433L117.857 7.81561L113.703 1.16378H116.804L119.362 5.43781L121.89 1.16378H124.96L120.867 7.81561L125.231 14.7082H122.191ZM129.355 3.60178V7.51462H131.642C132.906 7.51462 133.659 6.70195 133.659 5.5281C133.659 4.38435 132.906 3.60178 131.642 3.60178C131.612 3.60178 129.355 3.60178 129.355 3.60178ZM136.428 5.5281C136.428 8.14669 134.441 9.92252 131.642 9.92252H129.355V14.7082H126.646V1.13369H131.642C134.411 1.16379 136.428 2.87941 136.428 5.5281ZM140.852 7.48452H143.14C144.404 7.48452 145.157 6.70195 145.157 5.5281C145.157 4.38435 144.404 3.60178 143.14 3.60178H140.852V7.48452ZM146.3 14.7383L142.869 9.95262H140.883V14.7383H138.174V1.16378H143.17C145.969 1.16378 147.956 2.87941 147.956 5.5582C147.956 7.30393 147.053 8.71857 145.608 9.41084L149.37 14.7383H146.3ZM159.514 3.66198H153.283V6.43106H157.858V8.80887H153.283V12.2401H159.755V14.7383H150.544V1.16378H159.484L159.514 3.66198ZM170.199 3.48139L168.333 4.92612C167.701 3.93287 166.888 3.36099 165.804 3.36099C164.932 3.36099 164.149 3.78238 164.149 4.68534C164.149 5.46791 164.721 5.799 165.714 6.25048L167.219 6.94274C169.326 7.8758 170.5 8.98946 170.5 10.9158C170.5 13.4441 168.483 14.9791 165.834 14.9791C163.547 14.9791 161.681 13.7752 160.688 11.9692L162.554 10.5245C163.276 11.5479 164.239 12.511 165.804 12.511C166.978 12.511 167.701 11.9692 167.701 11.0061C167.701 10.1332 167.069 9.80212 166.015 9.32054L164.57 8.65838C162.674 7.78551 161.35 6.67186 161.35 4.74554C161.35 2.39784 163.276 0.892894 165.774 0.892894C167.911 0.892894 169.416 2.00655 170.199 3.48139ZM180.974 3.48139L179.108 4.92612C178.476 3.93287 177.663 3.36099 176.58 3.36099C175.707 3.36099 174.924 3.78238 174.924 4.68534C174.924 5.46791 175.496 5.799 176.489 6.25048L177.994 6.94274C180.101 7.8758 181.275 8.98946 181.275 10.9158C181.275 13.4441 179.258 14.9791 176.61 14.9791C174.322 14.9791 172.456 13.7752 171.463 11.9692L173.329 10.5245C174.051 11.5479 175.015 12.511 176.58 12.511C177.754 12.511 178.476 11.9692 178.476 11.0061C178.476 10.1332 177.844 9.80212 176.79 9.32054L175.346 8.65838C173.449 7.78551 172.125 6.67186 172.125 4.74554C172.125 2.39784 174.051 0.892894 176.55 0.892894C178.687 0.892894 180.192 2.00655 180.974 3.48139Z" fill="#1A1A1A"/>
<path d="M131.192 22.805L129.687 20.6981C130.259 20.4272 130.62 19.8553 130.62 19.1931C130.62 18.1397 129.807 17.4775 128.693 17.4775H126.677V22.805H127.76V20.9088H128.573L129.958 22.805H131.192ZM127.79 18.4407H128.693C129.205 18.4407 129.506 18.7417 129.506 19.1931C129.506 19.6446 129.205 19.9757 128.693 19.9757H127.79V18.4407ZM135.435 17.4775H131.854V22.805H135.526V21.8117H132.937V20.4874H134.773V19.5543H132.937V18.4708H135.435V17.4775ZM139.92 22.805H141.094L138.716 17.3872H138.355L135.977 22.805H137.151L137.452 22.1127H139.619L139.92 22.805ZM139.258 21.2097H137.843L138.566 19.4038L139.258 21.2097ZM143.562 17.4775H141.816V22.805H143.562C145.278 22.805 146.482 21.6913 146.482 20.1262C146.482 18.531 145.278 17.4775 143.562 17.4775ZM143.562 18.4708C144.646 18.4708 145.368 19.0727 145.368 20.1262C145.368 21.1495 144.646 21.8117 143.562 21.8117H142.93V18.4407C142.93 18.4708 143.562 18.4708 143.562 18.4708ZM153.254 17.4775H148.739V18.4708H150.455V22.805H151.538V18.4708H153.254V17.4775ZM156.384 17.3872C154.819 17.3872 153.555 18.5912 153.555 20.1563C153.555 21.7214 154.819 22.9254 156.384 22.9254C157.949 22.9254 159.244 21.7214 159.244 20.1563C159.244 18.5912 157.949 17.3872 156.384 17.3872ZM156.384 18.3805C157.377 18.3805 158.1 19.1028 158.1 20.1262C158.1 21.1495 157.377 21.8719 156.384 21.8719C155.391 21.8719 154.669 21.1495 154.669 20.1262C154.669 19.1329 155.391 18.3805 156.384 18.3805ZM163.518 17.4775H162.434V22.805H165.865V21.8117H163.518V17.4775ZM170.23 17.4775H166.648V22.805H170.32V21.8117H167.731V20.4874H169.567V19.5543H167.731V18.4708H170.23V17.4775ZM174.714 22.805H175.888L173.51 17.3872H173.149L170.771 22.805H171.945L172.246 22.1127H174.413L174.714 22.805ZM174.052 21.2097H172.638L173.36 19.4038L174.052 21.2097ZM178.356 17.4775H176.611V22.805H178.356C180.072 22.805 181.276 21.6913 181.276 20.1262C181.276 18.531 180.072 17.4775 178.356 17.4775ZM178.356 18.4708C179.44 18.4708 180.162 19.0727 180.162 20.1262C180.162 21.1495 179.44 21.8117 178.356 21.8117H177.724V18.4407C177.694 18.4708 178.356 18.4708 178.356 18.4708Z" fill="#1A1A1A"/>
</svg>
