<svg width="36" height="36" viewBox="0 0 36 36" fill="none" xmlns="http://www.w3.org/2000/svg">
<path d="M17.8108 34.5216C15.6192 34.5215 13.4781 33.8629 11.6653 32.6312C9.85243 31.3996 8.4514 29.6517 7.64384 27.6143C6.83628 25.5768 6.65944 23.3438 7.13625 21.2046C7.61306 19.0655 8.72152 17.1189 10.3179 15.6173C12.275 13.7754 17.0817 10.4591 16.3525 3.16748C25.1025 9.00081 29.4775 14.8341 20.7275 23.5841C22.1858 23.5841 24.3733 23.5841 28.0192 19.9821C28.4129 21.1094 28.7483 22.3212 28.7483 23.5841C28.7483 26.485 27.596 29.2669 25.5448 31.3181C23.4936 33.3693 20.7116 34.5216 17.8108 34.5216Z" fill="#10B068"/>
</svg>
