<svg width="45" height="44" viewBox="0 0 45 44" fill="none" xmlns="http://www.w3.org/2000/svg">
<g clip-path="url(#clip0)">
<path d="M22.3154 0C10.1651 0 0.31543 9.84971 0.31543 22C0.31543 34.1503 10.1651 44 22.3154 44C34.4657 44 44.3154 34.1503 44.3154 22C44.3154 9.84971 34.4657 0 22.3154 0ZM3.13511 23.375H7.85317C7.95814 25.6579 8.30314 27.7466 8.83895 29.6223H4.64647C3.80696 27.684 3.29198 25.5791 3.13511 23.375ZM29.1022 20.625C28.9988 18.4149 28.7367 16.3214 28.382 14.3778H32.8891C33.489 16.2225 33.9008 18.3027 34.025 20.625H29.1022ZM18.8475 29.6223C18.4594 27.4795 18.269 25.3879 18.2337 23.375H26.3973C26.3621 25.3879 26.1715 27.4795 25.7833 29.6223H18.8475ZM25.1842 32.3723C24.5395 34.8474 23.6062 37.3704 22.3152 39.8988C21.0243 37.3704 20.0912 34.8474 19.4465 32.3723H25.1842ZM18.2711 20.625C18.38 18.4022 18.6611 16.3077 19.0343 14.3778H25.5966C25.9699 16.3077 26.2508 18.4022 26.3598 20.625H18.2711ZM19.6523 11.6279C20.5116 8.27317 21.5734 5.62634 22.3153 3.99673C23.0572 5.62634 24.1191 8.27317 24.9786 11.6279H19.6523ZM27.7993 11.6279C26.922 7.99229 25.7955 5.07185 24.9593 3.18434C25.9985 3.92381 29.4511 6.65702 31.8062 11.6279H27.7993ZM19.6712 3.18416C18.835 5.07167 17.7087 7.9922 16.8315 11.6279H12.8241C15.1795 6.65657 18.6324 3.92336 19.6712 3.18416ZM16.2488 14.3779C15.8941 16.3215 15.6322 18.415 15.5287 20.6251H10.6054C10.7296 18.3029 11.1413 16.2226 11.7413 14.3779H16.2488ZM7.85613 20.625H3.13511C3.29198 18.421 3.80687 16.3163 4.64638 14.3778H8.85798C8.31822 16.2532 7.9664 18.3405 7.85613 20.625ZM10.604 23.375H15.491C15.5223 25.3913 15.6919 27.4802 16.0514 29.6223H11.7428C11.1377 27.7728 10.7246 25.692 10.604 23.375ZM16.6209 32.3723C17.2955 35.1724 18.2974 38.0343 19.7408 40.9077C18.7668 40.2103 15.226 37.4252 12.8253 32.3723H16.6209ZM24.8867 40.9139C26.3319 38.0384 27.3348 35.1745 28.0099 32.3723H31.833C29.4395 37.451 25.8836 40.213 24.8867 40.9139ZM28.5795 29.6223C28.9391 27.4802 29.1088 25.3913 29.1399 23.375H34.0279C33.9096 25.6962 33.5031 27.7765 32.9069 29.6223H28.5795ZM36.7772 23.375H41.4957C41.3388 25.5791 40.8239 27.6839 39.9844 29.6223H35.7915C36.3273 27.7466 36.6722 25.6579 36.7772 23.375ZM36.7743 20.625C36.664 18.3404 36.3122 16.2532 35.7724 14.3778H39.9846C40.8242 16.3162 41.339 18.4209 41.4958 20.625H36.7743ZM38.5064 11.6279H34.8031C33.5739 8.66692 31.9714 6.32469 30.4633 4.58462C33.7622 6.1345 36.5497 8.58413 38.5064 11.6279ZM14.1666 4.58498C12.6588 6.32505 11.0565 8.66719 9.82733 11.6279H6.12442C8.08098 8.58431 10.8682 6.13495 14.1666 4.58498ZM6.12451 32.3723H9.80497C11.0156 35.303 12.5955 37.6374 14.0929 39.3795C10.8268 37.8276 8.06643 35.3929 6.12451 32.3723ZM30.5386 39.3791C32.0357 37.6372 33.6153 35.3028 34.8256 32.3723H38.5064C36.5646 35.3927 33.8044 37.8272 30.5386 39.3791Z" fill="#10B068"/>
</g>
<defs>
<clipPath id="clip0">
<rect width="44" height="44" fill="white" transform="translate(0.31543)"/>
</clipPath>
</defs>
</svg>
