<svg width="36" height="35" viewBox="0 0 36 35" fill="none" xmlns="http://www.w3.org/2000/svg">
<path d="M12.4556 26.2501C12.0225 24.3936 10.0683 22.8755 9.26622 21.8751C7.89275 20.1591 7.03198 18.0899 6.78307 15.9061C6.53415 13.7222 6.90722 11.5125 7.8593 9.53138C8.81138 7.55028 10.3037 5.87844 12.1644 4.70844C14.0252 3.53843 16.1786 2.91786 18.3765 2.91821C20.5745 2.91857 22.7277 3.53982 24.5881 4.71043C26.4484 5.88103 27.9402 7.55335 28.8917 9.53475C29.8431 11.5161 30.2155 13.726 29.9659 15.9098C29.7163 18.0936 28.8548 20.1624 27.4808 21.878C26.6787 22.877 24.7275 24.3951 24.2943 26.2501H12.4541H12.4556ZM24.2083 29.1667V30.6251C24.2083 31.3986 23.901 32.1405 23.354 32.6875C22.8071 33.2345 22.0652 33.5417 21.2916 33.5417H15.4583C14.6848 33.5417 13.9429 33.2345 13.3959 32.6875C12.8489 32.1405 12.5416 31.3986 12.5416 30.6251V29.1667H24.2083ZM19.8333 14.5907V8.75008L13.2708 17.5074H16.9166V23.3407L23.4791 14.5907H19.8333Z" fill="#10B068"/>
</svg>
