<svg width="167" height="38" viewBox="0 0 167 38" fill="none" xmlns="http://www.w3.org/2000/svg">
<g clip-path="url(#clip0)">
<path d="M6.4023 8.80811H0.914062V14.2963H6.4023V8.80811Z" fill="#013A51"/>
<path d="M6.40279 16.7295H0.914551V22.2177H6.40279V16.7295Z" fill="#013A51"/>
<path d="M6.40279 24.6689H0.914551V30.1572H6.40279V24.6689Z" fill="#013A51"/>
<path d="M14.3242 24.6689H8.83594V30.1572H14.3242V24.6689Z" fill="#013A51"/>
<path d="M22.2456 24.6689H16.7573V30.1572H22.2456V24.6689Z" fill="#013A51"/>
<path d="M14.3237 8.80811H8.83545V14.2963H14.3237V8.80811Z" fill="#013A51"/>
<path d="M14.3232 0.886719H8.83496V6.37496H14.3232V0.886719Z" fill="#013A51"/>
<path d="M14.3237 16.7295H8.83545V22.2177H14.3237V16.7295Z" fill="#013A51"/>
<path d="M22.2446 0.886719H16.7563V6.37496H22.2446V0.886719Z" fill="#013A51"/>
<path d="M22.2446 8.80811H16.7563V14.2963H22.2446V8.80811Z" fill="#013A51"/>
<path d="M22.2446 16.7295H16.7563V22.2177H22.2446V16.7295Z" fill="#013A51"/>
<path d="M30.185 0.886719H24.6968V6.37496H30.185V0.886719Z" fill="#013A51"/>
<path d="M30.185 8.80811H24.6968V14.2963H30.185V8.80811Z" fill="#013A51"/>
<path d="M30.185 16.7295H24.6968V22.2177H30.185V16.7295Z" fill="#013A51"/>
<path d="M39.2788 30.1573V7.13867H43.1645V26.4682H53.6681V30.1573H39.2788Z" fill="#013A51"/>
<path d="M71.2198 27.8029C69.4635 29.5481 67.2691 30.4198 64.6348 30.4198C62.0004 30.4198 59.8051 29.5481 58.0489 27.8029C56.2918 26.0576 55.4146 23.9227 55.4146 21.3972C55.4146 18.8726 56.2918 16.7377 58.0489 14.9924C59.8051 13.2471 62.0004 12.3745 64.6348 12.3745C67.2691 12.3745 69.4635 13.2471 71.2198 14.9924C72.976 16.7377 73.855 18.8726 73.855 21.3972C73.855 23.9227 72.976 26.0576 71.2198 27.8029ZM60.6668 25.5298C61.7096 26.5945 63.0313 27.1269 64.6348 27.1269C66.2364 27.1269 67.5591 26.5945 68.6028 25.5298C69.6456 24.4651 70.1669 23.0876 70.1669 21.3963C70.1669 19.7059 69.6456 18.3283 68.6028 17.2636C67.5591 16.1989 66.2364 15.6665 64.6348 15.6665C63.0313 15.6665 61.7096 16.1989 60.6668 17.2636C59.6231 18.3283 59.1026 19.7059 59.1026 21.3963C59.1026 23.0876 59.6231 24.4651 60.6668 25.5298Z" fill="#013A51"/>
<path d="M91.8994 30.1573H88.5406V27.8184C87.0917 29.5527 85.1489 30.4198 82.7121 30.4198C80.89 30.4198 79.3807 29.9058 78.1852 28.8731C76.9879 27.8404 76.3896 26.4628 76.3896 24.7404C76.3896 23.0162 77.0263 21.7265 78.3005 20.8703C79.5737 20.0141 81.2961 19.587 83.4695 19.587H88.2442V18.9275C88.2442 16.6014 86.949 15.4379 84.3595 15.4379C82.735 15.4379 81.0437 16.0297 79.2874 17.2151L77.641 14.9101C79.7704 13.2197 82.1852 12.3745 84.8854 12.3745C86.949 12.3745 88.6339 12.8968 89.9401 13.9387C91.2463 14.9823 91.8994 16.6233 91.8994 18.8625V30.1573ZM88.2122 23.6364V22.1546H84.0631C81.4068 22.1546 80.0787 22.9897 80.0787 24.6581C80.0787 25.5143 80.408 26.1674 81.0665 26.6165C81.7251 27.0665 82.6417 27.2915 83.8162 27.2915C84.9906 27.2915 86.0169 26.9632 86.8951 26.3037C87.7723 25.646 88.2122 24.7569 88.2122 23.6364Z" fill="#013A51"/>
<path d="M99.0777 20.6727V30.1573H95.3896V12.6379H99.0777V15.8321C99.6696 14.7564 100.488 13.9112 101.531 13.2975C102.574 12.6837 103.699 12.3745 104.905 12.3745C106.881 12.3745 108.478 12.9791 109.697 14.1856C110.915 15.393 111.526 17.1392 111.526 19.4214V30.1573H107.835V20.541C107.835 17.3139 106.499 15.7004 103.819 15.7004C102.545 15.7004 101.437 16.123 100.493 16.9682C99.5488 17.8134 99.0777 19.0482 99.0777 20.6727Z" fill="#013A51"/>
<path d="M122.589 10.6951V30.1573H118.703V10.6951H111.721V7.13867H129.571V10.6951H122.589Z" fill="#013A51"/>
<path d="M144.158 30.1573H140.799V27.8184C139.35 29.5527 137.408 30.4198 134.971 30.4198C133.149 30.4198 131.639 29.9058 130.443 28.8731C129.246 27.8404 128.649 26.4628 128.649 24.7404C128.649 23.0162 129.285 21.7265 130.559 20.8703C131.831 20.0141 133.554 19.587 135.729 19.587H140.503V18.9275C140.503 16.6014 139.207 15.4379 136.617 15.4379C134.993 15.4379 133.303 16.0297 131.547 17.2151L129.899 14.9101C132.029 13.2197 134.445 12.3745 137.144 12.3745C139.207 12.3745 140.892 12.8968 142.198 13.9387C143.504 14.9823 144.158 16.6233 144.158 18.8625V30.1573ZM140.471 23.6364V22.1546H136.321C133.664 22.1546 132.337 22.9897 132.337 24.6581C132.337 25.5143 132.665 26.1674 133.325 26.6165C133.984 27.0665 134.901 27.2915 136.075 27.2915C137.248 27.2915 138.275 26.9632 139.154 26.3037C140.031 25.646 140.471 24.7569 140.471 23.6364Z" fill="#013A51"/>
<path d="M157.033 12.3745C159.382 12.3745 161.39 13.1877 163.059 14.8113C164.727 16.4358 165.562 18.5991 165.562 21.2993C165.562 23.9995 164.733 26.1957 163.074 27.8852C161.416 29.5746 159.485 30.4198 157.279 30.4198C155.073 30.4198 153.091 29.4548 151.335 27.522V37.475H147.648V12.6379H151.335V15.7013C152.785 13.4831 154.684 12.3745 157.033 12.3745ZM151.271 21.4301C151.271 23.0985 151.775 24.4651 152.784 25.5298C153.793 26.5945 155.024 27.1269 156.473 27.1269C157.922 27.1269 159.183 26.6 160.259 25.5454C161.335 24.4907 161.874 23.126 161.874 21.4457C161.874 19.7663 161.347 18.3732 160.293 17.2645C159.238 16.1559 157.976 15.6016 156.505 15.6016C155.034 15.6016 153.793 16.1559 152.784 17.2645C151.775 18.3732 151.271 19.7626 151.271 21.4301Z" fill="#013A51"/>
</g>
<defs>
<clipPath id="clip0">
<rect width="166.477" height="36.5883" fill="white" transform="translate(0 0.886719)"/>
</clipPath>
</defs>
</svg>
