<svg width="36" height="35" viewBox="0 0 36 35" fill="none" xmlns="http://www.w3.org/2000/svg">
<path d="M28.3328 14.5834H29.7912C30.178 14.5834 30.5489 14.7371 30.8224 15.0106C31.0959 15.284 31.2495 15.655 31.2495 16.0417V30.6251C31.2495 31.0119 31.0959 31.3828 30.8224 31.6563C30.5489 31.9298 30.178 32.0834 29.7912 32.0834H6.45785C6.07107 32.0834 5.70014 31.9298 5.42665 31.6563C5.15316 31.3828 4.99951 31.0119 4.99951 30.6251V16.0417C4.99951 15.655 5.15316 15.284 5.42665 15.0106C5.70014 14.7371 6.07107 14.5834 6.45785 14.5834H7.91618V13.1251C7.91618 11.7845 8.18022 10.4571 8.69324 9.21852C9.20626 7.97999 9.9582 6.85463 10.9061 5.9067C11.8541 4.95877 12.9794 4.20683 14.218 3.69381C15.4565 3.18079 16.7839 2.91675 18.1245 2.91675C19.4651 2.91675 20.7925 3.18079 22.0311 3.69381C23.2696 4.20683 24.395 4.95877 25.3429 5.9067C26.2908 6.85463 27.0428 7.97999 27.5558 9.21852C28.0688 10.4571 28.3328 11.7845 28.3328 13.1251V14.5834ZM25.4162 14.5834V13.1251C25.4162 11.1912 24.648 9.33655 23.2805 7.96909C21.913 6.60164 20.0584 5.83341 18.1245 5.83341C16.1906 5.83341 14.336 6.60164 12.9685 7.96909C11.6011 9.33655 10.8328 11.1912 10.8328 13.1251V14.5834H25.4162ZM16.6662 20.4167V26.2501H19.5828V20.4167H16.6662Z" fill="#10B068"/>
</svg>
