<svg width="93" height="33" viewBox="0 0 93 33" fill="none" xmlns="http://www.w3.org/2000/svg">
<g clip-path="url(#clip0)">
<path d="M45.4425 0.241248C46.3737 0.237541 47.2851 0.51005 48.0614 1.02432C48.8377 1.53858 49.4441 2.27151 49.8039 3.13041C50.1637 3.98931 50.2607 4.93561 50.0827 5.84965C49.9046 6.76369 49.4596 7.6044 48.8037 8.26549C48.1479 8.92658 47.3108 9.37835 46.3982 9.56366C45.4856 9.74898 44.5385 9.65952 43.6768 9.30659C42.8151 8.95367 42.0773 8.35314 41.5569 7.58094C41.0364 6.80874 40.7567 5.89955 40.7529 4.96834C40.7529 3.72112 41.2458 2.52442 42.1242 1.63899C43.0025 0.753564 44.1953 0.25116 45.4425 0.241248Z" fill="#1A1A1A"/>
<path d="M12.2656 32.717H0.682617V28.9604H1.54038C2.10388 28.9604 2.29797 28.6411 2.29797 28.1214V16.5197C2.29797 15.9937 2.10388 15.6807 1.54038 15.6807H0.682617V11.8489H11.1261V15.0984C12.6162 13.001 14.5634 11.4106 17.6688 11.4106C21.7824 11.4106 23.1598 13.0573 23.6356 15.4929C24.2963 14.2604 25.2786 13.2301 26.4781 12.5113C27.6775 11.7925 29.0493 11.4121 30.4477 11.4106C35.6631 11.4106 36.3769 13.9151 36.3769 17.6341V28.1339C36.3769 28.6536 36.6085 28.9729 37.2534 28.9729H37.9171V32.7295H26.5345V28.9729H26.8413C27.3672 28.9729 27.5989 28.6536 27.5989 28.1339V18.5921C27.5989 16.8703 27.0103 16.3193 25.8082 16.3193C24.2179 16.3193 23.6982 17.6341 23.6982 19.6627V28.0963C23.6982 28.6536 23.9362 28.9729 24.4621 28.9729H24.9317V32.7295H13.8621V28.9729H14.1814C14.6886 28.9729 14.9265 28.6536 14.9265 28.1339V18.5921C14.9265 16.8703 14.338 16.3193 13.1358 16.3193C11.5455 16.3193 11.0321 17.6341 11.0321 19.6627V28.0963C11.0321 28.6536 11.2325 28.9729 11.7897 28.9729H12.2656V32.717Z" fill="#1A1A1A"/>
<path d="M41.1288 16.5199C41.1288 15.9939 40.9348 15.6809 40.3713 15.6809H39.501V11.8491H49.863V28.1279C49.863 28.6851 50.0634 29.0044 50.6206 29.0044H51.397V32.761H39.501V29.0044H40.3587C40.9222 29.0044 41.1163 28.6851 41.1163 28.1654L41.1288 16.5199Z" fill="#1A1A1A"/>
<path d="M64.7831 32.7171H53.2002V28.9604H54.058C54.6152 28.9604 54.8155 28.6411 54.8155 28.1215V16.5197C54.8155 15.9938 54.6152 15.6807 54.058 15.6807H53.2002V11.849H63.5497V15.136C64.3087 13.9864 65.342 13.0438 66.5564 12.3934C67.7709 11.743 69.1281 11.4053 70.5057 11.4107C75.333 11.4107 76.3786 13.9151 76.3786 17.6342V28.134C76.3786 28.6536 76.5727 28.973 77.2113 28.973H77.9126V32.7296H66.3734V28.973H66.8493C67.3627 28.973 67.6069 28.6536 67.6069 28.134V18.5921C67.6069 16.8703 66.9808 16.3194 65.8162 16.3194C64.6517 16.3194 63.5497 17.2335 63.5497 19.2621V28.0964C63.5339 28.2131 63.5447 28.3318 63.5816 28.4436C63.6184 28.5555 63.6801 28.6575 63.7621 28.7419C63.8442 28.8264 63.9443 28.891 64.0551 28.9311C64.1658 28.9711 64.2841 28.9854 64.4012 28.973H64.7831V32.7171Z" fill="#1A1A1A"/>
<path d="M77.6934 11.8497L80.7738 11.7307L81.1432 6.98486H88.9633V11.8497H92.651V15.7629H88.9633V25.217C88.9633 27.6839 89.4391 28.4853 92.1501 28.4853H92.8451V32.7178C91.1257 32.9065 89.397 32.9985 87.6672 32.9933C82.7272 32.9933 80.2291 31.4593 80.2291 27.3583V15.7629H77.7247L77.6934 11.8497Z" fill="#1A1A1A"/>
</g>
<defs>
<clipPath id="clip0">
<rect width="92.1689" height="32.7516" fill="white" transform="translate(0.682617 0.241211)"/>
</clipPath>
</defs>
</svg>
