<svg width="22" height="22" viewBox="0 0 22 22" fill="none" xmlns="http://www.w3.org/2000/svg">
<path fill-rule="evenodd" clip-rule="evenodd" d="M8.78581 2.9375C5.19885 2.9375 2.29102 5.84533 2.29102 9.43229C2.29102 17.4948 13.041 19.0625 13.041 19.0625V15.9271H13.7129C17.2999 15.9271 20.2077 13.0193 20.2077 9.43229C20.2077 5.84533 17.2999 2.9375 13.7129 2.9375H8.78581ZM14.0965 5.95408C14.8123 6.49441 15.2806 7.31848 15.2806 8.37794C15.2806 9.66821 14.4626 10.4765 13.6526 10.923C13.1725 11.1875 12.6486 11.3565 12.175 11.4571C12.1701 11.9476 11.7709 12.3438 11.2792 12.3438C10.7845 12.3438 10.3834 11.9427 10.3834 11.4479V10.6804C10.3834 10.2071 10.7516 9.81544 11.224 9.78628C11.6514 9.75985 12.2888 9.62875 12.7878 9.35377C13.2717 9.08708 13.4889 8.77614 13.4889 8.37794C13.4889 7.90243 13.3022 7.59928 13.0171 7.38406C12.7016 7.14595 12.222 6.99025 11.6606 6.97081C11.1031 6.95146 10.5477 7.07025 10.126 7.28646C9.70224 7.50361 9.49369 7.77142 9.43036 8.02194C9.30902 8.50161 8.82186 8.79208 8.34219 8.67079C7.86256 8.54949 7.57204 8.06229 7.69338 7.58266C7.92115 6.68199 8.58604 6.06244 9.30871 5.69201C10.0333 5.3206 10.8973 5.1516 11.7227 5.18022C12.5442 5.20871 13.4112 5.43674 14.0965 5.95408ZM10.3535 13.6875C10.3535 13.1928 10.7546 12.7917 11.2493 12.7917C11.7441 12.7917 12.1452 13.1928 12.1452 13.6875C12.1452 14.1823 11.7441 14.5833 11.2493 14.5833C10.7546 14.5833 10.3535 14.1823 10.3535 13.6875Z" fill="white"/>
</svg>
