<svg width="35" height="35" viewBox="0 0 35 35" fill="none" xmlns="http://www.w3.org/2000/svg">
<path d="M17.4998 32.0834C9.44546 32.0834 2.9165 25.5545 2.9165 17.5001C2.9165 9.44571 9.44546 2.91675 17.4998 2.91675C25.5542 2.91675 32.0832 9.44571 32.0832 17.5001C32.0832 25.5545 25.5542 32.0834 17.4998 32.0834ZM12.3957 20.4167V23.3334H16.0415V26.2501H18.9582V23.3334H20.4165C21.3834 23.3334 22.3108 22.9493 22.9945 22.2656C23.6782 21.5818 24.0623 20.6545 24.0623 19.6876C24.0623 18.7206 23.6782 17.7933 22.9945 17.1096C22.3108 16.4259 21.3834 16.0417 20.4165 16.0417H14.5832C14.3898 16.0417 14.2043 15.9649 14.0676 15.8282C13.9308 15.6914 13.854 15.506 13.854 15.3126C13.854 15.1192 13.9308 14.9337 14.0676 14.797C14.2043 14.6602 14.3898 14.5834 14.5832 14.5834H22.604V11.6667H18.9582V8.75008H16.0415V11.6667H14.5832C13.6162 11.6667 12.6889 12.0509 12.0052 12.7346C11.3215 13.4183 10.9373 14.3456 10.9373 15.3126C10.9373 16.2795 11.3215 17.2068 12.0052 17.8906C12.6889 18.5743 13.6162 18.9584 14.5832 18.9584H20.4165C20.6099 18.9584 20.7954 19.0352 20.9321 19.172C21.0688 19.3087 21.1457 19.4942 21.1457 19.6876C21.1457 19.881 21.0688 20.0664 20.9321 20.2032C20.7954 20.3399 20.6099 20.4167 20.4165 20.4167H12.3957Z" fill="#10B068"/>
<rect x="10.606" y="7.66699" width="14.0093" height="19.8466" fill="#10B068"/>
<path d="M21.5027 13.5043V11.9478H12.9414V13.5043H15.6654C16.6788 13.5043 17.5341 14.1566 17.8563 15.0609H12.9414V16.6175H17.8563C17.6966 17.0715 17.4002 17.4648 17.0079 17.7435C16.6156 18.0222 16.1467 18.1727 15.6654 18.1741H12.9414V20.0529L17.289 24.4005H19.49L14.8202 19.7307H15.6654C16.562 19.7295 17.4307 19.4192 18.1252 18.8521C18.8196 18.285 19.2972 17.4958 19.4775 16.6175H21.5027V15.0609H19.4775C19.3582 14.4945 19.1124 13.9624 18.7584 13.5043H21.5027Z" fill="#D3F2DF"/>
</svg>
