<svg width="23" height="23" viewBox="0 0 23 23" fill="none" xmlns="http://www.w3.org/2000/svg">
<path d="M9.25 2.5C5.52208 2.5 2.5 5.52208 2.5 9.25C2.5 12.9779 5.52208 16 9.25 16C12.9779 16 16 12.9779 16 9.25C16 5.52208 12.9779 2.5 9.25 2.5ZM0.25 9.25C0.25 4.27944 4.27944 0.25 9.25 0.25C14.2206 0.25 18.25 4.27944 18.25 9.25C18.25 11.3298 17.5445 13.2448 16.3598 14.7688L22.4205 20.8295C22.8598 21.2688 22.8598 21.9812 22.4205 22.4205C21.9812 22.8598 21.2688 22.8598 20.8295 22.4205L14.7688 16.3598C13.2448 17.5445 11.3298 18.25 9.25 18.25C4.27944 18.25 0.25 14.2206 0.25 9.25Z" fill="#1A1A1A"/>
</svg>
