<svg width="23" height="23" viewBox="0 0 23 23" fill="none" xmlns="http://www.w3.org/2000/svg">
<path d="M2.65986 2.50015L4.76027 16.1528C4.77555 16.2655 4.80752 16.3729 4.85361 16.4724C4.99235 16.772 5.25901 17.0002 5.58349 17.087C5.68261 17.1137 5.7865 17.127 5.89275 17.1252H18.25C18.7468 17.1252 19.1848 16.7993 19.3276 16.3234L22.7026 5.07342C22.8047 4.7328 22.7399 4.36392 22.5276 4.07861C22.3153 3.7933 21.9806 3.62515 21.625 3.62515H5.10941L4.7394 1.22012C4.72554 1.11957 4.69839 1.02325 4.65979 0.933008C4.5897 0.768672 4.48239 0.626323 4.34983 0.514745C4.22684 0.41103 4.08131 0.333206 3.92163 0.289673C3.82113 0.262151 3.71568 0.248365 3.60778 0.250154H1.375C0.75368 0.250154 0.25 0.753834 0.25 1.37515C0.25 1.99647 0.75368 2.50015 1.375 2.50015H2.65986ZM6.84018 14.8752L5.45556 5.87515H20.113L17.413 14.8752H6.84018Z" fill="#1A1A1A"/>
<path d="M9.25 20.5002C9.25 21.7428 8.24264 22.7502 7 22.7502C5.75736 22.7502 4.75 21.7428 4.75 20.5002C4.75 19.2575 5.75736 18.2502 7 18.2502C8.24264 18.2502 9.25 19.2575 9.25 20.5002Z" fill="#1A1A1A"/>
<path d="M19.375 20.5002C19.375 21.7428 18.3676 22.7502 17.125 22.7502C15.8824 22.7502 14.875 21.7428 14.875 20.5002C14.875 19.2575 15.8824 18.2502 17.125 18.2502C18.3676 18.2502 19.375 19.2575 19.375 20.5002Z" fill="#1A1A1A"/>
</svg>
