<svg width="25" height="25" viewBox="0 0 25 25" fill="none" xmlns="http://www.w3.org/2000/svg">
<path d="M4.49994 5.61217L0.851562 1.96492L2.44344 0.373047L6.09069 4.02142H23.2379C23.4133 4.02141 23.5862 4.06239 23.7429 4.14109C23.8996 4.21978 24.0357 4.33402 24.1404 4.47468C24.2452 4.61534 24.3155 4.77853 24.346 4.95122C24.3764 5.12391 24.366 5.30132 24.3157 5.4693L21.6157 14.4693C21.5462 14.7011 21.4038 14.9044 21.2097 15.0489C21.0155 15.1934 20.78 15.2714 20.5379 15.2714H6.74994V17.5214H19.1249V19.7714H5.62494C5.32657 19.7714 5.04042 19.6529 4.82944 19.4419C4.61846 19.2309 4.49994 18.9448 4.49994 18.6464V5.61217ZM6.18744 24.2714C5.73988 24.2714 5.31066 24.0936 4.99419 23.7772C4.67773 23.4607 4.49994 23.0315 4.49994 22.5839C4.49994 22.1364 4.67773 21.7071 4.99419 21.3907C5.31066 21.0742 5.73988 20.8964 6.18744 20.8964C6.63499 20.8964 7.06421 21.0742 7.38068 21.3907C7.69715 21.7071 7.87494 22.1364 7.87494 22.5839C7.87494 23.0315 7.69715 23.4607 7.38068 23.7772C7.06421 24.0936 6.63499 24.2714 6.18744 24.2714ZM19.6874 24.2714C19.2399 24.2714 18.8107 24.0936 18.4942 23.7772C18.1777 23.4607 17.9999 23.0315 17.9999 22.5839C17.9999 22.1364 18.1777 21.7071 18.4942 21.3907C18.8107 21.0742 19.2399 20.8964 19.6874 20.8964C20.135 20.8964 20.5642 21.0742 20.8807 21.3907C21.1971 21.7071 21.3749 22.1364 21.3749 22.5839C21.3749 23.0315 21.1971 23.4607 20.8807 23.7772C20.5642 24.0936 20.135 24.2714 19.6874 24.2714Z" fill="#10B068"/>
</svg>
