<svg width="99" height="99" viewBox="0 0 99 99" fill="none" xmlns="http://www.w3.org/2000/svg">
<path d="M84.5019 14.4981C75.1524 5.14902 62.7219 0 49.5 0C36.2781 0 23.8476 5.14902 14.4981 14.4981C5.14902 23.8476 0 36.2781 0 49.5C0 62.7219 5.14902 75.1524 14.4981 84.5019C23.8476 93.851 36.2781 99 49.5 99C62.7219 99 75.1524 93.851 84.5019 84.5019C93.851 75.1524 99 62.7219 99 49.5C99 36.2781 93.851 23.8476 84.5019 14.4981ZM49.5 92.8763C25.5822 92.8763 6.12371 73.4178 6.12371 49.5C6.12371 25.5822 25.5822 6.12371 49.5 6.12371C73.4178 6.12371 92.8763 25.5822 92.8763 49.5C92.8763 73.4178 73.4178 92.8763 49.5 92.8763Z" fill="#10B068"/>
<circle cx="49" cy="50" r="47" fill="#10B068"/>
<path d="M36.959 68.7028L70.2058 49.4998L36.959 30.2969V68.7028Z" fill="white"/>
</svg>
