<svg width="36" height="36" viewBox="0 0 36 36" fill="none" xmlns="http://www.w3.org/2000/svg">
<path d="M17.6553 3.80151C20.1539 3.80141 22.6006 4.51452 24.7079 5.85702C26.8152 7.19952 28.4955 9.11564 29.5514 11.3802C30.6072 13.6447 30.9947 16.1636 30.6684 18.6408C30.342 21.118 29.3154 23.4506 27.709 25.3644C29.5392 26.5748 30.6738 28.1207 30.773 29.8109L30.7803 30.0515L17.6553 32.9682L4.53029 30.0515L4.53758 29.8109C4.63529 28.1192 5.77133 26.5734 7.60008 25.363C5.6131 23.0013 4.52569 20.0129 4.53029 16.9265C4.53029 13.4455 5.9131 10.1072 8.37451 7.64574C10.8359 5.18432 14.1743 3.80151 17.6553 3.80151ZM17.6553 19.8432C15.6428 19.8432 14.0095 20.8232 14.0095 22.0307C14.0095 23.2382 15.6428 24.2182 17.6553 24.2182C19.6678 24.2182 21.3011 23.2382 21.3011 22.0307C21.3011 20.8232 19.6678 19.8432 17.6553 19.8432ZM13.2803 12.5515C11.6688 12.5515 10.3636 13.5315 10.3636 14.739C10.3636 15.9465 11.6688 16.9265 13.2803 16.9265C14.8917 16.9265 16.197 15.9465 16.197 14.739C16.197 13.5315 14.8917 12.5515 13.2803 12.5515ZM22.0303 12.5515C20.4188 12.5515 19.1136 13.5315 19.1136 14.739C19.1136 15.9465 20.4188 16.9265 22.0303 16.9265C23.6417 16.9265 24.947 15.9465 24.947 14.739C24.947 13.5315 23.6417 12.5515 22.0303 12.5515Z" fill="#10B068"/>
</svg>
