<svg width="24" height="24" viewBox="0 0 24 24" fill="none" xmlns="http://www.w3.org/2000/svg">
<g clip-path="url(#clip0)">
<path d="M16.2609 7.1226L19.7581 10.6197L1.08161 10.6197C0.49509 10.6197 0.0195901 11.0952 0.0195901 11.6818C0.0195901 12.2683 0.49509 12.7438 1.08161 12.7438L19.7581 12.7438L16.2609 16.2409C16.0535 16.4482 15.9498 16.72 15.9498 16.9918C15.9498 17.2636 16.0535 17.5355 16.2609 17.7428C16.6756 18.1575 17.3481 18.1575 17.7628 17.7428L23.0729 12.4327C23.4877 12.018 23.4877 11.3455 23.0729 10.9308L17.7628 5.6207C17.3481 5.20594 16.6757 5.20594 16.2609 5.6207C15.8462 6.03545 15.8462 6.70792 16.2609 7.1226Z" fill="#1A1A1A"/>
</g>
<defs>
<clipPath id="clip0">
<rect width="23.3643" height="23.3643" fill="white" transform="translate(23.3839 -0.000244141) rotate(90)"/>
</clipPath>
</defs>
</svg>
