<svg width="140" height="38" viewBox="0 0 140 38" fill="none" xmlns="http://www.w3.org/2000/svg">
<g clip-path="url(#clip0)">
<path d="M131.755 13.8458C132.795 13.8458 133.63 13.3438 133.63 12.3237V2.77246H138.172V12.7454C138.172 15.7682 136.177 16.7823 133.555 16.7823H125.985C125.397 16.7792 124.847 16.4876 124.513 16.0019L123.197 13.8427L131.755 13.8458ZM94.5761 13.8458C95.6166 13.8458 96.4468 13.3438 96.4468 12.3237V2.77246H100.975V12.7454C100.975 15.7682 98.9748 16.7823 96.3553 16.7823H88.7865C88.1982 16.7752 87.6505 16.4846 87.3142 16.0019L85.9973 13.8427L94.5761 13.8458ZM112.004 6.154L105.868 16.7924H100.507L109.068 2.77246H114.92L123.473 16.7823H118.143L116.704 14.2847H108.779L110.08 12.1367C110.413 11.6531 110.962 11.3614 111.549 11.3564H114.988L111.991 6.154H112.004ZM74.8071 6.154L68.6659 16.7924H63.3182L71.8808 2.77246H77.7335L86.2889 16.7823H80.9463L79.5106 14.2847H71.5821L72.8979 12.1367C73.2352 11.6531 73.7839 11.3625 74.3733 11.3564H77.8066L74.8071 6.154ZM49.3054 10.8808V16.7772L50.606 14.6261C50.9403 14.1404 51.491 13.8488 52.0813 13.8458H57.0774C58.0244 13.861 58.7733 13.1904 58.7733 12.3704C58.7733 11.5515 58.0407 10.891 57.0774 10.891L49.3054 10.8808ZM49.3054 10.8808L50.606 8.73181C50.9403 8.24612 51.491 7.95451 52.0813 7.95146H57.1455C58.0508 7.95146 58.7865 7.53791 58.7865 6.8358C58.7865 6.13368 58.0559 5.712 57.1455 5.712H49.3054V10.8808ZM44.7563 16.7823V2.77246H57.1455C59.6999 2.77246 63.81 3.11793 63.81 6.44765C63.81 8.08457 62.3733 9.23884 60.7038 9.65747C62.7848 10.2824 63.81 11.4316 63.81 13.0055C63.81 16.4388 59.9082 16.767 57.1455 16.7772H44.7563V16.7823Z" fill="#013A51"/>
<path d="M44.73 21.4463H55.9466V24.8512H48.6165V28.1911H55.2445V31.4141H48.6165V35.4673H44.73V21.4463Z" fill="#013A51"/>
<path d="M58.5889 21.4463H62.4906V35.4673H58.5889V21.4463Z" fill="#013A51"/>
<path d="M65.8594 21.4463H69.4858L75.2551 28.8576V21.4463H79.099V35.4673H75.6941L69.7114 27.7775V35.4673H65.8594V21.4463Z" fill="#013A51"/>
<path d="M81.3232 33.3833L83.4845 30.8004C84.7607 31.8683 86.3671 32.4637 88.0315 32.483C89.0719 32.483 89.6338 32.1213 89.6338 31.5208V31.4822C89.6338 30.902 89.1735 30.5789 87.2724 30.1399C84.2862 29.4582 81.9837 28.6178 81.9837 25.7332V25.6946C81.9837 23.0934 84.0464 21.2075 87.4127 21.2075C89.7954 21.2075 91.6579 21.8466 93.18 23.07L91.2362 25.8134C89.9539 24.9112 88.5547 24.4295 87.311 24.4295C86.3691 24.4295 85.9088 24.8309 85.9088 25.3328V25.3714C85.9088 26.0136 86.3905 26.292 88.3332 26.735C91.5593 27.4341 93.559 28.4776 93.559 31.1022V31.1408C93.559 34.0021 91.2961 35.7061 87.8943 35.7061C85.4069 35.7061 83.0455 34.9257 81.3232 33.3833Z" fill="#013A51"/>
<path d="M96.2432 21.4463H107.52V24.7526H100.09V26.8752H106.82V29.9398H100.09V32.166H107.621V35.4693H96.2432V21.4463Z" fill="#013A51"/>
<path d="M116.842 28.1789C118.166 28.1789 118.923 27.5357 118.923 26.5135V26.4749C118.923 25.3714 118.121 24.8126 116.821 24.8126H114.278V28.1789H116.842ZM110.404 21.4463H117.034C119.178 21.4463 120.661 22.0082 121.6 22.9684C122.422 23.7691 122.843 24.8512 122.843 26.2331V26.2737C122.843 28.4177 121.701 29.8382 119.959 30.5789L123.304 35.4673H118.816L115.992 31.2221H114.291V35.4673H110.404V21.4463Z" fill="#013A51"/>
<path d="M124.084 21.4463H128.431L131.615 30.3188L134.791 21.4463H139.057L133.368 35.5679H129.774L124.084 21.4463Z" fill="#013A51"/>
<path d="M19.0647 0.886719C8.9607 0.886719 0.77002 9.0774 0.77002 19.1804C0.77002 29.2843 8.9607 37.475 19.0647 37.475C29.1676 37.475 37.3583 29.2843 37.3583 19.1804C37.3583 9.07943 29.1707 0.889767 19.0698 0.886719H19.0647ZM30.4835 23.8676C30.4835 28.8545 24.9112 29.3311 20.9709 29.3544H17.4257V24.8644H24.4743V21.4381H17.4257V16.7824H25.2293V13.1621H13.2923V29.3616H8.73208V9.00018H20.9759C24.6176 9.00018 30.4885 9.52041 30.4885 14.3377C30.4885 16.7204 28.4462 18.4732 26.0665 19.0737C29.0162 19.9841 30.4835 21.4462 30.4835 23.8676Z" fill="#013A51"/>
</g>
<defs>
<clipPath id="clip0">
<rect width="138.287" height="36.5883" fill="white" transform="translate(0.77002 0.886719)"/>
</clipPath>
</defs>
</svg>
