<svg width="36" height="36" viewBox="0 0 36 36" fill="none" xmlns="http://www.w3.org/2000/svg">
<path d="M13.1536 6.00163V4.54329C13.1536 4.15652 13.3073 3.78559 13.5808 3.5121C13.8543 3.23861 14.2252 3.08496 14.612 3.08496H20.4453C20.8321 3.08496 21.203 3.23861 21.4765 3.5121C21.75 3.78559 21.9036 4.15652 21.9036 4.54329V6.00163H26.2786C26.6654 6.00163 27.0364 6.15527 27.3098 6.42876C27.5833 6.70225 27.737 7.07319 27.737 7.45996V30.7933C27.737 31.1801 27.5833 31.551 27.3098 31.8245C27.0364 32.098 26.6654 32.2516 26.2786 32.2516H8.77865C8.39187 32.2516 8.02094 32.098 7.74745 31.8245C7.47396 31.551 7.32031 31.1801 7.32031 30.7933V7.45996C7.32031 7.07319 7.47396 6.70225 7.74745 6.42876C8.02094 6.15527 8.39187 6.00163 8.77865 6.00163H13.1536ZM18.987 17.6683V10.3766L11.6953 20.585H16.0703V27.8766L23.362 17.6683H18.987Z" fill="#10B068"/>
</svg>
