<svg width="133" height="26" viewBox="0 0 133 26" fill="none" xmlns="http://www.w3.org/2000/svg">
<g clip-path="url(#clip0)">
<path d="M31.5762 19.022L33.9519 7.82861H42.861C43.4549 7.82861 43.9118 7.8743 44.3229 7.96568C44.6884 8.05705 45.0083 8.19411 45.191 8.42255C45.3738 8.65099 45.5108 8.92511 45.5565 9.29061C45.6022 9.65611 45.5565 10.113 45.4194 10.6612L45.2824 11.3465C45.0539 12.3974 44.4143 13.037 43.4092 13.174C43.8661 13.2197 44.2316 13.4482 44.5057 13.768C44.7798 14.0878 44.8255 14.5903 44.6884 15.2757L44.5514 16.0067C44.4143 16.6006 44.2773 17.0575 44.0488 17.423C43.8204 17.7885 43.592 18.1083 43.2265 18.3367C42.9066 18.5651 42.4955 18.7022 42.0386 18.7936C41.5817 18.885 41.0791 18.9306 40.4852 18.9306H31.5762V19.022ZM43.1808 11.0267C43.2721 10.6612 43.2265 10.4328 43.1351 10.2957C42.998 10.1587 42.7696 10.0673 42.4041 10.0673H35.688L35.1855 12.4887H41.9015C42.267 12.4887 42.4955 12.3974 42.6782 12.2603C42.861 12.1232 42.998 11.8491 43.0894 11.4379L43.1808 11.0267ZM42.4955 15.4127C42.5868 15.0015 42.5868 14.7274 42.4498 14.5447C42.3127 14.3619 42.0386 14.3162 41.5817 14.3162H34.7743L34.226 16.8747H40.9421C41.4446 16.8747 41.7645 16.7833 41.9929 16.6463C42.1756 16.5092 42.3127 16.2351 42.4041 15.8696L42.4955 15.4127Z" fill="#1A1A1A"/>
<path d="M47.7046 9.51902L48.2071 7.18896H50.4001L49.8976 9.51902H47.7046ZM45.6943 19.022L47.5675 10.25H49.7605L47.8873 19.022H45.6943Z" fill="#1A1A1A"/>
<path d="M56.9331 19.0218L54.466 15.915L52.3644 17.5141L52.0446 19.0218H49.8516L52.273 7.55424L54.603 6.82324L52.8669 15.047L58.8977 10.2498H61.5932L56.065 14.5901L59.72 19.0218H56.9331Z" fill="#1A1A1A"/>
<path d="M63.6032 19.0223C62.5524 19.0223 61.7757 18.7938 61.2731 18.2913C60.7706 17.7887 60.6335 17.012 60.862 15.9155L61.4102 13.3113C61.6386 12.2148 62.0955 11.4381 62.7808 10.9356C63.4661 10.433 64.3342 10.2046 65.4307 10.2046H68.3547C69.4055 10.2046 70.1822 10.433 70.6847 10.9356C71.1873 11.4381 71.3244 12.2148 71.0959 13.3113L70.6391 15.3673H63.1463L63.055 15.9155C62.9636 16.3724 63.0093 16.6922 63.192 16.8749C63.3748 17.0577 63.6489 17.1491 64.0144 17.1491H70.1365L69.4512 19.0223H63.6032ZM68.9029 13.4941C68.9943 12.9915 68.9943 12.6717 68.8573 12.489C68.7202 12.3062 68.4461 12.2148 67.9892 12.2148H65.1109C64.6997 12.2148 64.3342 12.3062 64.1058 12.489C63.8773 12.6717 63.7403 12.9915 63.6489 13.4027L63.5118 14.088H68.8116L68.9029 13.4941Z" fill="#1A1A1A"/>
<path d="M71.7344 19.022L74.1101 7.82861H83.5217C84.207 7.82861 84.7553 7.8743 85.1665 8.01136C85.5776 8.14842 85.8975 8.33117 86.1259 8.6053C86.3086 8.87942 86.4457 9.24492 86.4457 9.74748C86.4457 10.2044 86.4 10.7983 86.263 11.4379L85.4406 15.367C85.3035 16.0523 85.1208 16.6006 84.8923 17.1032C84.6639 17.56 84.3898 17.9255 84.07 18.2453C83.7502 18.5195 83.339 18.7479 82.8821 18.8393C82.4252 18.9763 81.8313 19.022 81.146 19.022H71.7344ZM84.07 11.4836C84.207 10.9354 84.1613 10.5699 84.0243 10.3414C83.8872 10.1587 83.5674 10.0216 83.0648 10.0216H75.8919L74.4756 16.7833H81.6028C82.1054 16.7833 82.4709 16.692 82.6993 16.5092C82.9278 16.3265 83.1105 15.961 83.2019 15.4127L84.07 11.4836Z" fill="#D22527"/>
<path d="M89.9186 19.0223C88.8678 19.0223 88.0911 18.7938 87.5886 18.2913C87.086 17.7887 86.949 17.012 87.1774 15.9155L87.7256 13.3113C87.9541 12.2148 88.4109 11.4381 89.0963 10.9356C89.7816 10.433 90.6496 10.2046 91.7461 10.2046H94.6701C95.7209 10.2046 96.4976 10.433 97.0002 10.9356C97.5027 11.4381 97.6398 12.2148 97.4114 13.3113L96.9545 15.3673H89.5074L89.3704 15.9155C89.279 16.3724 89.3247 16.6922 89.5074 16.8749C89.6902 17.0577 89.9643 17.1491 90.3298 17.1491H96.4519L95.7666 19.0223H89.9186ZM95.2184 13.4941C95.3097 12.9915 95.3097 12.6717 95.1727 12.489C95.0356 12.3062 94.7615 12.2148 94.3046 12.2148H91.4263C91.0151 12.2148 90.6496 12.3062 90.4212 12.489C90.1928 12.6717 90.0557 12.9915 89.9643 13.4027L89.8273 14.088H95.127L95.2184 13.4941Z" fill="#D22527"/>
<path d="M105.133 19.0218L102.666 15.915L100.565 17.5141L100.245 19.0218H98.0518L100.473 7.55424L102.803 6.82324L101.067 15.047L107.098 10.2498H109.793L104.265 14.5901L107.92 19.0218H105.133Z" fill="#D22527"/>
<path d="M116.372 19.0218L117.559 13.4936C117.651 13.0367 117.651 12.7169 117.514 12.4885C117.377 12.26 117.103 12.1687 116.646 12.1687H113.813C113.493 12.1687 113.265 12.2144 113.036 12.3514C112.808 12.4885 112.671 12.7169 112.534 12.991L111.255 19.0218H109.062L111.483 7.55424L113.813 6.82324L112.808 11.529C113.128 11.0722 113.493 10.7524 113.859 10.5696C114.224 10.3869 114.681 10.2955 115.184 10.2955H117.011C117.651 10.2955 118.153 10.3869 118.564 10.5239C118.976 10.661 119.25 10.8894 119.478 11.1635C119.661 11.4377 119.798 11.8032 119.798 12.26C119.798 12.7169 119.752 13.2195 119.661 13.8134L118.564 19.0675H116.372V19.0218Z" fill="#D22527"/>
<path d="M123.82 19.0223C122.632 19.0223 121.855 18.7938 121.398 18.2913C120.987 17.7887 120.85 17.012 121.124 15.9155L121.672 13.3113C121.901 12.2148 122.358 11.4381 122.952 10.9356C123.591 10.433 124.505 10.2046 125.693 10.2046H128.617C129.805 10.2046 130.627 10.433 131.038 10.9356C131.449 11.4381 131.586 12.2148 131.312 13.3113L130.764 15.9155C130.536 17.012 130.079 17.7887 129.485 18.2913C128.845 18.7938 127.931 19.0223 126.744 19.0223H123.82ZM129.119 13.357C129.211 12.9001 129.165 12.5803 129.028 12.3976C128.891 12.2148 128.571 12.1235 128.16 12.1235H125.282C124.87 12.1235 124.551 12.2148 124.322 12.3976C124.094 12.5803 123.911 12.9001 123.82 13.357L123.271 15.9612C123.18 16.4181 123.226 16.7379 123.363 16.9206C123.5 17.1034 123.82 17.1948 124.231 17.1948H127.109C127.52 17.1948 127.84 17.1034 128.069 16.9206C128.297 16.7379 128.48 16.4181 128.571 15.9612L129.119 13.357Z" fill="#D22527"/>
<path d="M24.0823 1.06689H7.40639C5.44183 1.06689 3.84277 2.66595 3.84277 4.63051V15.7325L4.61946 14.7731V4.81326C4.61946 3.16851 5.94439 1.79789 7.63483 1.79789H23.8995C25.5443 1.79789 26.9149 3.12283 26.9149 4.81326V21.078C26.9149 22.7227 25.59 24.0933 23.8995 24.0933H7.63483C7.3607 24.3675 7.13226 24.5959 6.85814 24.8243C7.04089 24.87 7.26933 24.87 7.45208 24.87H24.128C26.0925 24.87 27.6916 23.271 27.6916 21.3064V4.63051C27.6916 2.66595 26.0925 1.06689 24.0823 1.06689Z" fill="#D22527"/>
<path d="M10.788 12.9457C10.4225 12.7629 9.91993 12.7629 9.37168 12.9L11.7017 9.976C11.4276 9.65619 11.2905 9.29069 11.2449 8.83381C11.2449 8.55969 11.2449 8.33125 11.3362 8.05713L4.39176 16.6464C4.20901 16.8291 4.07194 17.0575 3.88919 17.2403C1.28501 20.5755 0.279892 23.865 1.3307 24.9615C1.51345 25.1899 1.92464 25.6011 2.70132 25.7381C3.88919 25.9666 6.35631 24.3675 8.91481 21.078C11.4733 17.7885 12.5241 14.9102 11.8845 13.8594C11.7017 13.5853 11.3362 13.2198 10.788 12.9457ZM8.13812 20.5755C6.08219 23.1797 3.93488 24.9158 3.34095 24.4589C2.74701 24.002 3.98057 21.5349 6.0365 18.9307C8.09243 16.3265 10.2397 14.5904 10.788 15.0473C11.4276 15.5042 10.1941 17.9713 8.13812 20.5755Z" fill="#D22527"/>
<path d="M26.3215 14.0418C26.2758 14.0418 26.2758 14.0418 26.3215 14.0418C26.2758 13.9961 26.2758 13.9961 26.2758 13.9961C26.0931 13.8591 25.819 13.8591 25.6819 14.0418L23.763 16.3719C23.763 15.9607 23.6717 15.6409 23.4889 15.4124C22.895 14.8185 22.4381 14.453 22.0726 14.2246C21.2502 13.722 19.5598 14.5901 18.1892 16.4176C16.8185 18.1994 16.4074 20.0726 17.1384 20.7579C17.4125 21.032 18.3719 21.6259 18.7831 21.763C19.6969 22.0828 21.0218 21.2604 22.3467 19.5243C22.3467 19.4786 22.3924 19.4786 22.3924 19.4329L26.3215 14.6358C26.4586 14.4073 26.4586 14.1789 26.3215 14.0418ZM21.7528 19.0674C20.9761 20.0726 20.1537 20.7579 19.9253 20.5751C19.6969 20.3924 20.1994 19.4786 20.9761 18.4735C21.7528 17.4684 22.5752 16.7831 22.8036 16.9658C23.032 17.1029 22.5295 18.0623 21.7528 19.0674Z" fill="#D22527"/>
<path d="M12.341 10.1126L19.3769 14.6813C19.6967 14.4072 20.0622 14.2245 20.382 14.0417C18.1433 13.0366 18.6002 9.47298 15.1279 9.0618C15.2193 8.87905 15.3107 8.6963 15.4021 8.51355L18.8743 9.56436C19.1027 9.61005 19.3312 9.51867 19.3769 9.29023C19.4226 9.0618 19.3312 8.83336 19.1027 8.78767L15.5391 7.73686C15.5391 7.18861 15.3107 6.68605 14.8995 6.41193C14.4426 6.09212 13.803 6.04643 13.2091 6.32056L10.7876 3.76206C10.6506 3.57931 10.3765 3.57931 10.1937 3.76206C10.011 3.89912 10.011 4.17325 10.1937 4.356L12.5238 6.82312C12.3867 6.96018 12.2496 7.09724 12.1126 7.27999C11.4273 8.28511 11.4729 9.51867 12.2496 10.1126C12.2496 10.1126 12.2496 10.1126 12.2953 10.1126C12.2496 10.0669 12.2953 10.0669 12.341 10.1126Z" fill="#D22527"/>
</g>
<defs>
<clipPath id="clip0">
<rect width="131.484" height="25.1281" fill="white" transform="translate(0.734375 0.79248)"/>
</clipPath>
</defs>
</svg>
