<svg width="135" height="38" viewBox="0 0 135 38" fill="none" xmlns="http://www.w3.org/2000/svg">
<g clip-path="url(#clip0)">
<path fill-rule="evenodd" clip-rule="evenodd" d="M28.7221 15.416H28.6203L7.68224 15.3809L7.68575 8.4577L28.8503 8.45945L28.852 1.33965L0.592285 1.33789L0.646715 22.4006H28.694L28.8011 22.3971C28.8011 21.0627 28.9627 16.3255 28.7221 15.416Z" fill="#013A51"/>
<path fill-rule="evenodd" clip-rule="evenodd" d="M105.679 16.1362C105.83 16.5663 105.765 16.4136 106.364 16.4153L109.869 16.3943L114.355 3.83848L116.147 8.69329L113.471 8.70207L112.153 12.8651C118.572 12.8827 117.452 12.3735 118.198 14.4541C118.404 15.0265 118.593 15.555 118.797 16.1449L118.962 16.4294L122.228 16.4189C122.668 16.4276 122.965 16.547 123.067 16.2204L117.624 1.01514H111.328C111.003 1.11346 110.018 4.2388 109.844 4.73745C109.396 6.02446 108.952 7.26055 108.481 8.54932C108.104 9.57998 106.036 15.7604 105.679 16.1362Z" fill="#013A51"/>
<path fill-rule="evenodd" clip-rule="evenodd" d="M53.2222 16.4944C53.9579 16.2485 56.3212 16.4311 57.2799 16.4083C57.7803 15.713 58.0524 13.9449 58.4808 13.3392L61.8169 3.83145C62.2049 4.35469 63.2724 7.78905 63.599 8.69153L60.9513 8.70382L59.6607 12.8809H64.9387C65.2723 13.0582 65.2477 13.2584 65.3812 13.6552L66.4013 16.4083L70.5011 16.4153C70.5116 15.8693 69.927 14.7192 69.7602 14.0731L65.0669 1.02392L58.7899 1.01514C58.4405 1.11697 57.5011 4.20895 57.3097 4.73745C56.6478 6.57578 53.2134 15.9342 53.2222 16.4944Z" fill="#013A51"/>
<path fill-rule="evenodd" clip-rule="evenodd" d="M81.14 33.4818L80.0005 36.9091L84.146 36.9267L87.115 28.641L88.7005 24.3744L90.4054 29.1976H88.3494C88.0175 29.3749 88.2686 29.2257 87.9912 29.5277C88.0035 30.4758 87.0255 32.2755 86.8797 33.3764L91.9417 33.3782C92.1419 34.2666 93.0602 36.119 93.0584 36.8512L97.3689 36.9003L91.8961 21.5142L85.4505 21.5212L81.14 33.4818Z" fill="#013A51"/>
<path fill-rule="evenodd" clip-rule="evenodd" d="M71.6008 24.7199C72.5454 24.5285 73.7903 24.7813 74.3363 25.3028C74.9596 25.8945 74.784 27.1727 74.784 28.2262C74.784 29.2569 74.8683 30.7002 74.7753 31.6817C74.5944 33.6201 71.3497 33.6464 70.2664 32.6087C69.6325 32.0012 69.8204 30.7686 69.8204 29.7362C69.8204 26.9339 69.248 25.1957 71.6008 24.7199ZM70.5245 21.1731C70.1838 21.4523 69.4464 21.5506 69.0285 21.7438C67.7169 22.3513 66.5686 23.3328 66.1244 24.8761C65.768 26.114 65.8435 31.2796 66.0085 32.7562C66.5967 34.289 66.8759 34.8404 67.975 35.6533C70.4033 37.4512 74.9561 37.4056 77.3019 35.0862C77.8321 34.5612 77.869 34.3452 78.2886 33.7272C78.8207 31.9556 78.6942 31.0092 78.6942 29.0883C78.6942 27.5854 78.8786 25.7224 78.3308 24.4372C77.3774 22.1933 74.9789 21.0134 71.736 21.0889L70.5245 21.1731Z" fill="#013A51"/>
<path fill-rule="evenodd" clip-rule="evenodd" d="M78.8544 8.36474C78.3628 8.68781 76.837 8.61933 76.1944 8.44902L76.1803 4.93038C76.219 4.73022 76.219 4.79869 76.2822 4.68983C77.7202 4.64418 79.2688 4.4089 79.9185 5.47995C80.619 6.63 80.0045 8.2155 78.8544 8.36474ZM72.3018 16.1798V16.2799C73.0076 16.4889 75.2796 16.3589 76.1593 16.3589L76.161 13.0159C76.1593 12.5962 76.0926 12.2152 76.2664 11.9378C79.0283 11.9343 80.7683 12.0203 82.4644 10.4735C83.855 9.20226 84.3975 7.02857 83.8199 4.58624C83.1825 3.33259 83.2984 3.31328 82.3064 2.34056C81.7305 1.77695 80.7876 1.31692 79.7429 1.13081C78.6315 0.932402 73.4975 0.899041 72.3018 1.04828V16.1798Z" fill="#013A51"/>
<path fill-rule="evenodd" clip-rule="evenodd" d="M40.667 36.8563H44.5544C44.5508 36.4033 44.4174 32.4054 44.6597 31.9769C46.0292 31.9699 50.3239 31.8049 51.3616 32.0419L51.3599 28.2546L44.6948 28.2388C44.4297 27.8403 44.5561 25.6911 44.5947 25.2504C45.499 25.0204 50.0887 25.1837 51.3686 25.1837L51.3704 21.4877C50.0061 21.5931 43.9714 21.5351 41.8539 21.5106C40.6828 21.4965 40.8092 21.3964 40.6687 21.7177L40.667 36.8563Z" fill="#013A51"/>
<path fill-rule="evenodd" clip-rule="evenodd" d="M45.3076 1.13615L44.3296 1.32753C43.838 1.7858 42.6037 1.94558 41.6626 3.22205C40.8619 4.31065 40.6635 5.10604 40.6688 6.75825C40.6723 8.26825 40.6705 9.78 40.667 11.29C40.6635 13.0739 40.9357 13.4637 41.6591 14.7033C42.6564 15.5233 42.9917 16.2045 44.9986 16.6663C47.6113 17.2668 48.677 16.3432 49.5128 16.2923C49.9851 15.7498 51.1352 15.6163 52.2905 13.3917L48.8509 11.8343C48.4242 12.9633 46.8475 13.6235 45.5008 12.9282C44.1839 12.2469 44.5772 10.6807 44.5772 8.91614C44.5772 7.24461 44.2085 5.53094 45.5008 4.90412C46.8299 4.26149 48.5682 4.81457 48.965 5.89439L52.2097 4.61441C51.8287 3.42046 50.719 2.30376 49.7604 1.76473C48.3662 0.983396 47.0406 0.946524 45.3076 1.13615Z" fill="#013A51"/>
<path fill-rule="evenodd" clip-rule="evenodd" d="M101.549 25.1922C101.777 25.6364 101.642 36.4223 101.642 36.8736L105.519 36.8753V26.6073C105.519 26.042 105.433 25.4942 105.642 25.215L109.626 25.2589V21.4839L109.493 21.4856L95.9868 21.5014L97.4793 25.2044L101.549 25.1922Z" fill="#013A51"/>
<path fill-rule="evenodd" clip-rule="evenodd" d="M101.739 16.5084L101.794 4.74096L105.878 4.7357V1.01514L93.7417 1.0643L93.7435 4.73745L97.7941 4.73921L97.8187 16.4417C98.816 16.4399 100.916 16.3205 101.739 16.5084Z" fill="#013A51"/>
<path fill-rule="evenodd" clip-rule="evenodd" d="M124.637 16.4944C125.559 16.1836 133.123 16.4979 134.886 16.4013L134.498 15.0651C134.301 14.4962 133.988 12.8633 133.549 12.5578L128.507 12.5368C128.507 11.2796 128.438 1.37683 128.547 1.01514H124.568C124.568 3.16776 124.423 15.4496 124.637 16.4944Z" fill="#013A51"/>
<path fill-rule="evenodd" clip-rule="evenodd" d="M54.2601 21.8265L54.2583 36.9089H64.5684C64.4367 36.1767 63.982 35.4884 64.0118 34.7808C63.6589 34.4104 63.6431 33.6606 63.3692 33.1883C62.256 32.8495 59.3905 33.3709 58.1562 33.0461L58.1527 21.5034L54.2601 21.5122V21.8265Z" fill="#013A51"/>
<path fill-rule="evenodd" clip-rule="evenodd" d="M86.8796 16.4939C87.61 16.2481 89.7539 16.4149 90.6687 16.4149L90.7213 1.07793C90.1279 0.856703 87.668 1.01648 86.8111 1.01297C86.8199 3.61157 86.8111 6.21017 86.8111 8.80876C86.8111 10.5207 86.5969 15.1139 86.8796 16.4939Z" fill="#013A51"/>
<path fill-rule="evenodd" clip-rule="evenodd" d="M0.604867 36.6103L7.68078 36.612L7.68429 29.6292V29.5186L0.59082 29.5747L0.604867 36.6103Z" fill="#013A51"/>
<path fill-rule="evenodd" clip-rule="evenodd" d="M71.6005 24.72C69.2477 25.1958 69.8201 26.934 69.8201 29.7363C69.8201 30.7687 69.6322 32.0013 70.2661 32.6088C71.3494 33.6465 74.5942 33.6202 74.775 31.6818C74.8681 30.7003 74.7838 29.257 74.7838 28.2263C74.7838 27.1728 74.9594 25.8946 74.3361 25.3029C73.79 24.7814 72.5451 24.5286 71.6005 24.72Z" fill="white"/>
<path fill-rule="evenodd" clip-rule="evenodd" d="M78.8543 8.36468C80.0044 8.21543 80.6189 6.62994 79.9183 5.47988C79.2687 4.40884 77.72 4.64412 76.282 4.68977L76.2803 8.42437L78.8543 8.36468Z" fill="white"/>
<path fill-rule="evenodd" clip-rule="evenodd" d="M87.1147 28.6406L88.0962 28.9813C87.9207 29.1639 88.0243 28.9128 87.9646 29.1955C87.9049 29.4764 87.9224 29.2622 87.9909 29.5273C88.2683 29.2253 88.0172 29.3746 88.3491 29.1972H90.4051L88.7002 24.374L87.1147 28.6406Z" fill="white"/>
<path fill-rule="evenodd" clip-rule="evenodd" d="M28.722 15.416C28.9626 16.3255 28.801 21.0627 28.801 22.3971L28.6939 22.3988L0.64664 22.4006L0.592209 1.33789C0.492128 1.68554 0.439454 21.7738 0.590454 22.455L28.8555 22.5077C28.9977 21.7983 28.8906 17.6107 28.9117 16.25C28.9292 15.1702 28.8994 15.5354 28.722 15.416Z" fill="#013A51"/>
<path fill-rule="evenodd" clip-rule="evenodd" d="M101.547 36.3172L101.579 36.8949C102.053 37.1091 104.996 37.0757 105.573 36.9282C105.756 36.2083 105.628 26.8428 105.644 25.2152C105.433 25.4944 105.519 26.0422 105.519 26.6076V36.8755L101.642 36.8738C101.642 36.4225 101.777 25.6366 101.549 25.1924V36.3172H101.547Z" fill="#013A51"/>
<path fill-rule="evenodd" clip-rule="evenodd" d="M63.3693 33.1883C63.1516 32.9109 63.3079 33.018 62.2421 33.0198H58.267L58.2687 22.1829C58.2705 21.8107 58.3091 21.7808 58.1528 21.5034L58.1563 33.0461C59.3907 33.3709 62.2562 32.8495 63.3693 33.1883Z" fill="#013A51"/>
<path fill-rule="evenodd" clip-rule="evenodd" d="M44.6944 28.2389L44.6909 25.2751L51.3806 25.2716C51.6088 24.7799 51.4806 23.219 51.4894 22.4008C51.4929 22.0005 51.5526 21.8038 51.37 21.4878L51.3683 25.1838C50.0883 25.1838 45.4986 25.0205 44.5944 25.2505C44.5557 25.6912 44.4293 27.8403 44.6944 28.2389Z" fill="#013A51"/>
<path fill-rule="evenodd" clip-rule="evenodd" d="M40.667 36.8564C41.034 37.09 44.3788 36.9671 44.6527 36.9109L44.6597 31.9771C44.4174 32.4055 44.5508 36.4034 44.5544 36.8564H40.667Z" fill="#013A51"/>
<path fill-rule="evenodd" clip-rule="evenodd" d="M78.8538 8.36485L76.2798 8.42455L76.2815 4.68994C76.2183 4.7988 76.2183 4.73032 76.1797 4.93049L76.1937 8.44913C76.8364 8.61944 78.3622 8.68792 78.8555 8.36485H78.8538Z" fill="white"/>
<path fill-rule="evenodd" clip-rule="evenodd" d="M72.3018 16.2801C72.4405 16.4873 72.0682 16.4311 72.6002 16.468L76.2154 16.461L76.2664 11.938C76.0925 12.2154 76.1593 12.5964 76.161 13.0161L76.1593 16.3591C75.2796 16.3591 73.0076 16.489 72.3018 16.2801Z" fill="#013A51"/>
</g>
<defs>
<clipPath id="clip0">
<rect width="134.442" height="36.5883" fill="white" transform="translate(0.402344 0.886719)"/>
</clipPath>
</defs>
</svg>
