<svg width="26" height="26" viewBox="0 0 26 26" fill="none" xmlns="http://www.w3.org/2000/svg">
<path d="M5.23612 4.72622L7.1868 17.4056C7.20099 17.5103 7.23068 17.61 7.27349 17.7024C7.40234 17.9807 7.64999 18.1926 7.95133 18.2733C8.04339 18.298 8.13987 18.3103 8.23855 18.3087H19.7149C20.1763 18.3087 20.5831 18.006 20.7156 17.5641L23.8501 7.11605C23.945 6.79971 23.8847 6.45713 23.6875 6.19216C23.4904 5.92718 23.1796 5.77103 22.8493 5.77103H7.51105L7.16742 3.53744C7.15455 3.44405 7.12933 3.3546 7.09348 3.27079C7.02839 3.11817 6.92873 2.98597 6.80562 2.88235C6.6914 2.78603 6.55624 2.71375 6.40794 2.67332C6.3146 2.64776 6.21667 2.63496 6.11647 2.63662H4.04285C3.46582 2.63662 2.99805 3.10439 2.99805 3.68142C2.99805 4.25845 3.46582 4.72622 4.04285 4.72622H5.23612ZM9.11844 16.2191L7.83253 7.86063H21.4451L18.9375 16.2191H9.11844Z" fill="white"/>
<path d="M11.3565 21.4431C11.3565 22.5971 10.4209 23.5327 9.26687 23.5327C8.11281 23.5327 7.17726 22.5971 7.17726 21.4431C7.17726 20.289 8.11281 19.3535 9.26687 19.3535C10.4209 19.3535 11.3565 20.289 11.3565 21.4431Z" fill="white"/>
<path d="M20.7597 21.4431C20.7597 22.5971 19.8242 23.5327 18.6701 23.5327C17.516 23.5327 16.5805 22.5971 16.5805 21.4431C16.5805 20.289 17.516 19.3535 18.6701 19.3535C19.8242 19.3535 20.7597 20.289 20.7597 21.4431Z" fill="white"/>
</svg>
