<svg width="36" height="36" viewBox="0 0 36 36" fill="none" xmlns="http://www.w3.org/2000/svg">
<path d="M17.9664 3.77881C26.0208 3.77881 32.5497 10.3078 32.5497 18.3621C32.5497 26.4165 26.0208 32.9455 17.9664 32.9455C9.91202 32.9455 3.38306 26.4165 3.38306 18.3621C3.38306 10.3078 9.91202 3.77881 17.9664 3.77881ZM10.962 22.2734L7.79014 25.4438C8.52582 26.4981 9.42014 27.4323 10.4414 28.2132L10.8862 28.5384L14.0551 25.3665C12.878 24.7073 11.8851 23.7631 11.1676 22.6205L10.9635 22.2734H10.962ZM24.9708 22.2734C24.3115 23.4506 23.3673 24.4434 22.2247 25.1609L21.8776 25.3651L25.0481 28.5384C26.1024 27.8027 27.0365 26.9084 27.8174 25.8871L28.1426 25.4438L24.9708 22.2734ZM17.9664 12.5288C16.4193 12.5288 14.9356 13.1434 13.8416 14.2374C12.7476 15.3313 12.1331 16.815 12.1331 18.3621C12.1331 19.9092 12.7476 21.393 13.8416 22.4869C14.9356 23.5809 16.4193 24.1955 17.9664 24.1955C19.5135 24.1955 20.9972 23.5809 22.0912 22.4869C23.1851 21.393 23.7997 19.9092 23.7997 18.3621C23.7997 16.815 23.1851 15.3313 22.0912 14.2374C20.9972 13.1434 19.5135 12.5288 17.9664 12.5288ZM10.8862 8.18589C9.83136 8.92145 8.8967 9.81578 8.11535 10.8371L7.79014 11.2819L10.962 14.4509C11.6213 13.2737 12.5655 12.2809 13.7081 11.5634L14.0551 11.3592L10.8862 8.18589ZM25.0466 8.18589L21.8776 11.3578C23.0548 12.017 24.0476 12.9612 24.7651 14.1038L24.9693 14.4509L28.1426 11.2819C27.4071 10.2271 26.5128 9.29245 25.4914 8.5111L25.0481 8.18589H25.0466Z" fill="#10B068"/>
</svg>
