<svg width="15" height="15" viewBox="0 0 15 15" fill="none" xmlns="http://www.w3.org/2000/svg">
<path d="M8.38097 7.50012L11.0685 4.81887C11.1862 4.70118 11.2523 4.54155 11.2523 4.37512C11.2523 4.20868 11.1862 4.04906 11.0685 3.93137C10.9508 3.81368 10.7912 3.74756 10.6247 3.74756C10.4583 3.74756 10.2987 3.81368 10.181 3.93137L7.49972 6.61887L4.81847 3.93137C4.70078 3.81368 4.54116 3.74756 4.37472 3.74756C4.20828 3.74756 4.04866 3.81368 3.93097 3.93137C3.81328 4.04906 3.74716 4.20868 3.74716 4.37512C3.74716 4.54155 3.81328 4.70118 3.93097 4.81887L6.61847 7.50012L3.93097 10.1814C3.87239 10.2395 3.82589 10.3086 3.79416 10.3848C3.76243 10.4609 3.74609 10.5426 3.74609 10.6251C3.74609 10.7076 3.76243 10.7893 3.79416 10.8655C3.82589 10.9416 3.87239 11.0108 3.93097 11.0689C3.98907 11.1274 4.0582 11.1739 4.13436 11.2057C4.21052 11.2374 4.29221 11.2537 4.37472 11.2537C4.45723 11.2537 4.53892 11.2374 4.61508 11.2057C4.69124 11.1739 4.76037 11.1274 4.81847 11.0689L7.49972 8.38137L10.181 11.0689C10.2391 11.1274 10.3082 11.1739 10.3844 11.2057C10.4605 11.2374 10.5422 11.2537 10.6247 11.2537C10.7072 11.2537 10.7889 11.2374 10.8651 11.2057C10.9412 11.1739 11.0104 11.1274 11.0685 11.0689C11.127 11.0108 11.1735 10.9416 11.2053 10.8655C11.237 10.7893 11.2533 10.7076 11.2533 10.6251C11.2533 10.5426 11.237 10.4609 11.2053 10.3848C11.1735 10.3086 11.127 10.2395 11.0685 10.1814L8.38097 7.50012Z" fill="#1A1A1A"/>
</svg>
