<svg width="22" height="28" viewBox="0 0 22 28" fill="none" xmlns="http://www.w3.org/2000/svg">
<path d="M21.0647 25.9694H0.909023C0.498242 25.9694 0.169617 26.298 0.169617 26.7088C0.169617 27.1196 0.498242 27.4482 0.909023 27.4482H21.0647C21.4755 27.4482 21.8041 27.1196 21.8041 26.7088C21.8041 26.298 21.4755 25.9694 21.0647 25.9694Z" fill="#10B068"/>
<path d="M10.4665 21.6259C10.6035 21.7629 10.7952 21.845 10.9869 21.845C11.1786 21.845 11.3703 21.7683 11.5072 21.6259L17.395 15.7381C17.6853 15.4478 17.6853 14.9822 17.395 14.6919C17.1048 14.4017 16.6392 14.4017 16.3489 14.6919L11.7263 19.3146V1.62362C11.7263 1.21284 11.3976 0.884216 10.9869 0.884216C10.5761 0.884216 10.2475 1.21284 10.2475 1.62362V19.3146L5.6248 14.6919C5.33451 14.4017 4.86896 14.4017 4.57868 14.6919C4.28839 14.9822 4.28839 15.4478 4.57868 15.7381L10.4665 21.6259Z" fill="#10B068"/>
</svg>
