<svg width="479" height="213" viewBox="0 0 479 213" fill="none" xmlns="http://www.w3.org/2000/svg">
<path d="M195.951 0L175.165 44.0805H-0.081665L20.7043 0H195.951ZM-41.6535 131.883C-38.3087 124.716 -33.6498 118.026 -27.6768 111.814C-21.4649 105.602 -14.6557 100.226 -7.24923 95.687C0.396172 90.9086 8.51942 87.2054 17.1205 84.5773C25.7216 81.9492 34.2032 80.6351 42.5653 80.6351H157.605L136.819 124.716H49.0162C42.5653 124.716 36.1145 126.627 29.6637 130.45C23.4518 134.272 19.0318 138.931 16.4037 144.426L4.93563 168.796H116.033L95.2469 212.518H-80L-41.6535 131.883Z" fill="white"/>
<path d="M479 0L378.296 212.518H313.788L360.735 113.964L276.516 212.518H218.817L228.135 113.964L181.546 212.518H117.038L217.742 0H296.585L283.684 136.542L400.157 0H479Z" fill="white"/>
</svg>
