<svg width="41" height="41" viewBox="0 0 41 41" fill="none" xmlns="http://www.w3.org/2000/svg">
<path d="M15.3102 6.76253V5.09587C15.3102 4.65384 15.4858 4.22992 15.7984 3.91735C16.1109 3.60479 16.5349 3.4292 16.9769 3.4292H23.6436C24.0856 3.4292 24.5095 3.60479 24.8221 3.91735C25.1346 4.22992 25.3102 4.65384 25.3102 5.09587V6.76253H30.3102C30.7523 6.76253 31.1762 6.93813 31.4887 7.25069C31.8013 7.56325 31.9769 7.98717 31.9769 8.4292V35.0959C31.9769 35.5379 31.8013 35.9618 31.4887 36.2744C31.1762 36.5869 30.7523 36.7625 30.3102 36.7625H10.3102C9.86819 36.7625 9.44427 36.5869 9.13171 36.2744C8.81915 35.9618 8.64355 35.5379 8.64355 35.0959V8.4292C8.64355 7.98717 8.81915 7.56325 9.13171 7.25069C9.44427 6.93813 9.86819 6.76253 10.3102 6.76253H15.3102ZM21.9769 20.0959V11.7625L13.6436 23.4292H18.6436V31.7625L26.9769 20.0959H21.9769Z" fill="#10B068"/>
</svg>
