<svg width="1685" height="182" viewBox="0 0 1685 182" fill="none" xmlns="http://www.w3.org/2000/svg">
<path d="M218.132 1.44988L219.163 1.91224L219.742 0.365793H218.024L218.132 1.44988ZM204.224 38.5957L204.332 39.6798H205.022L205.255 39.058L204.224 38.5957ZM55.818 38.5957L54.7866 38.1333L54.2076 39.6798H55.9258L55.818 38.5957ZM69.7257 1.44988L69.6179 0.365793H68.9272L68.6944 0.987508L69.7257 1.44988ZM27.9724 112.585L29.0026 113.051L29.0052 113.044L27.9724 112.585ZM38.1263 95.6733L37.2798 94.9068L37.273 94.9143L37.2663 94.922L38.1263 95.6733ZM54.0735 82.0834L54.7348 83.0078L54.7424 83.0027L54.0735 82.0834ZM192.417 69.3995L193.448 69.8619L194.027 68.3154H192.309L192.417 69.3995ZM178.509 106.545L178.617 107.629H179.307L179.54 107.008L178.509 106.545ZM88.2464 111.377L87.5983 110.445L87.5909 110.449L87.5836 110.454L88.2464 111.377ZM78.1888 123.155L77.1594 122.687L77.1571 122.694L78.1888 123.155ZM70.5197 143.691L69.488 143.229L68.9108 144.775H70.6275L70.5197 143.691ZM164.601 143.691L165.631 144.157L166.217 142.607H164.493L164.601 143.691ZM150.663 180.535L150.771 181.619H151.459L151.693 181L150.663 180.535ZM2.25743 180.535L1.22728 180.069L0.640824 181.619H2.36526L2.25743 180.535ZM217.1 0.987508L203.192 38.1333L205.255 39.058L219.163 1.91224L217.1 0.987508ZM204.116 37.5116H55.7101L55.9258 39.6798H204.332L204.116 37.5116ZM56.8493 39.058L70.7571 1.91224L68.6944 0.987508L54.7866 38.1333L56.8493 39.058ZM69.8336 2.53396H218.239L218.024 0.365793H69.6179L69.8336 2.53396ZM29.0052 113.044C31.1937 107.121 34.5167 101.581 38.9864 96.4247L37.2663 94.922C32.661 100.235 29.2147 105.97 26.9395 112.127L29.0052 113.044ZM38.9729 96.4399C43.6588 91.2648 48.9125 86.788 54.7347 83.0077L53.4123 81.1591C47.4513 85.0295 42.0735 89.6126 37.2798 94.9068L38.9729 96.4399ZM54.7424 83.0027C60.7407 79.0262 67.2262 75.9451 74.2011 73.7582L73.3581 71.6847C66.2061 73.9272 59.5542 77.0873 53.4047 81.1641L54.7424 83.0027ZM74.2011 73.7582C81.172 71.5726 88.139 70.4836 95.1047 70.4836L94.889 68.3154C87.6919 68.3154 80.5141 69.4411 73.3581 71.6847L74.2011 73.7582ZM95.1047 70.4836H192.524L192.309 68.3154H94.889L95.1047 70.4836ZM191.385 68.9371L177.477 106.083L179.54 107.008L193.448 69.8619L191.385 68.9371ZM178.401 105.461H104.046L104.262 107.629H178.617L178.401 105.461ZM104.046 105.461C98.3583 105.461 92.8729 107.14 87.5983 110.445L88.8946 112.31C93.9047 109.171 99.0245 107.629 104.262 107.629L104.046 105.461ZM87.5836 110.454C82.5095 113.763 79.0093 117.834 77.1594 122.687L79.2181 123.623C80.8983 119.215 84.1032 115.434 88.9092 112.301L87.5836 110.454ZM77.1571 122.694L69.488 143.229L71.5513 144.153L79.2204 123.617L77.1571 122.694ZM70.6275 144.775H164.709L164.493 142.607H70.4118L70.6275 144.775ZM163.571 143.226L149.633 180.069L151.693 181L165.631 144.157L163.571 143.226ZM150.555 179.451H50.7077L50.9234 181.619H150.771L150.555 179.451ZM50.7077 179.451H2.14961L2.36526 181.619H50.9234L50.7077 179.451ZM3.28759 181L29.0025 113.051L26.9422 112.12L1.22728 180.069L3.28759 181ZM421.41 1.44988L422.198 2.27547L424.263 0.365793H421.302L421.41 1.44988ZM324.413 91.1434L323.625 90.3178L323.163 90.7445L323.375 91.3861L324.413 91.1434ZM353.941 180.535L354.049 181.619H355.417L354.979 180.292L353.941 180.535ZM292.94 180.535L291.904 180.783L292.185 181.619H293.048L292.94 180.535ZM277.419 134.329L278.455 134.081L277.876 132.36L276.633 133.501L277.419 134.329ZM227.083 180.535L227.191 181.619H227.59L227.869 181.363L227.083 180.535ZM166.082 180.535L165.295 179.708L163.221 181.619H166.19L166.082 180.535ZM263.108 91.1434L263.895 91.9702L264.358 91.5439L264.146 90.9014L263.108 91.1434ZM233.55 1.44988L233.442 0.365793H232.075L232.512 1.69182L233.55 1.44988ZM294.551 1.44988L295.588 1.2031L295.308 0.365793H294.444L294.551 1.44988ZM310.103 47.9576L309.066 48.2044L309.645 49.9349L310.891 48.7833L310.103 47.9576ZM360.408 1.44988L360.301 0.365793H359.9L359.62 0.624207L360.408 1.44988ZM420.621 0.624279L323.625 90.3178L325.201 91.969L422.198 2.27547L420.621 0.624279ZM323.375 91.3861L352.904 180.778L354.979 180.292L325.451 90.9007L323.375 91.3861ZM353.833 179.451H292.832L293.048 181.619H354.049L353.833 179.451ZM293.976 180.287L278.455 134.081L276.383 134.577L291.904 180.783L293.976 180.287ZM276.633 133.501L226.297 179.707L227.869 181.363L278.204 135.157L276.633 133.501ZM226.975 179.451H165.974L166.19 181.619H227.191L226.975 179.451ZM166.869 181.362L263.895 91.9702L262.321 90.3166L165.295 179.708L166.869 181.362ZM264.146 90.9014L234.588 1.20793L232.512 1.69182L262.07 91.3853L264.146 90.9014ZM233.658 2.53396H294.659L294.444 0.365793H233.442L233.658 2.53396ZM293.515 1.69664L309.066 48.2044L311.139 47.7109L295.588 1.2031L293.515 1.69664ZM310.891 48.7833L361.196 2.27554L359.62 0.624207L309.315 47.132L310.891 48.7833ZM360.516 2.53396H421.517L421.302 0.365793H360.301L360.516 2.53396ZM475.995 38.5957L475.887 37.5116H475.196L474.964 38.1335L475.995 38.5957ZM436.676 143.691L435.645 143.229L435.066 144.775H436.784L436.676 143.691ZM520.742 143.691L521.772 144.157L522.359 142.607H520.634L520.742 143.691ZM506.804 180.535L506.912 181.619H507.601L507.835 181L506.804 180.535ZM400.253 177.213L399.913 178.205L399.92 178.208L399.928 178.211L400.253 177.213ZM387.516 168.153L386.661 168.744L386.681 168.77L386.703 168.796L387.516 168.153ZM381.915 154.563L380.831 154.605L380.831 154.606L381.915 154.563ZM384.179 137.651L383.148 137.186L383.146 137.193L384.179 137.651ZM435.579 1.44988L435.471 0.365793H434.782L434.548 0.985139L435.579 1.44988ZM574.273 1.44988L575.302 1.91873L575.896 0.365793H574.165L574.273 1.44988ZM560.062 38.5957L560.169 39.6798H560.855L561.09 39.0645L560.062 38.5957ZM474.964 38.1335L435.645 143.229L437.707 144.153L477.027 39.0578L474.964 38.1335ZM436.784 144.775H520.85L520.634 142.607H436.568L436.784 144.775ZM519.712 143.226L505.774 180.069L507.835 181L521.772 144.157L519.712 143.226ZM506.697 179.451H418.989L419.204 181.619H506.912L506.697 179.451ZM418.989 179.451C412.019 179.451 405.89 178.361 400.578 176.214L399.928 178.211C405.578 180.494 412.011 181.619 419.204 181.619L418.989 179.451ZM400.593 176.221C395.468 174.07 391.395 171.16 388.329 167.51L386.703 168.796C390.063 172.796 394.482 175.926 399.913 178.205L400.593 176.221ZM388.371 167.562C385.469 163.707 383.677 159.368 383 154.52L380.831 154.606C381.56 159.825 383.501 164.545 386.661 168.744L388.371 167.562ZM383 154.521C382.306 149.5 383.022 144.035 385.212 138.11L383.146 137.193C380.872 143.348 380.079 149.157 380.831 154.605L383 154.521ZM385.209 138.116L436.609 1.91461L434.548 0.985139L383.148 137.186L385.209 138.116ZM435.686 2.53396H574.381L574.165 0.365793H435.471L435.686 2.53396ZM573.244 0.981017L559.033 38.1268L561.09 39.0645L575.302 1.91873L573.244 0.981017ZM559.954 37.5116H475.887L476.103 39.6798H560.169L559.954 37.5116ZM611.993 143.691L610.961 143.229L610.383 144.775H612.101L611.993 143.691ZM680.581 143.691L681.611 144.157L682.197 142.607H680.473L680.581 143.691ZM666.643 180.535L666.751 181.619H667.439L667.673 181L666.643 180.535ZM543.427 180.535L542.396 180.071L541.814 181.619H543.535L543.427 180.535ZM600.792 28.0257L601.823 28.4895L602.028 27.9434L601.648 27.4364L600.792 28.0257ZM580.85 1.44988L580.742 0.365793H578.738L579.994 2.03923L580.85 1.44988ZM665.22 1.44988L666.251 1.91208L666.83 0.365793H665.112L665.22 1.44988ZM612.101 144.775H680.689L680.473 142.607H611.885L612.101 144.775ZM679.551 143.226L665.613 180.069L667.673 181L681.611 144.157L679.551 143.226ZM666.535 179.451H597.644L597.859 181.619H666.751L666.535 179.451ZM597.644 179.451H543.319L543.535 181.619H597.859L597.644 179.451ZM544.458 180.999L601.823 28.4895L599.761 27.562L542.396 180.071L544.458 180.999ZM601.648 27.4364L581.706 0.860518L579.994 2.03923L599.936 28.6151L601.648 27.4364ZM580.958 2.53396H611.003L610.787 0.365793H580.742L580.958 2.53396ZM611.003 2.53396H629.819L629.604 0.365793H610.787L611.003 2.53396ZM629.819 2.53396H665.328L665.112 0.365793H629.604L629.819 2.53396ZM664.188 0.987675L610.961 143.229L613.024 144.153L666.251 1.91208L664.188 0.987675ZM712.265 177.213L712.605 176.221L712.265 177.213ZM699.528 168.153L698.673 168.744L698.694 168.77L698.715 168.796L699.528 168.153ZM693.928 154.563L692.843 154.605L692.843 154.606L693.928 154.563ZM696.191 137.651L695.16 137.186L695.158 137.193L696.191 137.651ZM747.591 1.44988L747.483 0.365793H746.794L746.56 0.985139L747.591 1.44988ZM801.915 1.44988L802.946 1.91385L803.529 0.365793H801.807L801.915 1.44988ZM754.623 127.081L755.653 127.549L755.654 127.545L754.623 127.081ZM755.795 138.859L754.958 139.473L754.973 139.492L754.988 139.51L755.795 138.859ZM803.62 143.691L803.727 144.775H804.417L804.65 144.155L803.62 143.691ZM857.15 1.44988L857.042 0.365793H856.353L856.119 0.985974L857.15 1.44988ZM911.778 1.44988L912.809 1.9141L913.392 0.365793H911.67L911.778 1.44988ZM844.31 180.535L844.417 181.619H845.107L845.34 180.999L844.31 180.535ZM730.697 179.451C723.726 179.451 717.705 178.36 712.605 176.221L711.925 178.205C717.382 180.495 723.721 181.619 730.913 181.619L730.697 179.451ZM712.605 176.221C707.48 174.07 703.407 171.16 700.341 167.51L698.715 168.796C702.075 172.796 706.494 175.926 711.925 178.205L712.605 176.221ZM700.383 167.562C697.481 163.707 695.689 159.368 695.012 154.52L692.843 154.606C693.572 159.825 695.514 164.545 698.673 168.744L700.383 167.562ZM695.012 154.521C694.319 149.5 695.034 144.035 697.224 138.11L695.158 137.193C692.884 143.348 692.091 149.157 692.843 154.605L695.012 154.521ZM697.221 138.116L748.621 1.91461L746.56 0.985139L695.16 137.186L697.221 138.116ZM747.699 2.53396H802.023L801.807 0.365793H747.483L747.699 2.53396ZM800.884 0.985895L753.593 126.617L755.654 127.545L802.946 1.91385L800.884 0.985895ZM753.594 126.613C751.743 131.468 752.081 135.832 754.958 139.473L756.631 138.245C754.417 135.443 753.973 131.955 755.653 127.549L753.594 126.613ZM754.988 139.51C758.045 143.093 762.543 144.775 768.219 144.775L768.004 142.607C762.754 142.607 759.041 141.068 756.602 138.209L754.988 139.51ZM768.219 144.775H803.727L803.512 142.607H768.004L768.219 144.775ZM804.65 144.155L858.181 1.91378L856.119 0.985974L802.589 143.227L804.65 144.155ZM857.258 2.53396H911.886L911.67 0.365793H857.042L857.258 2.53396ZM910.747 0.985652L843.279 180.071L845.34 180.999L912.809 1.9141L910.747 0.985652ZM844.202 179.451H730.697L730.913 181.619H844.417L844.202 179.451ZM967.793 38.5957L967.686 37.5116H966.992L966.761 38.1372L967.793 38.5957ZM962.772 52.1856L961.739 51.7272L961.415 52.6037L962.294 53.1096L962.772 52.1856ZM992.435 69.7015L991.934 70.6122L992.435 69.7015ZM1020.22 86.6134L1020.73 85.7114L1020.73 85.7077L1020.22 86.6134ZM1033.07 102.921L1032.02 103.14L1033.07 102.921ZM1031.62 124.967L1030.59 124.492L1030.59 124.507L1030.58 124.521L1031.62 124.967ZM1028.3 134.329L1029.33 134.796L1029.33 134.786L1029.34 134.775L1028.3 134.329ZM1010.74 180.535L1010.85 181.619H1011.54L1011.77 181.002L1010.74 180.535ZM859.908 180.535L858.877 180.072L858.296 181.619H860.016L859.908 180.535ZM869.281 155.771L870.31 156.241L870.312 156.234L870.315 156.228L869.281 155.771ZM874.06 142.785L875.092 143.244L874.06 142.785ZM876.951 135.235L877.973 135.72L876.951 135.235ZM880.572 125.873L880.464 124.789H879.776L879.542 125.407L880.572 125.873ZM934.896 125.873L935.932 126.324L936.485 124.789H934.788L934.896 125.873ZM928.474 143.691L927.439 143.24L926.885 144.775H928.582L928.474 143.691ZM970.356 143.691L970.463 144.775H971.162L971.391 144.143L970.356 143.691ZM978.208 121.947L979.243 122.399L979.555 121.537L978.699 121.031L978.208 121.947ZM963.406 113.491L962.927 114.415L962.936 114.419L962.944 114.424L963.406 113.491ZM946.027 103.525L945.538 104.443L945.546 104.447L945.554 104.452L946.027 103.525ZM928.951 93.5594L928.445 94.4667L928.458 94.4748L928.472 94.4826L928.951 93.5594ZM914.423 84.8014L913.929 85.716L913.932 85.718L914.423 84.8014ZM905.117 73.6275L904.073 73.8486L904.076 73.8578L905.117 73.6275ZM906.013 58.2256L907.042 58.6959L907.044 58.6894L906.013 58.2256ZM927.377 1.44988L927.269 0.365793H926.579L926.346 0.986016L927.377 1.44988ZM1078.21 1.44988L1079.24 1.9135L1079.82 0.365793H1078.1L1078.21 1.44988ZM1057.09 57.6216L1056.12 58.0343L1057.29 60.3018L1058.12 58.0852L1057.09 57.6216ZM1050.09 48.2596L1049.36 48.9922L1049.36 48.9973L1050.09 48.2596ZM1040.32 41.6157L1039.91 42.575L1040.32 41.6157ZM966.761 38.1372L961.739 51.7272L963.805 52.644L968.826 39.0541L966.761 38.1372ZM962.294 53.1096C971.729 58.5408 981.609 64.3749 991.934 70.6122L992.935 68.7908C982.596 62.5455 972.701 56.7024 963.25 51.2616L962.294 53.1096ZM991.934 70.6122C1002.26 76.8522 1011.52 82.4878 1019.71 87.5191L1020.73 85.7077C1012.53 80.6724 1003.27 75.0334 992.935 68.7908L991.934 70.6122ZM1019.7 87.5154C1025.93 91.3906 1030.01 96.586 1032.02 103.14L1034.11 102.703C1031.93 95.5661 1027.45 89.8895 1020.73 85.7114L1019.7 87.5154ZM1032.02 103.14C1034.03 109.697 1033.59 116.801 1030.59 124.492L1032.65 125.442C1035.77 117.43 1036.3 109.836 1034.11 102.703L1032.02 103.14ZM1030.58 124.521L1027.26 133.883L1029.34 134.775L1032.66 125.413L1030.58 124.521ZM1027.27 133.862L1009.71 180.068L1011.77 181.002L1029.33 134.796L1027.27 133.862ZM1010.63 179.451H914.125L914.341 181.619H1010.85L1010.63 179.451ZM914.125 179.451H859.801L860.016 181.619H914.341L914.125 179.451ZM860.939 180.998C865.098 169.925 868.222 161.674 870.31 156.241L868.253 155.301C866.162 160.74 863.037 168.998 858.877 180.072L860.939 180.998ZM870.315 156.228C872.384 150.59 873.977 146.263 875.092 143.244L873.027 142.327C871.911 145.348 870.318 149.677 868.248 155.314L870.315 156.228ZM875.092 143.244C876.207 140.229 877.167 137.721 877.973 135.72L875.928 134.75C875.112 136.775 874.145 139.302 873.027 142.327L875.092 143.244ZM877.973 135.72C878.789 133.697 879.999 130.568 881.602 126.339L879.542 125.407C877.939 129.634 876.735 132.747 875.928 134.75L877.973 135.72ZM880.68 126.957H935.004L934.788 124.789H880.464L880.68 126.957ZM933.861 125.422L927.439 143.24L929.51 144.142L935.932 126.324L933.861 125.422ZM928.582 144.775H970.463L970.248 142.607H928.366L928.582 144.775ZM971.391 144.143L979.243 122.399L977.173 121.496L969.32 143.239L971.391 144.143ZM978.699 121.031C974.602 118.608 969.658 115.783 963.869 112.559L962.944 114.424C968.721 117.642 973.645 120.455 977.717 122.864L978.699 121.031ZM963.886 112.568C958.303 109.345 952.508 106.022 946.5 102.599L945.554 104.452C951.557 107.874 957.349 111.194 962.927 114.415L963.886 112.568ZM946.516 102.608C940.71 99.1834 935.014 95.8594 929.43 92.6361L928.472 94.4826C934.049 97.7019 939.738 101.022 945.538 104.443L946.516 102.608ZM929.457 92.652C923.853 89.2273 919.005 86.3048 914.913 83.8848L913.932 85.718C918.01 88.13 922.847 91.0461 928.445 94.4667L929.457 92.652ZM914.917 83.8868C910.415 81.2051 907.531 77.7134 906.159 73.3972L904.076 73.8578C905.648 78.8029 908.968 82.7605 913.929 85.716L914.917 83.8868ZM906.162 73.4064C904.756 68.856 905.016 63.9659 907.042 58.6959L904.985 57.7553C902.832 63.3571 902.493 68.735 904.073 73.8486L906.162 73.4064ZM907.044 58.6894L928.408 1.91373L926.346 0.986016L904.982 57.7617L907.044 58.6894ZM927.485 2.53396H1078.32L1078.1 0.365793H927.269L927.485 2.53396ZM1077.18 0.986248L1056.06 57.1579L1058.12 58.0852L1079.24 1.9135L1077.18 0.986248ZM1058.06 57.2088C1056.24 53.6616 1053.82 50.4318 1050.81 47.522L1049.36 48.9973C1052.18 51.7247 1054.43 54.7362 1056.12 58.0343L1058.06 57.2088ZM1050.82 47.5271C1048.24 44.995 1044.86 42.7103 1040.74 40.6563L1039.91 42.575C1043.87 44.5477 1047.01 46.6922 1049.36 48.9922L1050.82 47.5271ZM1040.74 40.6563C1036.47 38.5351 1031.23 37.5116 1025.04 37.5116L1025.26 39.6798C1031.22 39.6798 1036.08 40.6696 1039.91 42.575L1040.74 40.6563ZM1025.04 37.5116H967.686L967.901 39.6798H1025.26L1025.04 37.5116ZM1080.43 180.535L1080.54 181.619H1081.23L1081.46 180.999L1080.43 180.535ZM1026.1 180.535L1025.07 180.071L1024.49 181.619H1026.21L1026.1 180.535ZM1093.57 1.44988L1093.46 0.365793H1092.78L1092.54 0.985652L1093.57 1.44988ZM1147.9 1.44988L1148.93 1.9141L1149.51 0.365793H1147.79L1147.9 1.44988ZM1080.32 179.451H1026L1026.21 181.619H1080.54L1080.32 179.451ZM1027.13 180.999L1094.6 1.9141L1092.54 0.985652L1025.07 180.071L1027.13 180.999ZM1093.68 2.53396H1148L1147.79 0.365793H1093.46L1093.68 2.53396ZM1146.87 0.985652L1079.4 180.071L1081.46 180.999L1148.93 1.9141L1146.87 0.985652ZM1295.16 1.44988L1295.05 0.365793H1294.55L1294.26 0.747561L1295.16 1.44988ZM1353.13 1.44988L1354.03 2.15274L1355.38 0.365793H1353.02L1353.13 1.44988ZM1217.68 180.535L1217.78 181.619H1218.29L1218.58 181.238L1217.68 180.535ZM1159.71 180.535L1158.62 180.433L1158.62 181.619H1159.82L1159.71 180.535ZM1158.89 1.44988L1158.79 0.365793H1157.79L1157.8 1.34795L1158.89 1.44988ZM1216.86 1.44988L1217.95 1.55116L1217.95 0.365793H1216.75L1216.86 1.44988ZM1217.39 104.431L1216.3 104.33L1216.31 107.751L1218.29 105.134L1217.39 104.431ZM1295.27 2.53396H1353.23L1353.02 0.365793H1295.05L1295.27 2.53396ZM1352.23 0.747003L1216.78 179.832L1218.58 181.238L1354.03 2.15274L1352.23 0.747003ZM1217.57 179.451H1159.6L1159.82 181.619H1217.78L1217.57 179.451ZM1160.8 180.637L1159.99 1.5518L1157.8 1.34795L1158.62 180.433L1160.8 180.637ZM1159 2.53396H1216.97L1216.75 0.365793H1158.79L1159 2.53396ZM1215.76 1.34859L1216.3 104.33L1218.49 104.533L1217.95 1.55116L1215.76 1.34859ZM1218.29 105.134L1296.06 2.15219L1294.26 0.747561L1216.49 103.729L1218.29 105.134ZM1516.87 1.44988L1517.9 1.91224L1518.48 0.365793H1516.76L1516.87 1.44988ZM1502.96 38.5957L1503.07 39.6798H1503.76L1504 39.058L1502.96 38.5957ZM1354.56 38.5957L1353.53 38.1333L1352.95 39.6798H1354.67L1354.56 38.5957ZM1368.47 1.44988L1368.36 0.365793H1367.67L1367.43 0.987508L1368.47 1.44988ZM1326.71 112.585L1327.74 113.051L1327.75 113.044L1326.71 112.585ZM1336.87 95.6733L1336.02 94.9068L1336.01 94.9143L1336.01 94.922L1336.87 95.6733ZM1352.81 82.0834L1353.48 83.0078L1353.48 83.0027L1352.81 82.0834ZM1491.16 69.3995L1492.19 69.8619L1492.77 68.3154H1491.05L1491.16 69.3995ZM1477.25 106.545L1477.36 107.629H1478.05L1478.28 107.008L1477.25 106.545ZM1386.99 111.377L1386.34 110.445L1386.33 110.449L1386.32 110.454L1386.99 111.377ZM1376.93 123.155L1375.9 122.687L1375.9 122.694L1376.93 123.155ZM1369.26 143.691L1368.23 143.229L1367.65 144.775H1369.37L1369.26 143.691ZM1463.34 143.691L1464.37 144.157L1464.96 142.607H1463.23L1463.34 143.691ZM1449.4 180.535L1449.51 181.619H1450.2L1450.43 181L1449.4 180.535ZM1301 180.535L1299.97 180.069L1299.38 181.619H1301.11L1301 180.535ZM1515.84 0.987508L1501.93 38.1333L1504 39.058L1517.9 1.91224L1515.84 0.987508ZM1502.86 37.5116H1354.45L1354.67 39.6798H1503.07L1502.86 37.5116ZM1355.59 39.058L1369.5 1.91224L1367.43 0.987508L1353.53 38.1333L1355.59 39.058ZM1368.57 2.53396H1516.98L1516.76 0.365793H1368.36L1368.57 2.53396ZM1327.75 113.044C1329.93 107.121 1333.26 101.581 1337.73 96.4247L1336.01 94.922C1331.4 100.235 1327.96 105.97 1325.68 112.127L1327.75 113.044ZM1337.71 96.4399C1342.4 91.2648 1347.65 86.788 1353.48 83.0077L1352.15 81.1591C1346.19 85.0295 1340.81 89.6126 1336.02 94.9068L1337.71 96.4399ZM1353.48 83.0027C1359.48 79.0262 1365.97 75.9451 1372.94 73.7582L1372.1 71.6847C1364.95 73.9272 1358.29 77.0873 1352.15 81.1641L1353.48 83.0027ZM1372.94 73.7582C1379.91 71.5726 1386.88 70.4836 1393.85 70.4836L1393.63 68.3154C1386.43 68.3154 1379.25 69.4411 1372.1 71.6847L1372.94 73.7582ZM1393.85 70.4836H1491.27L1491.05 68.3154H1393.63L1393.85 70.4836ZM1490.13 68.9371L1476.22 106.083L1478.28 107.008L1492.19 69.8619L1490.13 68.9371ZM1477.14 105.461H1402.79L1403 107.629H1477.36L1477.14 105.461ZM1402.79 105.461C1397.1 105.461 1391.61 107.14 1386.34 110.445L1387.64 112.31C1392.65 109.171 1397.77 107.629 1403 107.629L1402.79 105.461ZM1386.32 110.454C1381.25 113.763 1377.75 117.834 1375.9 122.687L1377.96 123.623C1379.64 119.215 1382.84 115.434 1387.65 112.301L1386.32 110.454ZM1375.9 122.694L1368.23 143.229L1370.29 144.153L1377.96 123.617L1375.9 122.694ZM1369.37 144.775H1463.45L1463.23 142.607H1369.15L1369.37 144.775ZM1462.31 143.226L1448.37 180.069L1450.43 181L1464.37 144.157L1462.31 143.226ZM1449.3 179.451H1349.45L1349.66 181.619H1449.51L1449.3 179.451ZM1349.45 179.451H1300.89L1301.11 181.619H1349.66L1349.45 179.451ZM1302.03 181L1327.74 113.051L1325.68 112.12L1299.97 180.069L1302.03 181ZM1572.71 38.5957L1572.6 37.5116H1571.91L1571.67 38.1372L1572.71 38.5957ZM1567.69 52.1856L1566.65 51.7272L1566.33 52.6037L1567.21 53.1096L1567.69 52.1856ZM1597.35 69.7015L1596.85 70.6122L1597.35 69.7015ZM1625.13 86.6134L1625.65 85.7114L1625.64 85.7077L1625.13 86.6134ZM1637.98 102.921L1636.94 103.14L1637.98 102.921ZM1636.53 124.967L1635.51 124.492L1635.5 124.507L1635.5 124.521L1636.53 124.967ZM1633.22 134.329L1634.24 134.796L1634.25 134.786L1634.25 134.775L1633.22 134.329ZM1615.66 180.535L1615.76 181.619H1616.45L1616.69 181.002L1615.66 180.535ZM1464.82 180.535L1463.79 180.072L1463.21 181.619H1464.93L1464.82 180.535ZM1474.2 155.771L1475.22 156.241L1475.23 156.234L1475.23 156.228L1474.2 155.771ZM1478.97 142.785L1480.01 143.244L1478.97 142.785ZM1481.86 135.235L1482.89 135.72L1481.86 135.235ZM1485.49 125.873L1485.38 124.789H1484.69L1484.46 125.407L1485.49 125.873ZM1539.81 125.873L1540.85 126.324L1541.4 124.789H1539.7L1539.81 125.873ZM1533.39 143.691L1532.35 143.24L1531.8 144.775H1533.5L1533.39 143.691ZM1575.27 143.691L1575.38 144.775H1576.08L1576.3 144.143L1575.27 143.691ZM1583.12 121.947L1584.16 122.399L1584.47 121.537L1583.61 121.031L1583.12 121.947ZM1568.32 113.491L1567.84 114.415L1567.85 114.419L1567.86 114.424L1568.32 113.491ZM1550.94 103.525L1550.45 104.443L1550.46 104.447L1550.47 104.452L1550.94 103.525ZM1533.86 93.5594L1533.36 94.4667L1533.37 94.4748L1533.39 94.4826L1533.86 93.5594ZM1519.34 84.8014L1518.84 85.716L1518.85 85.718L1519.34 84.8014ZM1510.03 73.6275L1508.99 73.8486L1508.99 73.8578L1510.03 73.6275ZM1510.93 58.2256L1511.96 58.6959L1511.96 58.6894L1510.93 58.2256ZM1532.29 1.44988L1532.18 0.365793H1531.49L1531.26 0.986016L1532.29 1.44988ZM1683.12 1.44988L1684.16 1.9135L1684.74 0.365793H1683.02L1683.12 1.44988ZM1662 57.6216L1661.04 58.0343L1662.2 60.3018L1663.04 58.0852L1662 57.6216ZM1655 48.2596L1654.27 48.9922L1654.28 48.9973L1655 48.2596ZM1645.24 41.6157L1644.83 42.575L1645.24 41.6157ZM1571.67 38.1372L1566.65 51.7272L1568.72 52.644L1573.74 39.0541L1571.67 38.1372ZM1567.21 53.1096C1576.64 58.5408 1586.52 64.3749 1596.85 70.6122L1597.85 68.7908C1587.51 62.5455 1577.61 56.7024 1568.16 51.2616L1567.21 53.1096ZM1596.85 70.6122C1607.18 76.8522 1616.44 82.4878 1624.62 87.5191L1625.64 85.7077C1617.45 80.6724 1608.18 75.0334 1597.85 68.7908L1596.85 70.6122ZM1624.62 87.5154C1630.84 91.3906 1634.93 96.586 1636.94 103.14L1639.03 102.703C1636.84 95.5661 1632.36 89.8895 1625.65 85.7114L1624.62 87.5154ZM1636.94 103.14C1638.95 109.697 1638.51 116.801 1635.51 124.492L1637.56 125.442C1640.69 117.43 1641.21 109.836 1639.03 102.703L1636.94 103.14ZM1635.5 124.521L1632.18 133.883L1634.25 134.775L1637.57 125.413L1635.5 124.521ZM1632.19 133.862L1614.63 180.068L1616.69 181.002L1634.24 134.796L1632.19 133.862ZM1615.55 179.451H1519.04L1519.25 181.619H1615.76L1615.55 179.451ZM1519.04 179.451H1464.71L1464.93 181.619H1519.25L1519.04 179.451ZM1465.85 180.998C1470.01 169.925 1473.14 161.674 1475.22 156.241L1473.17 155.301C1471.08 160.74 1467.95 168.998 1463.79 180.072L1465.85 180.998ZM1475.23 156.228C1477.3 150.59 1478.89 146.263 1480.01 143.244L1477.94 142.327C1476.82 145.348 1475.23 149.677 1473.16 155.314L1475.23 156.228ZM1480.01 143.244C1481.12 140.229 1482.08 137.721 1482.89 135.72L1480.84 134.75C1480.03 136.775 1479.06 139.302 1477.94 142.327L1480.01 143.244ZM1482.89 135.72C1483.7 133.697 1484.91 130.568 1486.52 126.339L1484.46 125.407C1482.85 129.634 1481.65 132.747 1480.84 134.75L1482.89 135.72ZM1485.59 126.957H1539.92L1539.7 124.789H1485.38L1485.59 126.957ZM1538.77 125.422L1532.35 143.24L1534.42 144.142L1540.85 126.324L1538.77 125.422ZM1533.5 144.775H1575.38L1575.16 142.607H1533.28L1533.5 144.775ZM1576.3 144.143L1584.16 122.399L1582.09 121.496L1574.23 143.239L1576.3 144.143ZM1583.61 121.031C1579.52 118.608 1574.57 115.783 1568.78 112.559L1567.86 114.424C1573.63 117.642 1578.56 120.455 1582.63 122.864L1583.61 121.031ZM1568.8 112.568C1563.22 109.345 1557.42 106.022 1551.41 102.599L1550.47 104.452C1556.47 107.874 1562.26 111.194 1567.84 114.415L1568.8 112.568ZM1551.43 102.608C1545.62 99.1834 1539.93 95.8594 1534.34 92.6361L1533.39 94.4826C1538.96 97.7019 1544.65 101.022 1550.45 104.443L1551.43 102.608ZM1534.37 92.652C1528.77 89.2273 1523.92 86.3048 1519.83 83.8848L1518.85 85.718C1522.92 88.13 1527.76 91.0461 1533.36 94.4667L1534.37 92.652ZM1519.83 83.8868C1515.33 81.2051 1512.44 77.7134 1511.07 73.3972L1508.99 73.8578C1510.56 78.8029 1513.88 82.7605 1518.84 85.716L1519.83 83.8868ZM1511.08 73.4064C1509.67 68.856 1509.93 63.9659 1511.96 58.6959L1509.9 57.7553C1507.75 63.3571 1507.41 68.735 1508.99 73.8486L1511.08 73.4064ZM1511.96 58.6894L1533.32 1.91373L1531.26 0.986016L1509.9 57.7617L1511.96 58.6894ZM1532.4 2.53396H1683.23L1683.02 0.365793H1532.18L1532.4 2.53396ZM1682.09 0.986248L1660.97 57.1579L1663.04 58.0852L1684.16 1.9135L1682.09 0.986248ZM1662.97 57.2088C1661.15 53.6616 1658.73 50.4318 1655.73 47.522L1654.28 48.9973C1657.09 51.7247 1659.35 54.7362 1661.04 58.0343L1662.97 57.2088ZM1655.73 47.5271C1653.15 44.995 1649.78 42.7103 1645.65 40.6563L1644.83 42.575C1648.79 44.5477 1651.93 46.6922 1654.27 48.9922L1655.73 47.5271ZM1645.65 40.6563C1641.39 38.5351 1636.14 37.5116 1629.96 37.5116L1630.17 39.6798C1636.13 39.6798 1641 40.6696 1644.83 42.575L1645.65 40.6563ZM1629.96 37.5116H1572.6L1572.82 39.6798H1630.17L1629.96 37.5116Z" fill="#10B068"/>
</svg>
