<svg width="248" height="53" viewBox="0 0 248 53" fill="none" xmlns="http://www.w3.org/2000/svg">
<circle cx="25.9384" cy="26.1474" r="25.9384" fill="#10B068"/>
<path d="M26.6178 18.6992L25.1669 21.7762H12.934L14.385 18.6992H26.6178ZM10.0322 27.9051C10.2657 27.4048 10.5909 26.9378 11.0078 26.5042C11.4414 26.0706 11.9167 25.6954 12.4337 25.3785C12.9674 25.0449 13.5344 24.7865 14.1348 24.603C14.7352 24.4195 15.3272 24.3278 15.9109 24.3278H23.9411L22.4902 27.4048H16.3612C15.9109 27.4048 15.4607 27.5382 15.0104 27.805C14.5768 28.0719 14.2682 28.3971 14.0848 28.7807L13.2843 30.4818H21.0392L19.5883 33.5337H7.35547L10.0322 27.9051Z" fill="white"/>
<path d="M46.3756 18.6992L39.3461 33.5337H34.8432L38.1203 26.6543L32.2415 33.5337H28.2139L28.8644 26.6543L25.6123 33.5337H21.1094L28.1389 18.6992H33.6424L32.7418 28.2303L40.872 18.6992H46.3756Z" fill="white"/>
<path d="M83.2481 15.6182L81.222 19.9149H64.1397L66.1658 15.6182H83.2481ZM60.0875 28.4735C60.4135 27.7749 60.8676 27.1228 61.4498 26.5173C62.0554 25.9118 62.7191 25.3878 63.441 24.9453C64.1863 24.4795 64.9781 24.1186 65.8165 23.8624C66.6549 23.6062 67.4816 23.4781 68.2967 23.4781H79.5103L77.4841 27.7749H68.9255C68.2967 27.7749 67.6679 27.9612 67.0391 28.3338C66.4336 28.7064 66.0028 29.1606 65.7466 29.6962L64.6288 32.0717H75.458L73.4319 36.3335H56.3496L60.0875 28.4735Z" fill="white"/>
<path d="M118.48 15.6182L108.664 36.3335H102.376L106.952 26.7269L98.7428 36.3335H93.1186L94.0269 26.7269L89.4856 36.3335H83.1976L93.0138 15.6182H100.699L99.4415 28.9277L110.795 15.6182H118.48Z" fill="white"/>
<path d="M134.551 15.6182C135.366 15.6182 136.064 15.7463 136.647 16.0024C137.252 16.2586 137.706 16.6196 138.009 17.0854C138.335 17.5278 138.51 18.0518 138.533 18.6573C138.556 19.2629 138.405 19.9149 138.079 20.6136L132.979 31.373C132.653 32.0717 132.187 32.7237 131.581 33.3293C130.999 33.9115 130.335 34.4355 129.59 34.9012C128.845 35.3437 128.053 35.6931 127.215 35.9492C126.376 36.2054 125.55 36.3335 124.734 36.3335H116.49C115.722 36.3335 115.035 36.2171 114.429 35.9842C113.847 35.728 113.393 35.367 113.067 34.9012C112.368 33.9231 112.345 32.747 112.997 31.373L118.097 20.5787C118.423 19.9033 118.877 19.2629 119.46 18.6573C120.065 18.0518 120.74 17.5278 121.486 17.0854C122.231 16.6196 123.011 16.2586 123.826 16.0024C124.665 15.7463 125.491 15.6182 126.306 15.6182H134.551ZM124.106 32.0717C124.734 32.0717 125.352 31.8853 125.957 31.5127C126.586 31.1401 127.028 30.686 127.285 30.1503L131.197 21.8363C131.453 21.3006 131.453 20.8465 131.197 20.4739C130.941 20.1012 130.498 19.9149 129.87 19.9149H126.97C126.341 19.9149 125.713 20.1012 125.084 20.4739C124.478 20.8465 124.047 21.3006 123.791 21.8363L119.844 30.1503C119.588 30.686 119.588 31.1401 119.844 31.5127C120.123 31.8853 120.577 32.0717 121.206 32.0717H124.106Z" fill="white"/>
<path d="M160.176 15.6182L158.15 19.9149H152.561L144.77 36.3335H138.517L146.273 19.9149H140.683L142.709 15.6182H160.176Z" fill="white"/>
<path d="M176.238 15.6182C177.053 15.6182 177.752 15.7463 178.334 16.0024C178.94 16.2586 179.394 16.6196 179.697 17.0854C180.023 17.5278 180.197 18.0518 180.221 18.6573C180.244 19.2629 180.093 19.9149 179.767 20.6136L174.666 31.373C174.34 32.0717 173.875 32.7237 173.269 33.3293C172.687 33.9115 172.023 34.4355 171.278 34.9012C170.533 35.3437 169.741 35.6931 168.902 35.9492C168.064 36.2054 167.237 36.3335 166.422 36.3335H158.178C157.409 36.3335 156.722 36.2171 156.117 35.9842C155.535 35.728 155.081 35.367 154.755 34.9012C154.056 33.9231 154.033 32.747 154.685 31.373L159.785 20.5787C160.111 19.9033 160.565 19.2629 161.147 18.6573C161.753 18.0518 162.428 17.5278 163.173 17.0854C163.919 16.6196 164.699 16.2586 165.514 16.0024C166.352 15.7463 167.179 15.6182 167.994 15.6182H176.238ZM165.793 32.0717C166.422 32.0717 167.039 31.8853 167.645 31.5127C168.274 31.1401 168.716 30.686 168.972 30.1503L172.885 21.8363C173.141 21.3006 173.141 20.8465 172.885 20.4739C172.629 20.1012 172.186 19.9149 171.557 19.9149H168.658C168.029 19.9149 167.4 20.1012 166.772 20.4739C166.166 20.8465 165.735 21.3006 165.479 21.8363L161.532 30.1503C161.275 30.686 161.275 31.1401 161.532 31.5127C161.811 31.8853 162.265 32.0717 162.894 32.0717H165.793Z" fill="white"/>
<path d="M200.012 22.8144C199.686 23.4898 199.22 24.1302 198.615 24.7357C198.033 25.3412 197.369 25.8769 196.624 26.3426C195.879 26.7851 195.087 27.1344 194.248 27.3906C193.41 27.6468 192.595 27.7749 191.803 27.7749H191L193.585 36.3335H187.192L184.851 28.7181L181.253 36.3335H174.965C175.035 36.1938 175.186 35.891 175.419 35.4252C175.629 34.9595 175.897 34.4005 176.223 33.7484C176.526 33.0964 176.863 32.3744 177.236 31.5826C177.609 30.7908 177.981 29.999 178.354 29.2071C178.726 28.4153 179.087 27.6584 179.437 26.9365C179.786 26.1913 180.089 25.5392 180.345 24.9802C180.694 24.2583 180.927 23.7576 181.044 23.4781H191.978C192.443 23.4781 192.909 23.3384 193.375 23.0589C193.841 22.7795 194.167 22.4418 194.353 22.0459L194.668 21.3472C194.854 20.9513 194.842 20.6136 194.633 20.3341C194.446 20.0547 194.12 19.9149 193.654 19.9149H182.755L184.781 15.6182H197.567C198.359 15.6182 199.046 15.7463 199.628 16.0024C200.234 16.2586 200.688 16.6196 200.99 17.0854C201.316 17.5278 201.491 18.0518 201.514 18.6573C201.538 19.2629 201.386 19.9033 201.06 20.5787L200.012 22.8144Z" fill="white"/>
<path d="M220.6 15.6182L218.644 36.3335H211.972L213.09 24.4213L202.959 36.3335H196.287L211.343 18.6923L209.352 15.6182H220.6Z" fill="white"/>
<path d="M243.212 15.6182C244.004 15.6182 244.691 15.7463 245.273 16.0024C245.879 16.2586 246.333 16.6196 246.635 17.0854C246.961 17.5278 247.136 18.0518 247.159 18.6573C247.183 19.2629 247.031 19.9033 246.705 20.5787C246.449 21.1376 246.076 21.9061 245.587 22.8843C245.122 23.8624 244.633 24.8987 244.12 25.9933C243.631 27.0646 243.154 28.0893 242.688 29.0674C242.222 30.0455 241.861 30.8141 241.605 31.373C241.279 32.0717 240.813 32.7237 240.208 33.3293C239.626 33.9115 238.962 34.4355 238.217 34.9012C237.471 35.3437 236.679 35.6931 235.841 35.9492C235.003 36.2054 234.188 36.3335 233.396 36.3335H220.61C220.727 36.0773 220.948 35.6232 221.274 34.9711C221.577 34.319 221.938 33.5621 222.357 32.7005C222.753 31.8155 223.184 30.8956 223.649 29.9407C224.115 28.9626 224.546 28.0427 224.942 27.181C225.361 26.3193 225.722 25.5508 226.025 24.8754C226.351 24.2001 226.572 23.7343 226.689 23.4781H232.977L228.924 32.0717H235.003C235.189 31.6525 235.434 31.1168 235.736 30.4647C236.062 29.8127 236.4 29.1023 236.749 28.3338C237.122 27.5653 237.506 26.7735 237.902 25.9584C238.298 25.12 238.671 24.3282 239.02 23.5829C239.393 22.8144 239.73 22.1157 240.033 21.4869C240.336 20.8348 240.58 20.3108 240.767 19.9149H228.4L230.426 15.6182H243.212Z" fill="white"/>
</svg>
