<svg width="41" height="40" viewBox="0 0 41 40" fill="none" xmlns="http://www.w3.org/2000/svg">
<path d="M30.9172 28.94L20.3106 39.5467L9.70389 28.94C7.60612 26.8422 6.17752 24.1695 5.59876 21.2598C5.02 18.3501 5.31706 15.3341 6.45238 12.5932C7.5877 9.85232 9.51029 7.50965 11.977 5.86144C14.4438 4.21323 17.3438 3.3335 20.3106 3.3335C23.2773 3.3335 26.1774 4.21323 28.6441 5.86144C31.1108 7.50965 33.0334 9.85232 34.1687 12.5932C35.3041 15.3341 35.6011 18.3501 35.0224 21.2598C34.4436 24.1695 33.015 26.8422 30.9172 28.94ZM18.6439 16.6667H13.6439V20H18.6439V25H21.9772V20H26.9772V16.6667H21.9772V11.6667H18.6439V16.6667Z" fill="#10B068"/>
</svg>
