<svg width="63" height="63" viewBox="0 0 63 63" fill="none" xmlns="http://www.w3.org/2000/svg">
<path d="M54.8739 8.1254V13.3196C54.8739 23.3599 46.7346 31.4992 36.6943 31.4992H34.0972V34.0962H47.0826V52.2758C47.0826 55.1456 44.7582 57.47 41.8885 57.47H21.1118C18.242 57.47 15.9176 55.1456 15.9176 52.2758V34.0962H28.903V26.305C28.903 16.2647 37.0423 8.1254 47.0826 8.1254H54.8739ZM14.6191 5.52832C21.1871 5.52832 26.9942 8.77727 30.5236 13.7585C27.8746 17.2412 26.306 21.5913 26.306 26.305V28.9021H25.0074C14.2503 28.9021 5.5293 20.1811 5.5293 9.42395V5.52832H14.6191Z" fill="#11B051"/>
</svg>
