<svg width="35" height="35" viewBox="0 0 35 35" fill="none" xmlns="http://www.w3.org/2000/svg">
<path d="M13.6064 16.7708H16.771C18.5115 16.7708 20.1807 17.4622 21.4114 18.693C22.6421 19.9237 23.3335 21.5929 23.3335 23.3333H13.1237L13.1252 24.7917H24.7918V23.3333C24.7872 21.7816 24.3389 20.2636 23.4997 18.9583H27.7085C29.087 18.958 30.4374 19.3483 31.603 20.0842C32.7687 20.8201 33.7019 21.8714 34.2943 23.116C30.8454 27.6675 25.2614 30.625 18.9585 30.625C14.932 30.625 11.521 29.7646 8.75016 28.2552V14.6869C10.5244 14.941 12.1998 15.66 13.6064 16.7708ZM5.8335 13.125C6.19069 13.1251 6.53545 13.2562 6.80237 13.4935C7.0693 13.7309 7.23983 14.058 7.28162 14.4127L7.29183 14.5833V27.7083C7.29183 28.0951 7.13818 28.466 6.86469 28.7395C6.5912 29.013 6.22027 29.1667 5.8335 29.1667H2.91683C2.53006 29.1667 2.15912 29.013 1.88563 28.7395C1.61214 28.466 1.4585 28.0951 1.4585 27.7083V14.5833C1.4585 14.1966 1.61214 13.8256 1.88563 13.5521C2.15912 13.2787 2.53006 13.125 2.91683 13.125H5.8335ZM19.9006 5.21355L20.4168 5.73126L20.9331 5.21501C21.2711 4.87408 21.6732 4.60327 22.1162 4.41815C22.5592 4.23302 23.0344 4.13721 23.5145 4.13623C23.9946 4.13525 24.4702 4.22911 24.914 4.41242C25.3577 4.59573 25.7609 4.86488 26.1003 5.20443C26.4398 5.54397 26.7088 5.94722 26.892 6.39102C27.0752 6.83482 27.1689 7.31043 27.1678 7.79055C27.1667 8.27067 27.0707 8.74584 26.8855 9.18878C26.7002 9.63172 26.4293 10.0337 26.0883 10.3717L20.4168 16.0417L14.7439 10.3688C14.403 10.0307 14.1322 9.62864 13.9471 9.18564C13.7619 8.74265 13.6661 8.26745 13.6651 7.78733C13.6642 7.30721 13.758 6.83163 13.9413 6.38788C14.1246 5.94413 14.3938 5.54096 14.7333 5.20151C15.0729 4.86206 15.4761 4.59302 15.9199 4.40983C16.3637 4.22665 16.8393 4.13292 17.3195 4.13404C17.7996 4.13516 18.2747 4.2311 18.7177 4.41635C19.1606 4.60161 19.5626 4.87252 19.9006 5.21355Z" fill="#10B068"/>
</svg>
