<svg width="117" height="38" viewBox="0 0 117 38" fill="none" xmlns="http://www.w3.org/2000/svg">
<g clip-path="url(#clip0)">
<path d="M104.848 20.274C108.787 20.274 111.979 17.0815 111.979 13.1434C111.979 9.2052 108.787 6.0127 104.848 6.0127C100.91 6.0127 97.7178 9.2052 97.7178 13.1434C97.7178 17.0815 100.91 20.274 104.848 20.274Z" fill="#1A1A1A" stroke="black" stroke-width="0.860619" stroke-miterlimit="10"/>
<path d="M111.974 11.4441L111.888 11.2879L109.184 12.7875L108.434 12.3718L110.568 10.6221L111.669 10.5092L111.652 10.3313L110.821 10.4131L111.467 9.88673L111.352 9.74493L110.487 10.4467L107.733 10.7351L107.973 9.91316L110.953 9.04796L110.902 8.87492L108.035 9.69686L108.862 6.81287L108.689 6.7624L107.824 9.74252L107.002 9.98286L107.29 7.22865L107.992 6.36345L107.85 6.24809L107.322 6.89699L107.406 6.06784L107.228 6.04862L107.117 7.16616L105.368 9.31233L104.954 8.56249L106.454 5.84433L106.295 5.75781L104.853 8.37503L103.411 5.75781L103.253 5.84433L104.738 8.54807L104.322 9.29791L102.57 7.15174L102.46 6.04862L102.279 6.06784L102.361 6.89699L101.835 6.25049L101.695 6.36585L102.397 7.23105L102.686 9.98526L101.852 9.74493L100.986 6.76481L100.813 6.81527L101.645 9.69926L98.7609 8.87012L98.7104 9.04316L101.691 9.90835L101.931 10.7303L99.1743 10.4419L98.3091 9.74252L98.1937 9.88192L98.8402 10.4106L98.0327 10.3217L98.0159 10.4996L99.1166 10.6125L101.26 12.3621L100.525 12.7683L97.8092 11.271L97.7227 11.4297L100.337 12.8717L97.7227 14.3136L97.8092 14.4723L100.525 12.9774L101.275 13.3884L99.131 15.1428L98.0279 15.2509L98.0471 15.4336L98.8787 15.3495L98.2177 15.8782L98.3331 16.0152L99.1983 15.3158L101.953 15.0274L101.712 15.8494L98.7345 16.7146L98.7825 16.8876L101.667 16.0585L100.813 18.9425L100.986 18.9929L101.852 16.0128L102.674 15.7725L102.385 18.5267L101.681 19.3919L101.823 19.5072L102.349 18.8583L102.267 19.6899L102.445 19.7091L102.558 18.6084L104.308 16.4622L104.721 17.2121L103.221 19.9278L103.38 20.0143L104.822 17.3995L106.264 20.0143L106.418 19.9278L104.918 17.2121L105.334 16.4622L107.086 18.6084L107.197 19.7091L107.377 19.6923L107.293 18.8607L107.821 19.5072L107.958 19.3919L107.261 18.5267L106.973 15.7773L107.797 16.0176L108.663 18.9953L108.836 18.9473L108.023 16.0777L110.907 16.9068L110.958 16.7338L107.982 15.8686L107.742 15.0515L110.496 15.3399L111.359 16.0416L111.474 15.8998L110.83 15.3711L111.66 15.4552L111.676 15.2774L110.576 15.1644L108.434 13.4124L109.184 12.9894L111.897 14.4891L111.984 14.3305L109.367 12.8885L111.974 11.4441ZM110.244 10.6534L108.254 12.278L107.939 12.105C107.865 11.8063 107.747 11.5203 107.588 11.2566L107.689 10.9105L110.244 10.6534ZM107.492 14.8472H107.372L107.456 14.7318L107.492 14.8472ZM106.805 15.5177L106.677 15.4817L106.793 15.3951L106.805 15.5177ZM107.454 11.0499L107.382 10.9514H107.502L107.454 11.0499ZM106.786 10.353L106.67 10.2689L106.798 10.2328L106.786 10.353ZM108.004 13.2898L108.095 13.3691L107.98 13.4316C107.985 13.3839 107.993 13.3365 108.004 13.2898ZM107.99 12.3453L108.105 12.4078L108.009 12.4823C108.012 12.4358 108.005 12.3892 107.99 12.3453ZM107.776 9.96844L107.547 10.7495L107.237 10.7808C107.146 10.6798 107.05 10.5837 106.949 10.4924L106.98 10.1823L107.776 9.96844ZM107.084 7.49782L106.824 10.055L106.478 10.1535C106.214 9.99414 105.928 9.87507 105.63 9.80021L105.457 9.48777L107.084 7.49782ZM105.401 9.74973L105.262 9.72811L105.339 9.63438L105.401 9.74973ZM104.863 8.74034L105.245 9.46134L105.046 9.70167H104.656L104.459 9.46134L104.863 8.74034ZM104.382 9.62236L104.459 9.71849L104.32 9.73772L104.382 9.62236ZM102.246 14.7126L102.33 14.828H102.207L102.246 14.7126ZM102.21 10.9202H102.332L102.246 11.0355L102.21 10.9202ZM102.899 10.2304L103.027 10.2689C102.986 10.2953 102.95 10.3241 102.911 10.353L102.899 10.2304ZM101.698 12.4679L101.602 12.391L101.717 12.3261C101.72 12.3742 101.714 12.4224 101.698 12.4679ZM101.717 13.4292L101.602 13.3643L101.698 13.2898C101.695 13.3371 101.701 13.3845 101.717 13.4292ZM102.919 15.4072C102.957 15.436 102.993 15.4648 103.034 15.4913L102.907 15.5273L102.919 15.4072ZM102.63 7.47619L104.257 9.46614L104.084 9.77857C103.785 9.85448 103.498 9.97348 103.233 10.1319L102.887 10.0309L102.63 7.47619ZM101.938 9.9444L102.719 10.1679L102.75 10.4827C102.652 10.5718 102.56 10.6682 102.476 10.7711L102.164 10.7399L101.938 9.9444ZM99.4506 10.651L102.005 10.9081L102.104 11.2542C101.947 11.5182 101.828 11.803 101.751 12.1002L101.438 12.2732L99.4506 10.651ZM100.705 12.8861L101.426 12.4895L101.667 12.689V13.0807L101.426 13.2778L100.705 12.8861ZM99.4482 15.1212L101.438 13.5061L101.751 13.6792C101.827 13.9769 101.946 14.2619 102.104 14.5251L102.003 14.8712L99.4482 15.1212ZM101.916 15.8133L102.157 15.0298L102.467 14.9986C102.556 15.0972 102.652 15.1888 102.755 15.2726L102.724 15.5874L101.916 15.8133ZM102.609 18.2815L102.866 15.7268L103.212 15.6283C103.481 15.7879 103.773 15.9062 104.077 15.9792L104.25 16.294L102.609 18.2815ZM104.291 16.0296L104.433 16.0488L104.353 16.145L104.291 16.0296ZM104.868 17.027L104.476 16.306L104.673 16.0657H105.062L105.262 16.306L104.868 17.027ZM105.348 16.145L105.274 16.0488L105.413 16.0296L105.348 16.145ZM107.1 18.2839L105.473 16.294L105.646 15.9792C105.945 15.9046 106.231 15.7864 106.495 15.6283L106.841 15.7292L107.1 18.2839ZM107.778 15.8133L106.992 15.585L106.961 15.2726C107.063 15.1825 107.159 15.0862 107.249 14.9842L107.562 15.013L107.778 15.8133ZM110.246 15.1212L107.692 14.864L107.591 14.5179C107.75 14.2486 107.868 13.957 107.942 13.6527L108.256 13.4797L110.246 15.1212ZM108.276 13.2778L108.035 13.0807V12.6914L108.276 12.4919L108.997 12.8885L108.276 13.2778Z" fill="black"/>
<path d="M0.402344 37.0624L1.60401 33.2339H3.31758L2.43797 36.0386H4.87013C5.03549 36.0549 5.20138 36.0135 5.33976 35.9216C5.47815 35.8296 5.58053 35.6926 5.62957 35.5339L6.31452 33.3493C6.3378 33.2927 6.35083 33.2325 6.35298 33.1714C6.37701 33.0104 6.20398 32.8662 5.96845 32.8494H1.73859L2.05824 31.8184H6.51881C7.64837 31.8184 8.20113 32.1428 8.20113 32.7484C8.19675 32.8878 8.17412 33.0259 8.13383 33.1594L7.32151 35.7214C7.1725 36.5409 6.09583 37.1345 4.88455 37.0648L0.402344 37.0624Z" fill="#1A1A1A"/>
<path d="M12.7073 37.0612L13.2288 35.3453C13.2425 35.3082 13.2507 35.2693 13.2529 35.2299C13.2529 35.1362 13.1615 35.1073 12.9332 35.1073H10.4362L9.83293 37.0612H8.10254L9.3042 33.2159H11.0394L10.7198 34.2301H13.0967C13.4283 34.2301 13.5052 34.1749 13.5773 33.9586L13.8489 33.1054C13.8629 33.0659 13.871 33.0246 13.8729 32.9828C13.8729 32.8578 13.772 32.829 13.522 32.829H9.4364L9.75364 31.8052H14.6564C15.4447 31.8052 15.7788 31.9998 15.7788 32.3868C15.7738 32.4962 15.7544 32.6045 15.7211 32.7088L15.3654 33.848C15.2909 34.2638 14.7958 34.5834 14.1806 34.6123C14.6612 34.6363 15.0457 34.7468 15.0457 35.0713C15.0497 35.1292 15.0416 35.1874 15.0217 35.2419L14.4665 37.0636L12.7073 37.0612Z" fill="#1A1A1A"/>
<path d="M15.7041 37.0614L17.3336 31.8149H19.0664L17.4321 37.0614H15.7041Z" fill="#1A1A1A"/>
<path d="M20.6717 37.0614L19.9219 31.8149H21.7124L22.1449 35.641L25.077 31.8149H26.7954L22.6256 37.0614H20.6717Z" fill="#1A1A1A"/>
<path d="M25.9424 37.0614L27.144 33.2161H28.9345L28.6581 34.0693H31.5085L31.2489 34.9032H28.3986L28.0597 36.0039H31.994L31.6767 37.0518L25.9424 37.0614ZM27.2522 32.8388L27.5718 31.8149H33.2725L32.9529 32.8388H27.2522Z" fill="#1A1A1A"/>
<path d="M38.0937 37.0614L38.769 34.8984L37.2285 31.8149H39.043L40.0044 33.8842L42.237 31.8149H43.9698L40.5163 34.8984L39.8433 37.0614H38.0937Z" fill="#1A1A1A"/>
<path d="M44.2068 37.0613C43.4329 37.0613 43.1133 36.8738 43.1133 36.4941C43.1156 36.3742 43.1384 36.2555 43.1806 36.1432L44.2068 32.7209C44.4015 32.1032 44.8244 31.8076 45.8026 31.8076H49.6479C50.4146 31.8076 50.7318 31.9927 50.7318 32.3796C50.7314 32.495 50.7152 32.6098 50.6837 32.7209L49.6263 36.1432C49.4292 36.7633 48.999 37.0613 48.0281 37.0613H44.2068ZM48.8476 33.1391C48.8524 33.0983 48.8524 33.0572 48.8476 33.0165C48.8476 32.8843 48.7347 32.8386 48.4487 32.8386H46.2857C45.9901 32.8386 45.8771 32.9059 45.805 33.1391L44.9831 35.7491C44.9807 35.7827 44.9807 35.8164 44.9831 35.85C44.9831 35.9654 45.0744 36.0134 45.3123 36.0134H47.4753C47.8406 36.0134 47.956 35.9365 48.0209 35.7491L48.8476 33.1391Z" fill="#1A1A1A"/>
<path d="M51.8329 37.0614C51.0494 37.0614 50.7394 36.874 50.7394 36.4846C50.7372 36.3683 50.7568 36.2525 50.7971 36.1434L52.1406 31.8174H53.8758L52.6549 35.7372C52.6355 35.7822 52.6241 35.8301 52.6212 35.879C52.6212 35.992 52.7246 36.016 52.9625 36.016H55.2432C55.5389 36.016 55.6662 35.9679 55.7239 35.7372L56.9448 31.8174H58.6103L57.2765 36.1434C57.0866 36.7634 56.6492 37.0614 55.6807 37.0614H51.8329Z" fill="#1A1A1A"/>
<path d="M62.8358 37.0612L63.3622 35.3453C63.367 35.307 63.367 35.2682 63.3622 35.2299C63.3622 35.1362 63.2684 35.1073 63.0401 35.1073H60.5455L59.9422 37.0612H58.207L59.4087 33.2159H61.1415L60.8339 34.2301H63.2083C63.5352 34.2301 63.6169 34.1749 63.689 33.9586L63.963 33.1054C63.9678 33.0647 63.9678 33.0235 63.963 32.9828C63.963 32.8578 63.8596 32.829 63.6073 32.829H59.5216L59.8389 31.8052H64.7417C65.5324 31.8052 65.8592 31.9998 65.8592 32.3868C65.859 32.4967 65.8394 32.6057 65.8015 32.7088L65.4506 33.848C65.3761 34.2638 64.8787 34.5858 64.2634 34.6147C64.7441 34.6363 65.1334 34.7468 65.1334 35.0713C65.1362 35.1292 65.1281 35.1871 65.1094 35.2419L64.547 37.0636L62.8358 37.0612Z" fill="#1A1A1A"/>
<path d="M71.2059 35.3693L70.682 37.0516H68.9492L70.1509 33.2063H71.8837L71.504 34.408H73.8808C74.1644 34.408 74.2461 34.3455 74.3255 34.1076L74.6547 33.0741C74.6595 33.039 74.6595 33.0035 74.6547 32.9684C74.6547 32.8578 74.5634 32.829 74.3447 32.829H70.2326L70.5498 31.8052H75.3853C76.1592 31.8052 76.4692 31.9902 76.4692 32.3772C76.4744 32.4891 76.4663 32.6012 76.4452 32.7112L75.9092 34.4392C75.7146 35.0593 75.2916 35.3525 74.311 35.3525L71.2059 35.3693Z" fill="#1A1A1A"/>
<path d="M80.2243 37.0614L80.1498 36.2467H77.3643L76.7683 37.0614H75.0859L79.0995 31.8149H81.3706L81.9643 37.0614H80.2243ZM79.8493 32.8652L77.982 35.3743H80.0921L79.8493 32.8652Z" fill="#1A1A1A"/>
<path d="M82.7539 37.0614L83.0735 36.0376H87.1928C87.4644 36.0376 87.5774 35.9751 87.6351 35.7829L87.8634 35.0619C87.8706 35.0343 87.8706 35.0053 87.8634 34.9778C87.8634 34.8744 87.7817 34.836 87.5654 34.836H84.5228C83.9051 34.836 83.6311 34.6437 83.6311 34.3192C83.6334 34.2425 83.6463 34.1665 83.6696 34.0933L84.1142 32.7306C84.3089 32.113 84.7222 31.8174 85.7268 31.8174H90.5094L90.2018 32.8148H86.1162C85.8758 32.8148 85.7821 32.8797 85.7268 33.0551L85.5129 33.7448C85.4981 33.7765 85.49 33.8109 85.4889 33.8458C85.4889 33.9299 85.5538 33.9611 85.7292 33.9611H88.8175C89.4448 33.9611 89.7211 34.1558 89.7211 34.4875C89.7191 34.5611 89.7061 34.634 89.6827 34.7038L89.2405 36.1458C89.0458 36.7658 88.6228 37.0638 87.6447 37.0638L82.7539 37.0614Z" fill="#1A1A1A"/>
<path d="M90.1182 37.0614L90.4402 36.0376H94.5643C94.8407 36.0376 94.9536 35.9751 95.0113 35.7829L95.2396 35.0619C95.2446 35.034 95.2446 35.0056 95.2396 34.9778C95.2396 34.8744 95.1579 34.836 94.944 34.836H91.899C91.2814 34.836 91.0122 34.6437 91.0122 34.3192C91.0119 34.2428 91.0225 34.1668 91.0434 34.0933L91.4664 32.7306C91.6611 32.113 92.0697 31.8174 93.0718 31.8174H97.8785L97.5685 32.8148H93.4612C93.2209 32.8148 93.1319 32.8797 93.0743 33.0551L92.8555 33.7448C92.8531 33.7784 92.8531 33.8122 92.8555 33.8458C92.8555 33.9299 92.9276 33.9611 93.0959 33.9611H96.1842C96.8114 33.9611 97.0878 34.1558 97.0878 34.4875C97.086 34.5607 97.0747 34.6334 97.0542 34.7038L96.5735 36.1458C96.3788 36.7658 95.9606 37.0638 94.9777 37.0638L90.1182 37.0614Z" fill="#1A1A1A"/>
<path d="M97.5537 37.0614L99.1832 31.8149H100.916L99.2865 37.0614H97.5537Z" fill="#1A1A1A"/>
<path d="M101.854 37.0613C101.08 37.0613 100.763 36.8738 100.763 36.4941C100.767 36.3746 100.789 36.2563 100.828 36.1432L101.892 32.7209C102.082 32.1032 102.505 31.8076 103.488 31.8076H107.333C108.093 31.8076 108.415 31.9927 108.415 32.3796C108.412 32.4954 108.394 32.6102 108.36 32.7209L107.295 36.1432C107.105 36.7633 106.668 37.0613 105.699 37.0613H101.854ZM106.497 33.1391C106.502 33.0983 106.502 33.0572 106.497 33.0165C106.497 32.8843 106.382 32.8386 106.098 32.8386H103.969C103.671 32.8386 103.555 32.9059 103.488 33.1391L102.666 35.7491C102.661 35.7825 102.661 35.8165 102.666 35.85C102.666 35.9654 102.757 36.0134 103 36.0134H105.163C105.528 36.0134 105.644 35.9365 105.716 35.7491L106.497 33.1391Z" fill="#1A1A1A"/>
<path d="M113.8 37.0614L110.883 33.6198L109.809 37.0614H108.203L109.833 31.8149H111.467L114 34.9393L114.961 31.8149H116.581L114.971 37.0614H113.8Z" fill="#1A1A1A"/>
<path d="M109.234 12.8454C109.236 13.4233 109.123 13.9958 108.903 14.5301C108.683 15.0645 108.36 15.5503 107.952 15.9599C107.544 16.3694 107.06 16.6946 106.527 16.9169C105.993 17.1392 105.421 17.2543 104.843 17.2555C103.677 17.2542 102.558 16.7898 101.733 15.9642C100.909 15.1387 100.445 14.0195 100.445 12.8526C100.446 11.6862 100.909 10.5676 101.734 9.74257C102.559 8.91753 103.677 8.45342 104.843 8.45215C106.01 8.45215 107.13 8.91577 107.955 9.74102C108.78 10.5663 109.244 11.6856 109.244 12.8526" fill="black"/>
<path d="M108.862 12.8452C108.862 13.916 108.436 14.943 107.679 15.7002C106.922 16.4574 105.895 16.8828 104.824 16.8828C103.754 16.8821 102.727 16.4565 101.971 15.6994C101.214 14.9422 100.789 13.9156 100.789 12.8452C100.789 11.7748 101.214 10.7482 101.971 9.99105C102.727 9.23392 103.754 8.80825 104.824 8.80762C105.895 8.80762 106.922 9.233 107.679 9.9902C108.436 10.7474 108.862 11.7744 108.862 12.8452Z" fill="#1A1A1A"/>
<path d="M107.23 10.0453C107.325 10.1735 107.401 10.3153 107.455 10.4659C107.567 10.7254 107.572 11.0186 107.468 11.2813C107.363 11.5439 107.159 11.7546 106.9 11.8671C106.754 11.9307 106.596 11.9603 106.436 11.9536C106.196 11.9536 105.956 11.8911 105.715 11.8959C105.378 11.9241 105.051 12.0223 104.754 12.1843C104.326 12.4077 103.865 12.5618 103.389 12.6409C103.027 12.7152 102.651 12.6723 102.315 12.5184C101.928 12.3141 101.68 11.9416 101.32 11.718C101.171 12.1806 101.115 12.6678 101.155 13.152C101.195 13.6361 101.33 14.1077 101.552 14.5398C101.774 14.9719 102.079 15.356 102.449 15.6701C102.82 15.9843 103.248 16.2224 103.711 16.3709C104.174 16.5188 104.662 16.5739 105.146 16.5331C105.63 16.4923 106.102 16.3565 106.534 16.1332C106.965 15.91 107.349 15.6038 107.662 15.2322C107.975 14.8606 108.212 14.4308 108.359 13.9676C108.578 13.2751 108.589 12.5334 108.389 11.8351C108.19 11.1367 107.789 10.5126 107.237 10.0405" fill="#1A1A1A"/>
<path d="M105.796 12.8456C105.796 13.1006 105.694 13.3451 105.514 13.5254C105.334 13.7057 105.089 13.8069 104.834 13.8069C104.579 13.8069 104.335 13.7057 104.155 13.5254C103.974 13.3451 103.873 13.1006 103.873 12.8456C103.873 12.5906 103.974 12.3461 104.155 12.1658C104.335 11.9856 104.579 11.8843 104.834 11.8843C105.089 11.8843 105.334 11.9856 105.514 12.1658C105.694 12.3461 105.796 12.5906 105.796 12.8456Z" fill="#1A1A1A"/>
<path d="M105.343 9.67781C105.474 9.83676 105.567 10.0227 105.617 10.2222C105.667 10.4217 105.672 10.6298 105.632 10.8314C105.91 10.4038 106.123 9.93726 106.264 9.44709C105.814 9.25925 105.331 9.16128 104.843 9.15869H104.512C104.83 9.25959 105.118 9.43607 105.353 9.673" fill="black"/>
<path d="M107.954 10.8647C107.995 11.0108 108.013 11.1623 108.009 11.3141C108.026 11.4906 108.003 11.6687 107.942 11.8352C107.881 12.0016 107.783 12.1521 107.656 12.2754C107.31 12.5302 106.79 12.41 106.408 12.386C106.209 12.386 106.021 12.3643 105.831 12.3643C105.896 12.4958 105.935 12.6387 105.945 12.785C105.954 12.9313 105.935 13.0781 105.888 13.2169C105.841 13.3558 105.767 13.484 105.67 13.5942C105.573 13.7044 105.456 13.7945 105.324 13.8592C105.193 13.9243 105.05 13.9629 104.904 13.9727C104.758 13.9826 104.611 13.9635 104.472 13.9167C104.334 13.8698 104.205 13.796 104.095 13.6996C103.985 13.6031 103.894 13.4859 103.829 13.3545C103.769 13.2319 103.731 13.0991 103.719 12.9628C103.576 13.015 103.428 13.0497 103.277 13.0661C103.085 13.0876 102.89 13.0681 102.706 13.0089C102.522 12.9496 102.353 12.852 102.21 12.7224C101.912 12.4778 101.568 12.297 101.198 12.1913C101.025 13.1525 101.24 14.1429 101.795 14.9462C102.35 15.7496 103.201 16.3006 104.161 16.4788C105.125 16.6563 106.119 16.4438 106.926 15.8881C107.733 15.3324 108.286 14.479 108.463 13.5155V13.5035C108.631 12.5887 108.447 11.6441 107.946 10.8599" fill="black"/>
<path d="M107.454 14.4939C107.165 14.4434 107.028 14.2271 106.834 14.0397C106.679 13.8958 106.497 13.7832 106.3 13.708C106.158 13.9683 105.949 14.1858 105.694 14.3377C106 14.8183 106.302 15.299 106.617 15.7797C107.13 15.4644 107.553 15.0214 107.843 14.4939C107.716 14.518 107.585 14.518 107.458 14.4939" fill="#1A1A1A"/>
<path d="M105.113 16.2651C105.307 16.2493 105.5 16.2163 105.689 16.1666C105.516 15.6259 105.346 15.0851 105.182 14.5396L105.012 14.5684C105.055 15.1452 105.065 15.7004 105.105 16.2651" fill="#1A1A1A"/>
<path d="M104.281 14.4769C104.072 14.7846 103.8 15.073 103.572 15.359L103.173 15.8396C103.642 16.1015 104.167 16.2481 104.704 16.2674C104.718 15.6906 104.733 15.133 104.737 14.5659C104.582 14.5545 104.428 14.5222 104.281 14.4697" fill="#1A1A1A"/>
<path d="M105.512 12.8452C105.512 13.025 105.44 13.1973 105.313 13.3244C105.186 13.4515 105.014 13.523 104.834 13.523C104.654 13.523 104.482 13.4515 104.355 13.3244C104.228 13.1973 104.156 13.025 104.156 12.8452C104.156 12.6655 104.228 12.4931 104.355 12.366C104.482 12.2389 104.654 12.1675 104.834 12.1675C105.014 12.1675 105.186 12.2389 105.313 12.366C105.44 12.4931 105.512 12.6655 105.512 12.8452Z" fill="black"/>
<path d="M2.35641 11.1912L0.412109 13.8349L0.510654 14.0872H4.79578V18.7737C4.79578 20.6699 4.59631 21.5664 2.00312 24.8084L2.14972 25.0944H8.83096L11.6813 23.2102V14.0752H15.5266V22.2032L18.5332 25.0872H18.8168L22.3617 22.744V22.4604L20.0809 20.7492V5.90389L20.6097 1.8663L20.3693 1.7149L15.5242 4.40902V11.1912H11.6981V1.81824H10.7007V21.9677H8.60264L5.22357 23.0132L5.12263 22.8666C8.91268 19.1606 9.01121 18.6752 9.01121 16.8799V1.96003L8.77088 1.82064L6.92513 2.02012L4.28147 1.82064C2.98368 1.82064 2.28671 2.06098 1.63781 2.67623C1.35318 2.96374 1.13059 3.30662 0.983838 3.68364C0.837083 4.06065 0.769291 4.46378 0.784636 4.86806C0.789096 5.41517 0.943721 5.95056 1.23165 6.4158H1.58014C1.56014 6.23805 1.57622 6.0581 1.62743 5.88672C1.67864 5.71534 1.76391 5.55606 1.87815 5.41842C2.23864 5.05071 2.59915 4.95698 3.53404 4.95698H5.37979L7.82156 3.61112L7.9225 3.70965C4.92075 7.74964 4.81981 8.05246 4.81981 10.8379V11.1912H2.35641ZM29.1535 8.54755L28.954 8.26396C27.6214 8.72671 26.4144 9.49266 25.4283 10.5015C24.6803 11.2566 24.0891 12.1522 23.6886 13.1368C23.2881 14.1213 23.0862 15.1753 23.0947 16.2382C23.0947 18.8314 24.193 21.1746 25.5893 22.5709C27.2717 24.2821 29.5813 25.2146 32.4316 25.2146C35.3156 25.2146 37.767 24.1692 39.3147 22.619C40.6101 21.326 41.4585 19.4947 41.4585 17.7739L41.1076 17.7258C40.413 19.1222 39.0648 20.319 37.32 21.0184V6.0577H37.5194C39.5142 6.0577 41.0115 5.00985 41.658 1.01072L41.3167 0.916992C40.4611 2.11865 39.9228 2.35899 38.0746 2.35899C35.3853 2.35899 32.2922 1.71009 30.3479 1.71009C27.7523 1.71009 26.1085 2.30852 25.0606 3.35636C24.655 3.74893 24.3332 4.2197 24.1146 4.74018C23.8961 5.26067 23.7854 5.82007 23.7892 6.38455C23.8061 7.0839 23.941 7.77538 24.1882 8.42978H24.6352C24.6731 7.73778 24.9589 7.08256 25.4403 6.58403C26.1902 5.83419 27.2356 5.38237 29.8312 5.38237C31.1684 5.42752 32.5011 5.56079 33.8207 5.78132V5.90389L30.2878 7.81213V19.5307L29.4875 20.5786H29.4323C29.1607 20.3895 28.9094 20.1728 28.6824 19.9321C27.5408 18.7905 26.6372 16.8366 26.6372 14.4429C26.6365 13.3434 26.8568 12.255 27.2849 11.2423C27.7131 10.2295 28.3403 9.31317 29.1294 8.54755H29.1535ZM34.0394 7.15122L35.3372 5.94955L36.3346 6.00002V21.3597C35.4925 21.6049 34.6184 21.7224 33.7414 21.7081C32.5548 21.7352 31.3772 21.4962 30.295 21.0088V20.9175L34.0346 18.8842L34.0394 7.15122Z" fill="#1A1A1A"/>
<path d="M65.7634 19.6614V13.0955L64.0331 11.5982L71.8823 8.84883V18.4381C71.8823 21.0048 72.0962 22.0142 73.6127 22.0142C74.1449 21.9971 74.6708 21.894 75.1701 21.709V12.9417L73.4397 11.4444L81.2889 8.69742V24.0595H82.8174V24.5401H75.1773V22.1777C73.1585 23.6437 71.4281 24.8646 69.6977 24.8646C66.9531 24.891 65.7634 23.2952 65.7634 19.6614ZM84.7954 18.7433V10.0745H82.4449V10.0457L90.9022 3.38847V9.58905H95.2066V10.0697H90.8974V17.2004C90.8974 20.7525 91.7217 22.0503 93.9833 22.0503C94.6007 22.0639 95.2143 21.9502 95.7858 21.7162L95.817 21.7451C94.6875 23.5476 92.6711 24.8694 89.8616 24.8694C86.2253 24.8694 84.7906 22.7328 84.7906 18.7601L84.7954 18.7433ZM54.3116 24.5497V24.0691H56.8159L54.3909 18.3275H47.366L45.5034 24.0691H48.6494V24.5497H41.8984V24.0691H43.1506L52.8624 1.9585H54.451L64.134 24.0691H65.5375V24.5497H54.3116ZM47.539 17.7676H54.1698L50.423 8.91131L47.539 17.7676Z" fill="#EE4427"/>
<path d="M104.86 24.8645C101.751 24.8671 98.7686 23.6348 96.5679 21.4386C94.3672 19.2425 93.1288 16.2622 93.125 13.1531C93.1256 10.0443 94.3611 7.06304 96.5596 4.86499C98.7581 2.66694 101.74 1.43213 104.848 1.43213C107.955 1.43531 110.933 2.67161 113.129 4.86938C115.324 7.06715 116.557 10.0466 116.557 13.1531C116.554 16.2587 115.32 19.2363 113.125 21.4334C110.93 23.6305 107.954 24.8678 104.848 24.8742L104.86 24.8645ZM104.848 6.02248C102.957 6.02248 101.144 6.77374 99.8063 8.111C98.469 9.44826 97.7178 11.262 97.7178 13.1531C97.7178 15.0443 98.469 16.858 99.8063 18.1953C101.144 19.5325 102.957 20.2838 104.848 20.2838C105.785 20.2838 106.712 20.0993 107.577 19.741C108.442 19.3826 109.228 18.8573 109.89 18.1951C110.552 17.533 111.077 16.7469 111.435 15.8817C111.793 15.0166 111.977 14.0894 111.977 13.1531C111.975 11.263 111.223 9.45074 109.887 8.11396C108.551 6.77718 106.739 6.02502 104.848 6.02248Z" fill="#EE4427"/>
<path d="M104.857 5.11134C103.803 5.10976 102.759 5.3159 101.784 5.718C100.81 6.12009 99.9236 6.71025 99.1771 7.45477C98.4306 8.1993 97.838 9.0836 97.4333 10.0572C97.0286 11.0307 96.8196 12.0745 96.8184 13.1288V13.1457C96.8184 15.2748 97.664 17.3168 99.1693 18.8225C100.675 20.3283 102.716 21.1745 104.845 21.1752H104.857C106.985 21.172 109.024 20.3246 110.527 18.8191C112.031 17.3136 112.875 15.2731 112.875 13.1457C112.876 11.0173 112.032 8.97559 110.529 7.46907C109.026 5.96255 106.986 5.11452 104.857 5.11134ZM104.857 20.5311C102.898 20.5311 101.019 19.7527 99.6335 18.3672C98.248 16.9817 97.4697 15.1026 97.4697 13.1432C97.4703 11.1843 98.2489 9.30579 99.6344 7.92082C101.02 6.53586 102.899 5.75783 104.857 5.75783C106.817 5.75783 108.696 6.53619 110.081 7.92167C111.467 9.30716 112.245 11.1863 112.245 13.1457C112.245 14.1158 112.054 15.0765 111.683 15.9728C111.312 16.8692 110.767 17.6836 110.081 18.3696C109.395 19.0556 108.581 19.5998 107.685 19.9711C106.788 20.3424 105.828 20.5335 104.857 20.5335" fill="#1A1A1A"/>
</g>
<defs>
<clipPath id="clip0">
<rect width="116.167" height="36.146" fill="white" transform="translate(0.402344 0.927246)"/>
</clipPath>
</defs>
</svg>
