<svg width="40" height="40" viewBox="0 0 40 40" fill="none" xmlns="http://www.w3.org/2000/svg">
<path d="M6.66683 20.0002H11.6668C12.5509 20.0002 13.3987 20.3514 14.0239 20.9765C14.649 21.6016 15.0002 22.4494 15.0002 23.3335V31.6668C15.0002 32.5509 14.649 33.3987 14.0239 34.0239C13.3987 34.649 12.5509 35.0002 11.6668 35.0002H6.66683C5.78277 35.0002 4.93493 34.649 4.30981 34.0239C3.68469 33.3987 3.3335 32.5509 3.3335 31.6668V20.0002C3.3335 10.7952 10.7952 3.3335 20.0002 3.3335C29.2052 3.3335 36.6668 10.7952 36.6668 20.0002V31.6668C36.6668 32.5509 36.3156 33.3987 35.6905 34.0239C35.0654 34.649 34.2176 35.0002 33.3335 35.0002H28.3335C27.4494 35.0002 26.6016 34.649 25.9765 34.0239C25.3514 33.3987 25.0002 32.5509 25.0002 31.6668V23.3335C25.0002 22.4494 25.3514 21.6016 25.9765 20.9765C26.6016 20.3514 27.4494 20.0002 28.3335 20.0002H33.3335C33.3335 16.4639 31.9287 13.0726 29.4283 10.5721C26.9278 8.07159 23.5364 6.66683 20.0002 6.66683C16.4639 6.66683 13.0726 8.07159 10.5721 10.5721C8.07159 13.0726 6.66683 16.4639 6.66683 20.0002Z" fill="#10B068"/>
</svg>
