<svg width="181" height="19" viewBox="0 0 181 19" fill="none" xmlns="http://www.w3.org/2000/svg">
<g clip-path="url(#clip0)">
<path fill-rule="evenodd" clip-rule="evenodd" d="M29.5106 1.79248H17.2655L15.9961 6.34382H16.5492C18.4126 3.35086 19.0678 2.47822 20.7673 2.47822H22.0572L19.5795 14.2824C19.3335 15.4465 18.9858 15.5711 17.3475 15.758L17.2245 16.3818H23.4901L23.6332 15.758C22.1794 15.6125 21.7292 15.5088 21.9953 14.2824L24.4524 2.47822H25.9678C27.6673 2.47822 27.3063 3.35126 27.8184 6.34382H28.351L29.5106 1.79248Z" fill="#1A1A1A"/>
<path fill-rule="evenodd" clip-rule="evenodd" d="M36.8487 15.0503C36.6646 15.0503 36.5621 14.9466 36.5621 14.7388C36.5621 14.5724 36.6441 14.219 36.7462 13.8452L38.3432 7.7769C38.4047 7.46539 38.4662 7.09117 38.4662 6.82105C38.4662 5.8652 38.0976 5.28317 37.0738 5.28317C35.1079 5.28317 32.8147 8.04742 31.6064 10.4165L34.1661 0.108398H33.859L30.2756 0.939642L30.194 1.27206L31.5043 1.91639L27.9619 16.3812H30.194L30.9312 13.4091C31.8319 9.73081 34.6577 6.77965 35.825 6.77965C36.0911 6.77965 36.1935 6.92516 36.1935 7.21617C36.1935 7.38258 36.1525 7.6318 36.0911 7.88141L34.6167 13.2845C34.4121 14.0534 34.3301 14.5728 34.3301 15.0511C34.3301 15.9655 34.8422 16.589 35.743 16.589C36.8692 16.589 37.7089 15.6954 38.9988 13.7833L38.6507 13.5132C37.7704 14.6146 37.2378 15.0511 36.8487 15.0511V15.0503Z" fill="#1A1A1A"/>
<path fill-rule="evenodd" clip-rule="evenodd" d="M47.9245 7.3871C47.9245 6.24394 47.1258 5.28809 45.3648 5.28809C42.0478 5.28809 39.2627 9.11189 39.2627 12.7488C39.2627 15.0556 40.5321 16.5935 42.6411 16.5935C44.4431 16.5935 45.8355 15.5544 47.1459 13.6009L46.7568 13.289C45.7535 14.5773 44.7912 15.2634 43.6239 15.2634C42.293 15.2634 41.4944 14.2035 41.4944 12.3332C41.4944 12.0835 41.5149 11.8134 41.5354 11.5642C44.8113 10.899 47.924 10.0054 47.924 7.3871H47.9245ZM45.0167 5.97382C45.7334 5.97382 46.02 6.51405 46.02 7.17929C46.02 9.21599 44.5456 10.3592 41.5969 11.0658C41.9654 8.55116 43.3783 5.97422 45.0163 5.97422L45.0167 5.97382Z" fill="#1A1A1A"/>
<path fill-rule="evenodd" clip-rule="evenodd" d="M56.0282 3.89149C56.2742 2.72783 56.5403 2.60322 58.0552 2.41591L58.1987 1.79248H52.3217L52.1987 2.41591C53.53 2.58232 53.8777 2.66553 53.6116 3.89149L51.4206 14.2824C51.1955 15.4465 50.9085 15.5711 49.3935 15.758L49.25 16.3818H55.127L55.2701 15.758C53.9187 15.592 53.5706 15.5088 53.8367 14.2824L56.0274 3.89149H56.0282Z" fill="#1A1A1A"/>
<path fill-rule="evenodd" clip-rule="evenodd" d="M65.1046 15.0556C64.9205 15.0556 64.818 14.9515 64.818 14.7437C64.818 14.5773 64.9 14.2243 65.0021 13.8501L66.5991 7.78181C66.6606 7.4703 66.7221 7.09608 66.7221 6.82597C66.7221 5.86971 66.3535 5.28809 65.3297 5.28809C63.3642 5.28809 61.0706 8.07283 59.8422 10.4215L61.2141 5.28809H60.907L57.3441 6.18163L57.2826 6.49355L58.4908 7.17928L56.2178 16.3861H58.4498L59.187 13.414C60.0878 9.73532 62.9136 6.78456 64.0809 6.78456C64.3469 6.78456 64.4494 6.93007 64.4494 7.22068C64.4494 7.38709 64.3879 7.63631 64.3264 7.88592L62.8726 13.2894C62.668 14.0583 62.586 14.5777 62.586 15.056C62.586 15.9704 63.0981 16.5939 63.9989 16.5939C65.1251 16.5939 65.9648 15.7003 67.2547 13.7882L66.9066 13.5181C66.0259 14.6195 65.4937 15.056 65.1046 15.056V15.0556Z" fill="#1A1A1A"/>
<path fill-rule="evenodd" clip-rule="evenodd" d="M76.3249 15.0507C76.1408 15.0507 76.0383 14.947 76.0383 14.7392C76.0383 14.5728 76.1203 14.2194 76.2228 13.8456L79.5607 0.108398H79.2741L75.6701 0.939642L75.6086 1.27206L76.919 1.91639L75.9157 5.96891C75.3836 5.47008 74.8715 5.28317 74.0117 5.28317C70.8173 5.28317 67.5205 9.21108 67.5205 13.4923C67.5205 15.404 68.3397 16.589 69.7526 16.589C71.4315 16.589 73.459 14.1366 74.6669 11.4765C74.2987 12.5779 73.8477 14.4486 73.8477 15.0511C73.8477 15.9864 74.3188 16.589 75.2196 16.589C76.3458 16.589 77.1851 15.6954 78.4754 13.7833L78.1273 13.5132C77.247 14.6146 76.7144 15.0511 76.3253 15.0511L76.3249 15.0507ZM70.7144 14.9884C70.0388 14.9884 69.7928 14.2612 69.7928 13.2218C69.7928 9.97962 71.8198 5.9271 74.2159 5.9271C74.8916 5.9271 75.4647 6.32182 75.7107 6.94566C74.523 11.8503 72.2093 14.9884 70.7144 14.9884Z" fill="#1A1A1A"/>
<path fill-rule="evenodd" clip-rule="evenodd" d="M94.0594 13.5162C93.1586 14.6175 92.626 15.0541 92.2574 15.0541C92.0734 15.0541 91.9708 14.9503 91.9708 14.7421C91.9708 14.5757 92.0524 14.2228 92.1344 13.8486L93.6498 7.57246L94.387 5.14062H93.8954L92.2164 6.15918C91.6634 5.59805 91.0287 5.28613 90.0664 5.28613C86.8516 5.28613 83.6777 9.21404 83.6777 13.4953C83.6777 15.407 84.4764 16.5919 85.8893 16.5919C87.5683 16.5919 89.2882 14.3679 90.517 11.7287C90.1279 12.8091 89.7593 14.4511 89.7593 15.0536C89.7593 15.9886 90.2505 16.5915 91.1517 16.5915C92.2574 16.5915 93.1172 15.698 94.4075 13.7859L94.0594 13.5158V13.5162ZM86.8516 14.9917C86.2169 14.9917 85.9299 14.3478 85.9299 13.3498C85.9299 9.85838 87.9569 5.93047 90.2505 5.93047C90.9262 5.93047 91.4588 6.32519 91.7044 6.94862C90.4551 11.8951 88.346 14.9913 86.8516 14.9913V14.9917Z" fill="#1A1A1A"/>
<path fill-rule="evenodd" clip-rule="evenodd" d="M103.297 15.0556C103.112 15.0556 103.01 14.9515 103.01 14.7437C103.01 14.5773 103.092 14.2243 103.194 13.8501L104.791 7.78181C104.853 7.4703 104.914 7.09608 104.914 6.82597C104.914 5.86971 104.546 5.28809 103.522 5.28809C101.556 5.28809 99.2629 8.07283 98.0346 10.4215L99.4064 5.28809H99.0993L95.5364 6.18163L95.4749 6.49355L96.6832 7.17928L94.4102 16.3861H96.6422L97.3794 13.414C98.2802 9.73532 101.106 6.78456 102.273 6.78456C102.539 6.78456 102.642 6.93007 102.642 7.22068C102.642 7.38709 102.58 7.63631 102.519 7.88592L101.065 13.2894C100.86 14.0583 100.778 14.5777 100.778 15.056C100.778 15.9704 101.29 16.5939 102.191 16.5939C103.317 16.5939 104.157 15.7003 105.447 13.7882L105.099 13.5181C104.218 14.6195 103.686 15.056 103.297 15.056V15.0556Z" fill="#1A1A1A"/>
<path fill-rule="evenodd" clip-rule="evenodd" d="M82.7727 3.76844C83.5915 3.76844 84.2467 3.08271 84.2467 2.27196C84.2467 1.54483 83.6735 0.941895 82.8748 0.941895C82.0351 0.941895 81.4004 1.60673 81.4004 2.43797C81.4004 3.16551 81.974 3.76804 82.7727 3.76804V3.76844Z" fill="#1A1A1A"/>
<path fill-rule="evenodd" clip-rule="evenodd" d="M81.2589 15.056C81.0748 15.056 80.9723 14.9519 80.9723 14.7441C80.9723 14.5777 81.0543 14.2248 81.1564 13.8505L83.2654 5.28809H82.9584L79.4159 6.18163L79.3339 6.49355L80.5422 7.17929L79.0268 13.2894C78.8222 14.0792 78.7607 14.5777 78.7607 15.056C78.7607 15.9704 79.2523 16.5939 80.1531 16.5939C81.2589 16.5939 82.1187 15.7003 83.4089 13.7882L83.0608 13.5181C82.1601 14.6195 81.648 15.056 81.2589 15.056Z" fill="#1A1A1A"/>
<path fill-rule="evenodd" clip-rule="evenodd" d="M13.6957 7.14462L7.94769 1.96543C7.19402 1.30381 7.69044 0.212907 7.69044 0.212907L7.57226 0.108398L6.37001 1.61131C5.69473 2.44215 5.8133 3.69223 6.61963 4.39887L12.368 9.57806C13.1213 10.2397 12.6252 11.3306 12.6252 11.3306L12.7434 11.4355L13.9457 9.93258C14.621 9.10134 14.5024 7.85166 13.6961 7.14462H13.6957Z" fill="#FF1204"/>
<path fill-rule="evenodd" clip-rule="evenodd" d="M11.0353 10.4648L5.28696 5.28525C4.53369 4.62364 5.0297 3.53273 5.0297 3.53273L4.91113 3.42822L3.70888 4.93113C3.03359 5.76238 3.15217 7.01205 3.95849 7.71869L9.70686 12.8979C10.4601 13.5595 9.96411 14.6508 9.96411 14.6508L10.0827 14.7553L11.2849 13.2524C11.9602 12.4212 11.8416 11.1715 11.0353 10.4648Z" fill="#FF1204"/>
<path fill-rule="evenodd" clip-rule="evenodd" d="M8.38941 13.7832L2.64105 8.60402C1.88778 7.9424 2.3838 6.85149 2.3838 6.85149L2.26562 6.74658L1.06337 8.24949C0.388087 9.08073 0.506664 10.3304 1.31299 11.0375L7.06095 16.2166C7.81461 16.8783 7.3182 17.9692 7.3182 17.9692L7.43637 18.0741L8.63862 16.5712C9.31391 15.7399 9.19533 14.4902 8.38901 13.7832H8.38941Z" fill="#FF1204"/>
<path fill-rule="evenodd" clip-rule="evenodd" d="M108.059 16.3991H116.8V13.7377H111.457V10.094H115.49V7.61718H111.457V4.42364H116.513V1.7623H108.059V16.3991ZM116.977 16.3991H120.436L122.791 11.0358L125.165 16.3991H128.993L125.288 8.76355L128.564 1.7627H125.124L123.098 6.5118L121.03 1.7627H117.222L120.682 8.86605L116.977 16.3995V16.3991ZM129.341 16.3991H132.739V10.9333H134.111C137.304 10.9333 139.086 9.56184 139.086 6.7164V6.10221C139.086 3.23627 137.448 1.7623 134.009 1.7623H129.341V16.3991ZM132.739 8.55896V4.34205H133.886C135.155 4.34205 135.789 4.81274 135.789 6.14361V6.6963C135.789 7.96567 135.155 8.55936 133.886 8.55936H132.739V8.55896ZM139.733 16.3991H143.131V10.6467H144.154L146.734 16.3991H150.316L147.368 10.0325C148.719 9.52084 149.681 8.51756 149.681 6.4909V5.95871C149.681 3.13377 147.9 1.7623 144.522 1.7623H139.732V16.3991H139.733ZM143.131 8.37446V4.36214H144.4C145.69 4.36214 146.365 4.83283 146.365 6.06121V6.5524C146.365 7.84227 145.71 8.37446 144.4 8.37446H143.131ZM150.804 16.3991H159.545V13.7377H154.202V10.094H158.235V7.61718H154.202V4.42364H159.258V1.7623H150.804V16.3991ZM165.147 16.6242C168.299 16.6242 170.141 14.8636 170.141 12.1412C170.141 9.11125 168.32 8.16987 165.617 7.41258C163.898 6.90049 163.427 6.4913 163.427 5.48842C163.427 4.60814 163.959 4.07595 164.942 4.07595C165.945 4.07595 166.559 4.54664 166.641 5.81602H169.834C169.691 2.90908 167.931 1.55811 164.962 1.55811C161.994 1.55811 160.172 3.23667 160.172 5.73402C160.172 8.41546 161.544 9.52124 164.471 10.4015C166.15 10.8927 166.825 11.2613 166.825 12.4692C166.825 13.5336 166.211 14.1067 165.147 14.1067C163.714 14.1067 163.223 13.4106 163.161 11.9981H159.886C159.967 15.0891 161.79 16.6246 165.147 16.6246L165.147 16.6242ZM175.702 16.6242C178.855 16.6242 180.697 14.8636 180.697 12.1412C180.697 9.11125 178.875 8.16987 176.173 7.41258C174.454 6.90049 173.983 6.4913 173.983 5.48842C173.983 4.60814 174.515 4.07595 175.497 4.07595C176.501 4.07595 177.114 4.54664 177.196 5.81602H180.39C180.247 2.90908 178.486 1.55811 175.518 1.55811C172.549 1.55811 170.728 3.23667 170.728 5.73402C170.728 8.41546 172.099 9.52124 175.027 10.4015C176.705 10.8927 177.381 11.2613 177.381 12.4692C177.381 13.5336 176.767 14.1067 175.702 14.1067C174.269 14.1067 173.778 13.4106 173.717 11.9981H170.442C170.523 15.0891 172.345 16.6246 175.703 16.6246L175.702 16.6242Z" fill="#1A1A1A"/>
</g>
<defs>
<clipPath id="clip0">
<rect width="180.076" height="17.9642" fill="white" transform="translate(0.623047 0.10791)"/>
</clipPath>
</defs>
</svg>
