<svg width="41" height="40" viewBox="0 0 41 40" fill="none" xmlns="http://www.w3.org/2000/svg">
<path d="M28.4888 31.6667H31.8221V18.3333H21.8221V31.6667H25.1554V21.6667H28.4888V31.6667ZM5.15544 31.6667V6.66667C5.15544 6.22464 5.33103 5.80072 5.64359 5.48816C5.95615 5.17559 6.38008 5 6.8221 5H30.1554C30.5975 5 31.0214 5.17559 31.334 5.48816C31.6465 5.80072 31.8221 6.22464 31.8221 6.66667V15H35.1554V31.6667H36.8221V35H3.48877V31.6667H5.15544ZM11.8221 18.3333V21.6667H15.1554V18.3333H11.8221ZM11.8221 25V28.3333H15.1554V25H11.8221ZM11.8221 11.6667V15H15.1554V11.6667H11.8221Z" fill="#10B068"/>
</svg>
