<svg width="36" height="35" viewBox="0 0 36 35" fill="none" xmlns="http://www.w3.org/2000/svg">
<path d="M26.4992 22.8331L18.2494 31.0829L9.99964 22.8331C8.36809 21.2015 7.25701 19.1227 6.8069 16.8596C6.35678 14.5965 6.58786 12.2508 7.4709 10.119C8.35394 7.98723 9.84929 6.16518 11.7678 4.88326C13.6864 3.60134 15.942 2.91711 18.2494 2.91711C20.5569 2.91711 22.8125 3.60134 24.731 4.88326C26.6496 6.16518 28.1449 7.98723 29.028 10.119C29.911 12.2508 30.1421 14.5965 29.692 16.8596C29.2419 19.1227 28.1308 21.2015 26.4992 22.8331ZM8.0411 32.0834H28.4578V35H8.0411V32.0834Z" fill="#10B068"/>
</svg>
