<svg width="63" height="63" viewBox="0 0 63 63" fill="none" xmlns="http://www.w3.org/2000/svg">
<path d="M10.7235 8.12695H52.2769C52.9657 8.12695 53.6263 8.40057 54.1133 8.88762C54.6003 9.37467 54.874 10.0352 54.874 10.724V52.2774C54.874 52.9662 54.6003 53.6267 54.1133 54.1138C53.6263 54.6008 52.9657 54.8745 52.2769 54.8745H10.7235C10.0348 54.8745 9.37418 54.6008 8.88713 54.1138C8.40009 53.6267 8.12646 52.9662 8.12646 52.2774V10.724C8.12646 10.0352 8.40009 9.37467 8.88713 8.88762C9.37418 8.40057 10.0348 8.12695 10.7235 8.12695ZM28.9031 33.5576V41.889H34.0973V33.5576C35.4644 32.9609 36.5844 31.9118 37.2689 30.5865C37.9534 29.2612 38.1607 27.7406 37.856 26.2804C37.5512 24.8202 36.753 23.5095 35.5955 22.5687C34.438 21.6278 32.9919 21.1142 31.5002 21.1142C30.0086 21.1142 28.5624 21.6278 27.4049 22.5687C26.2475 23.5095 25.4492 24.8202 25.1445 26.2804C24.8397 27.7406 25.047 29.2612 25.7315 30.5865C26.416 31.9118 27.536 32.9609 28.9031 33.5576Z" fill="#11B051"/>
</svg>
