<svg width="69" height="26" viewBox="0 0 69 26" fill="none" xmlns="http://www.w3.org/2000/svg">
<path d="M33.9818 0.123634L31.4509 5.49091H10.1127L12.6436 0.123634H33.9818ZM5.05091 16.1818C5.45818 15.3091 6.02545 14.4945 6.75273 13.7382C7.50909 12.9818 8.33818 12.3273 9.24 11.7745C10.1709 11.1927 11.16 10.7418 12.2073 10.4218C13.2545 10.1018 14.2873 9.94182 15.3055 9.94182H29.3127L26.7818 15.3091H16.0909C15.3055 15.3091 14.52 15.5418 13.7345 16.0073C12.9782 16.4727 12.44 17.04 12.12 17.7091L10.7236 20.6764H24.2509L21.72 26H7.36364H0.381818L5.05091 16.1818ZM65.8278 0.123634H68.446L56.1842 26H48.3297L54.046 14L43.7915 26H36.766L37.9006 14L32.2278 26H24.3733L36.6351 0.123634H39.2533H46.2351L44.6642 16.7491L58.846 0.123634H65.8278Z" fill="#10B068"/>
</svg>
