<svg width="36" height="36" viewBox="0 0 36 36" fill="none" xmlns="http://www.w3.org/2000/svg">
<path d="M24.8107 27.8034L20.7274 32.9076L16.644 27.8034H9.06071C8.67394 27.8034 8.303 27.6497 8.02951 27.3762C7.75602 27.1028 7.60238 26.7318 7.60238 26.3451V10.4536C7.60238 10.0668 7.75602 9.69589 8.02951 9.4224C8.303 9.14891 8.67394 8.99526 9.06071 8.99526H32.394C32.7808 8.99526 33.1517 9.14891 33.4252 9.4224C33.6987 9.69589 33.8524 10.0668 33.8524 10.4536V26.3451C33.8524 26.7318 33.6987 27.1028 33.4252 27.3762C33.1517 27.6497 32.7808 27.8034 32.394 27.8034H24.8107ZM3.22738 3.01172H28.019V5.92839H4.68571V21.9701H1.76904V4.47005C1.76904 4.08328 1.92269 3.71235 2.19618 3.43885C2.46967 3.16536 2.8406 3.01172 3.22738 3.01172Z" fill="#10B068"/>
</svg>
