<svg width="36" height="35" viewBox="0 0 36 35" fill="none" xmlns="http://www.w3.org/2000/svg">
<path d="M32.7079 14.5833V29.1667C32.7079 29.5534 32.5543 29.9244 32.2808 30.1979C32.0073 30.4714 31.6364 30.625 31.2496 30.625H4.99959C4.61282 30.625 4.24189 30.4714 3.9684 30.1979C3.69491 29.9244 3.54126 29.5534 3.54126 29.1667V14.5833H32.7079ZM32.7079 11.6667H3.54126V5.83333C3.54126 5.44656 3.69491 5.07563 3.9684 4.80214C4.24189 4.52865 4.61282 4.375 4.99959 4.375H31.2496C31.6364 4.375 32.0073 4.52865 32.2808 4.80214C32.5543 5.07563 32.7079 5.44656 32.7079 5.83333V11.6667ZM22.4996 23.3333V26.25H28.3329V23.3333H22.4996Z" fill="#10B068"/>
</svg>
