<svg width="35" height="36" viewBox="0 0 35 36" fill="none" xmlns="http://www.w3.org/2000/svg">
<path d="M6.20845 8.43852L9.32491 11.555C7.77933 13.6219 7.07401 16.1975 7.35091 18.7635C7.6278 21.3295 8.86636 23.6954 10.8173 25.385C12.7683 27.0746 15.2868 27.9625 17.866 27.8701C20.4453 27.7776 22.8937 26.7117 24.7187 24.8867C26.5437 23.0617 27.6096 20.6132 27.7021 18.034C27.7946 15.4548 26.9066 12.9363 25.217 10.9853C23.5274 9.03435 21.1615 7.79579 18.5955 7.5189C16.0296 7.242 13.4539 7.94731 11.387 9.4929L8.26908 6.37644C10.8719 4.24286 14.1348 3.07943 17.5003 3.08498C25.5547 3.08498 32.0837 9.61394 32.0837 17.6683C32.0837 25.7227 25.5547 32.2516 17.5003 32.2516C9.44595 32.2516 2.91699 25.7227 2.91699 17.6683C2.91699 14.1669 4.15074 10.9527 6.20845 8.43852ZM11.4162 13.6477L17.5003 19.7304L19.5624 17.6683L13.4797 11.5841C14.9872 10.5877 16.8109 10.1865 18.5973 10.4583C20.3838 10.7301 22.0057 11.6556 23.1485 13.0553C24.2914 14.455 24.8739 16.2292 24.7829 18.0339C24.692 19.8386 23.9342 21.5453 22.6565 22.823C21.3787 24.1008 19.6721 24.8586 17.8674 24.9495C16.0626 25.0404 14.2884 24.4579 12.8888 23.3151C11.4891 22.1722 10.5636 20.5503 10.2918 18.7639C10.02 16.9774 10.4212 15.1537 11.4176 13.6462L11.4162 13.6477Z" fill="#10B068"/>
</svg>
