<svg width="35" height="35" viewBox="0 0 35 35" fill="none" xmlns="http://www.w3.org/2000/svg">
<path d="M8.75008 2.91663H26.2501C26.6369 2.91663 27.0078 3.07027 27.2813 3.34376C27.5548 3.61725 27.7084 3.98819 27.7084 4.37496V30.625C27.7084 31.0117 27.5548 31.3827 27.2813 31.6562C27.0078 31.9296 26.6369 32.0833 26.2501 32.0833H8.75008C8.36331 32.0833 7.99237 31.9296 7.71888 31.6562C7.44539 31.3827 7.29175 31.0117 7.29175 30.625V4.37496C7.29175 3.98819 7.44539 3.61725 7.71888 3.34376C7.99237 3.07027 8.36331 2.91663 8.75008 2.91663ZM17.5001 24.7916C17.1133 24.7916 16.7424 24.9453 16.4689 25.2188C16.1954 25.4923 16.0417 25.8632 16.0417 26.25C16.0417 26.6367 16.1954 27.0077 16.4689 27.2812C16.7424 27.5546 17.1133 27.7083 17.5001 27.7083C17.8869 27.7083 18.2578 27.5546 18.5313 27.2812C18.8048 27.0077 18.9584 26.6367 18.9584 26.25C18.9584 25.8632 18.8048 25.4923 18.5313 25.2188C18.2578 24.9453 17.8869 24.7916 17.5001 24.7916Z" fill="#10B068"/>
</svg>
