<svg width="1654" height="582" viewBox="0 0 1654 582" fill="none" xmlns="http://www.w3.org/2000/svg">
<path d="M129.262 467.428L178.612 210.915H86.1187L103.785 119.09H405.15L387.484 210.915H294.991L245.641 467.428H129.262ZM411.636 361.13L429.398 268.805H626.073L608.311 361.13H411.636ZM754.184 354.143L771.754 262.817H832.738C838.837 262.817 844.143 261.652 848.657 259.323C853.573 256.662 857.464 253.168 860.329 248.843C863.532 244.518 865.582 240.027 866.478 235.369C867.311 231.044 866.893 227.051 865.225 223.391C863.558 219.732 860.746 216.737 856.789 214.409C853.172 212.08 848.314 210.915 842.215 210.915H781.739L799.405 119.09H864.964C893.423 119.09 917.429 123.747 936.981 133.063C956.873 142.379 971.083 155.687 979.613 172.987C988.142 190.288 990.071 211.081 985.398 235.369C982.71 249.342 976.432 263.482 966.565 277.788C956.762 291.762 944.133 304.571 928.68 316.215C913.629 327.527 896.114 336.676 876.136 343.663C856.497 350.65 835.327 354.143 812.627 354.143H754.184ZM648.027 467.428L715.043 119.09H831.422L764.406 467.428H648.027ZM827.423 467.428C830.111 453.455 831.032 438.982 830.186 424.01C829.678 409.039 827.179 394.733 822.689 381.092C818.198 367.451 811.524 355.474 802.667 345.16C793.809 334.846 782.343 327.527 768.268 323.202L884.269 298.748C901.789 308.064 915.335 319.542 924.907 333.183C934.883 346.491 941.754 360.964 945.522 376.601C949.353 391.905 951.29 407.375 951.331 423.012C951.371 438.649 950.217 453.455 947.868 467.428H827.423ZM953.148 467.428L1020.16 119.09H1300.69L1283.03 210.915H1118.88L1111.96 246.847H1214.11L1197.31 334.181H1095.16L1087.19 375.602H1253.38L1235.71 467.428H953.148ZM1240.48 467.428L1343.27 289.765L1308.01 119.09H1432.52L1441.76 181.97L1441.16 245.849L1467.59 182.469L1502.14 119.09H1620.04L1518.98 287.769L1555.06 467.428H1435.63L1425.48 414.529L1418.26 359.633L1390.92 414.529L1361.43 467.428H1240.48Z" fill="#10B068"/>
<path d="M115.642 84.7406H114.642L114.453 85.7226H115.453L115.642 84.7406ZM123.555 43.6147L123.743 42.6328H122.743L122.555 43.6147H123.555ZM133.455 43.6147H134.455L134.643 42.6328H133.643L133.455 43.6147ZM125.542 84.7406L125.353 85.7226H126.353L126.542 84.7406H125.542ZM113.955 43.6147L114.143 42.6328H113.143L112.955 43.6147H113.955ZM143.055 43.6147H144.055L144.243 42.6328H143.243L143.055 43.6147ZM141.524 51.5689L141.335 52.5509H142.335L142.524 51.5689H141.524ZM112.424 51.5689H111.424L111.235 52.5509H112.235L112.424 51.5689ZM107.573 76.7864L107.762 75.8044H106.762L106.573 76.7864H107.573ZM136.673 76.7864H137.673L137.862 75.8044H136.862L136.673 76.7864ZM135.142 84.7406L134.953 85.7226H135.953L136.142 84.7406H135.142ZM106.042 84.7406H105.042L104.853 85.7226H105.853L106.042 84.7406ZM116.642 84.7406L124.555 43.6147H122.555L114.642 84.7406H116.642ZM123.366 44.5967H133.266L133.643 42.6328H123.743L123.366 44.5967ZM132.455 43.6147L124.542 84.7406H126.542L134.455 43.6147H132.455ZM125.731 83.7586H115.831L115.453 85.7226H125.353L125.731 83.7586ZM113.766 44.5967H142.866L143.243 42.6328H114.143L113.766 44.5967ZM142.055 43.6147L140.524 51.5689H142.524L144.055 43.6147H142.055ZM141.713 50.5869H112.613L112.235 52.5509H141.335L141.713 50.5869ZM113.424 51.5689L114.955 43.6147H112.955L111.424 51.5689H113.424ZM107.384 77.7684H136.484L136.862 75.8044H107.762L107.384 77.7684ZM135.673 76.7864L134.142 84.7406H136.142L137.673 76.7864H135.673ZM135.331 83.7586H106.231L105.853 85.7226H134.953L135.331 83.7586ZM107.042 84.7406L108.573 76.7864H106.573L105.042 84.7406H107.042ZM143.206 84.7406H142.206L142.017 85.7226H143.017L143.206 84.7406ZM151.118 43.6147L151.307 42.6328H150.307L150.118 43.6147H151.118ZM163.718 43.6147L164.717 43.2542L164.587 42.6328H163.907L163.718 43.6147ZM169.818 72.721L168.819 73.0815L170.825 72.6785L169.818 72.721ZM172.037 57.7554H171.037L171.033 57.7767L171.03 57.7979L172.037 57.7554ZM174.758 43.6147L174.947 42.6328H173.947L173.758 43.6147H174.758ZM184.058 43.6147H185.058L185.247 42.6328H184.247L184.058 43.6147ZM176.146 84.7406L175.957 85.7226H176.957L177.146 84.7406H176.146ZM163.546 84.7406L162.548 85.1101L162.684 85.7226H163.357L163.546 84.7406ZM157.224 56.1646L158.221 55.7951L156.215 56.2166L157.224 56.1646ZM155.226 70.5999H156.226L156.231 70.5738L156.235 70.5478L155.226 70.5999ZM152.506 84.7406L152.317 85.7226H153.317L153.506 84.7406H152.506ZM144.206 84.7406L152.118 43.6147H150.118L142.206 84.7406H144.206ZM150.929 44.5967H163.529L163.907 42.6328H151.307L150.929 44.5967ZM162.718 43.9753L168.819 73.0815L170.818 72.3604L164.717 43.2542L162.718 43.9753ZM170.825 72.6785L173.045 57.7129L171.03 57.7979L168.811 72.7635L170.825 72.6785ZM173.037 57.7554L175.758 43.6147H173.758L171.037 57.7554H173.037ZM174.569 44.5967H183.869L184.247 42.6328H174.947L174.569 44.5967ZM183.058 43.6147L175.146 84.7406H177.146L185.058 43.6147H183.058ZM176.335 83.7586H163.735L163.357 85.7226H175.957L176.335 83.7586ZM164.543 84.371L158.221 55.7951L156.226 56.5341L162.548 85.1101L164.543 84.371ZM156.215 56.2166L154.218 70.6519L156.235 70.5478L158.232 56.1126L156.215 56.2166ZM154.226 70.5999L151.506 84.7406H153.506L156.226 70.5999H154.226ZM152.695 83.7586H143.395L143.017 85.7226H152.317L152.695 83.7586ZM193.689 84.7406H192.689L192.5 85.7226H193.5L193.689 84.7406ZM200.071 51.5689H201.071L201.26 50.5869H200.26L200.071 51.5689ZM187.831 51.5689H186.831L186.642 52.5509H187.642L187.831 51.5689ZM189.361 43.6147L189.55 42.6328H188.55L188.361 43.6147H189.361ZM223.741 43.6147H224.741L224.93 42.6328H223.93L223.741 43.6147ZM222.211 51.5689L222.022 52.5509H223.022L223.211 51.5689H222.211ZM209.971 51.5689L210.16 50.5869H209.16L208.971 51.5689H209.971ZM203.589 84.7406L203.4 85.7226H204.4L204.589 84.7406H203.589ZM194.689 84.7406L201.071 51.5689H199.071L192.689 84.7406H194.689ZM200.26 50.5869H188.02L187.642 52.5509H199.882L200.26 50.5869ZM188.831 51.5689L190.361 43.6147H188.361L186.831 51.5689H188.831ZM189.172 44.5967H223.552L223.93 42.6328H189.55L189.172 44.5967ZM222.741 43.6147L221.211 51.5689H223.211L224.741 43.6147H222.741ZM222.4 50.5869H210.16L209.782 52.5509H222.022L222.4 50.5869ZM208.971 51.5689L202.589 84.7406H204.589L210.971 51.5689H208.971ZM203.778 83.7586H193.878L193.5 85.7226H203.4L203.778 83.7586ZM232.011 69.3626H231.011L230.822 70.3446H231.822L232.011 69.3626ZM233.542 61.4084L233.73 60.4264H232.73L232.542 61.4084H233.542ZM246.206 60.7603L245.945 59.8744L245.937 59.8781L245.928 59.882L246.206 60.7603ZM248.658 58.9338L247.922 58.3986L247.91 58.4134L247.897 58.4286L248.658 58.9338ZM249.704 53.8078L248.752 54.3199L248.759 54.3364L248.767 54.3525L249.704 53.8078ZM248.161 52.1581L247.545 53.0364L248.161 52.1581ZM235.435 51.5689H234.435L234.246 52.5509H235.246L235.435 51.5689ZM236.965 43.6147L237.154 42.6328H236.154L235.965 43.6147H236.965ZM254.79 45.1466L254.209 46.0427L254.217 46.0469L254.226 46.0508L254.79 45.1466ZM259.483 49.4478L260.414 48.8914L259.483 49.4478ZM258.03 61.0549L257.22 60.6157L257.213 60.6248L258.03 61.0549ZM253.865 65.2382L253.353 64.4954L253.342 64.5043L253.865 65.2382ZM248.007 68.2431L247.841 67.3207L247.835 67.3229L248.007 68.2431ZM221.913 84.7406H220.913L220.724 85.7226H221.724L221.913 84.7406ZM229.825 43.6147L230.014 42.6328H229.014L228.825 43.6147H229.825ZM239.725 43.6147H240.725L240.914 42.6328H239.914L239.725 43.6147ZM231.813 84.7406L231.624 85.7226H232.624L232.813 84.7406H231.813ZM244.713 84.7406H243.713L243.524 85.7226H244.524L244.713 84.7406ZM244.762 79.4967L243.755 79.8193L243.756 79.8257L244.762 79.4967ZM242.928 74.3707L242.004 74.9415L242.01 74.9523L242.016 74.963L242.928 74.3707ZM239.289 69.8928L240.043 69.1093L239.289 69.8928ZM233.673 66.6523L233.66 65.6898L229.993 66.3909L233.159 67.5774L233.673 66.6523ZM245.072 64.4723L245.688 63.5939L245.409 63.4427L245.059 63.5097L245.072 64.4723ZM250.35 68.5377L249.531 69.2567L250.35 68.5377ZM253.635 73.6048L252.683 74.1154L252.685 74.1219L252.688 74.1285L253.635 73.6048ZM255.138 79.2021L254.125 79.4719L254.125 79.4771L255.138 79.2021ZM254.913 84.7406L254.724 85.7226H255.724L255.913 84.7406H254.913ZM233.011 69.3626L234.542 61.4084H232.542L231.011 69.3626H233.011ZM233.353 62.3904H242.773L243.15 60.4264H233.73L233.353 62.3904ZM242.773 62.3904C244.094 62.3904 245.34 62.1523 246.484 61.6386L245.928 59.882C245.147 60.2325 244.229 60.4264 243.15 60.4264L242.773 62.3904ZM246.467 61.6462C247.645 61.1391 248.642 60.4051 249.418 59.439L247.897 58.4286C247.411 59.0337 246.774 59.5174 245.945 59.8744L246.467 61.6462ZM249.393 59.469C250.207 58.5162 250.724 57.4448 250.948 56.2824H248.948C248.794 57.0841 248.45 57.7802 247.922 58.3986L249.393 59.469ZM250.948 56.2824C251.162 55.1679 251.072 54.1489 250.641 53.2631L248.767 54.3525C249.024 54.8808 249.096 55.5116 248.948 56.2824H250.948ZM250.656 53.2958C250.28 52.4221 249.644 51.7497 248.777 51.2798L247.545 53.0364C248.127 53.352 248.52 53.7795 248.752 54.3199L250.656 53.2958ZM248.777 51.2798C247.908 50.8085 246.873 50.5869 245.703 50.5869L245.326 52.5509C246.236 52.5509 246.965 52.7221 247.545 53.0364L248.777 51.2798ZM245.703 50.5869H235.623L235.246 52.5509H245.326L245.703 50.5869ZM236.435 51.5689L237.965 43.6147H235.965L234.435 51.5689H236.435ZM236.776 44.5967H246.856L247.234 42.6328H237.154L236.776 44.5967ZM246.856 44.5967C249.782 44.5967 252.224 45.0881 254.209 46.0427L255.372 44.2506C253.11 43.1627 250.388 42.6328 247.234 42.6328L246.856 44.5967ZM254.226 46.0508C256.252 46.9674 257.68 48.2881 258.552 50.0041L260.414 48.8914C259.37 46.8366 257.67 45.2899 255.354 44.2425L254.226 46.0508ZM258.552 50.0041C259.412 51.6998 259.63 53.7759 259.148 56.2824H261.148C261.693 53.4469 261.467 50.9666 260.414 48.8914L258.552 50.0041ZM259.148 56.2824C258.87 57.727 258.235 59.1683 257.22 60.6158L258.839 61.4941C260.029 59.7991 260.806 58.0588 261.148 56.2824H259.148ZM257.213 60.6248C256.251 62.023 254.971 63.3143 253.353 64.4955L254.376 65.9809C256.202 64.6482 257.699 63.1506 258.846 61.485L257.213 60.6248ZM253.342 64.5043C251.785 65.6678 249.957 66.6106 247.841 67.3207L248.172 69.1654C250.504 68.383 252.581 67.3225 254.388 65.9722L253.342 64.5043ZM247.835 67.3229C245.791 68.0213 243.524 68.3806 241.02 68.3806L240.642 70.3446C243.339 70.3446 245.855 69.9576 248.179 69.1633L247.835 67.3229ZM241.02 68.3806H232.2L231.822 70.3446H240.642L241.02 68.3806ZM222.913 84.7406L230.825 43.6147H228.825L220.913 84.7406H222.913ZM229.636 44.5967H239.536L239.914 42.6328H230.014L229.636 44.5967ZM238.725 43.6147L230.813 84.7406H232.813L240.725 43.6147H238.725ZM232.002 83.7586H222.102L221.724 85.7226H231.624L232.002 83.7586ZM245.713 84.7406C246.069 82.891 246.083 81.0319 245.767 79.1677L243.756 79.8257C244.04 81.4967 244.022 83.1335 243.713 84.7406H245.713ZM245.768 79.1741C245.459 77.2652 244.814 75.4662 243.839 73.7785L242.016 74.963C242.902 76.4962 243.479 78.1146 243.755 79.8193L245.768 79.1741ZM243.851 73.8C242.922 72.0621 241.649 70.4993 240.043 69.1093L238.536 70.6763C240.016 71.9574 241.169 73.3799 242.004 74.9415L243.851 73.8ZM240.043 69.1093C238.423 67.7073 236.467 66.5819 234.186 65.7271L233.159 67.5774C235.281 68.3724 237.07 69.4074 238.536 70.6763L240.043 69.1093ZM233.686 67.6148L245.085 65.4348L245.059 63.5097L233.66 65.6898L233.686 67.6148ZM244.456 65.3506C246.487 66.4521 248.176 67.7555 249.531 69.2567L251.169 67.8187C249.688 66.1775 247.858 64.7706 245.688 63.5939L244.456 65.3506ZM249.531 69.2567C250.898 70.772 251.946 72.392 252.683 74.1154L254.588 73.0942C253.779 71.2038 252.637 69.4457 251.169 67.8187L249.531 69.2567ZM252.688 74.1285C253.468 75.8618 253.945 77.6426 254.125 79.4719L256.152 78.9324C255.953 76.9122 255.427 74.9615 254.582 73.0811L252.688 74.1285ZM254.125 79.4771C254.314 81.2809 254.241 83.0345 253.913 84.7406H255.913C256.28 82.8329 256.357 80.8942 256.151 78.9272L254.125 79.4771ZM255.102 83.7586H244.902L244.524 85.7226H254.724L255.102 83.7586ZM267.408 82.9141L266.711 83.742L266.717 83.7465L266.723 83.7508L267.408 82.9141ZM262.344 75.5491L261.359 75.9662L261.362 75.9751L262.344 75.5491ZM266.731 52.7473L265.912 52.3212L265.906 52.3302L266.731 52.7473ZM274.617 45.4412L274.254 44.6045L274.248 44.6078L274.617 45.4412ZM293.997 45.4412L294.686 44.6078L294.686 44.6078L293.997 45.4412ZM299.011 52.7473L298.026 53.1643L298.028 53.171L298.03 53.1776L299.011 52.7473ZM294.624 75.5491L293.805 75.1231L293.799 75.132L294.624 75.5491ZM286.788 82.9141L287.156 83.7475L287.166 83.742L286.788 82.9141ZM282.665 75.9616L283.163 76.7139L283.171 76.7081L283.179 76.7021L282.665 75.9616ZM286.478 71.4248L287.355 71.7574L287.358 71.7516L286.478 71.4248ZM289.266 56.9306L288.261 57.2574L288.262 57.2632L289.266 56.9306ZM287.199 52.3937L287.987 51.6414L287.199 52.3937ZM278.728 52.4527L279.226 53.2051L279.228 53.2032L278.728 52.4527ZM274.915 56.9895L275.792 57.3221L275.795 57.3163L274.915 56.9895ZM272.138 71.4248L271.132 71.7516L271.133 71.7574L272.138 71.4248ZM274.205 75.9616L273.406 76.7021L273.417 76.7131L273.428 76.7237L274.205 75.9616ZM276.829 84.4656C273.311 84.4656 270.412 83.6603 268.092 82.0773L266.723 83.7508C269.354 85.5458 272.609 86.4296 276.451 86.4296L276.829 84.4656ZM268.105 82.0861C265.828 80.4655 264.231 78.157 263.327 75.1231L261.362 75.9751C262.353 79.3046 264.132 81.906 266.711 83.742L268.105 82.0861ZM263.33 75.132C262.468 72.1095 262.427 68.4681 263.252 64.1777H261.252C260.385 68.6858 260.406 72.6254 261.359 75.9662L263.33 75.132ZM263.252 64.1777C264.085 59.8465 265.532 56.1859 267.556 53.1643L265.906 52.3302C263.667 55.672 262.127 59.6316 261.252 64.1777H263.252ZM267.55 53.1733C269.621 50.141 272.099 47.855 274.985 46.2747L274.248 44.6078C270.965 46.4055 268.186 48.9903 265.912 52.3213L267.55 53.1733ZM274.979 46.278C277.908 44.695 281.117 43.8897 284.635 43.8897L285.013 41.9257C281.171 41.9257 277.576 42.8095 274.254 44.6045L274.979 46.278ZM284.635 43.8897C288.154 43.8897 291.03 44.6951 293.308 46.2747L294.686 44.6078C292.093 42.8094 288.855 41.9257 285.013 41.9257L284.635 43.8897ZM293.308 46.2747C295.584 47.8535 297.162 50.1363 298.026 53.1643L299.997 52.3302C299.045 48.9949 297.28 46.407 294.686 44.6078L293.308 46.2747ZM298.03 53.1776C298.935 56.1537 298.993 59.8084 298.152 64.1777H300.152C301.035 59.5912 300.999 55.6256 299.993 52.317L298.03 53.1776ZM298.152 64.1777C297.327 68.4648 295.867 72.1029 293.805 75.1231L295.444 75.9751C297.726 72.632 299.284 68.6891 300.152 64.1777H298.152ZM293.799 75.132C291.769 78.1616 289.306 80.467 286.409 82.0861L287.166 83.742C290.454 81.9045 293.216 79.2999 295.45 75.9662L293.799 75.132ZM286.419 82.0807C283.534 83.6602 280.347 84.4656 276.829 84.4656L276.451 86.4296C280.293 86.4296 283.871 85.5459 287.156 83.7475L286.419 82.0807ZM277.981 78.4755C279.786 78.4755 281.526 77.8775 283.163 76.7139L282.167 75.2092C280.931 76.0882 279.675 76.5115 278.359 76.5115L277.981 78.4755ZM283.179 76.7021C284.811 75.504 286.194 73.834 287.355 71.7574L285.601 71.0921C284.566 72.9435 283.408 74.298 282.151 75.2211L283.179 76.7021ZM287.358 71.7516C288.537 69.615 289.393 67.0825 289.952 64.1777H287.952C287.423 66.9291 286.63 69.228 285.598 71.0979L287.358 71.7516ZM289.952 64.1777C290.518 61.2362 290.638 58.7002 290.271 56.5979L288.262 57.2632C288.58 59.0888 288.49 61.3843 287.952 64.1777H289.952ZM290.272 56.6037C289.919 54.4888 289.178 52.8074 287.987 51.6414L286.412 53.1461C287.308 54.0227 287.945 55.3658 288.261 57.2574L290.272 56.6037ZM287.987 51.6414C286.798 50.4778 285.287 49.8798 283.483 49.8798L283.105 51.8438C284.421 51.8438 285.514 52.2671 286.412 53.1461L287.987 51.6414ZM283.483 49.8798C281.669 49.8798 279.904 50.504 278.227 51.7021L279.228 53.2032C280.52 52.2803 281.799 51.8438 283.105 51.8438L283.483 49.8798ZM278.23 51.7003C276.59 52.8663 275.202 54.5477 274.035 56.6626L275.795 57.3163C276.839 55.4247 277.993 54.0816 279.226 53.2051L278.23 51.7003ZM274.038 56.6569C272.864 58.7579 272.011 61.2737 271.452 64.1777H273.452C273.982 61.4253 274.771 59.149 275.792 57.3221L274.038 56.6569ZM271.452 64.1777C270.893 67.0825 270.775 69.615 271.132 71.7516L273.144 71.0979C272.831 69.228 272.923 66.9291 273.452 64.1777H271.452ZM271.133 71.7574C271.495 73.834 272.236 75.504 273.406 76.7021L275.004 75.2211C274.103 74.298 273.465 72.9435 273.143 71.0921L271.133 71.7574ZM273.428 76.7237C274.653 77.8784 276.178 78.4755 277.981 78.4755L278.359 76.5115C277.043 76.5115 275.924 76.0872 274.982 75.1994L273.428 76.7237ZM299.48 84.7406H298.48L298.291 85.7226H299.291L299.48 84.7406ZM307.392 43.6147L307.581 42.6328H306.581L306.392 43.6147H307.392ZM329.668 45.0877L329.119 45.9985L329.127 46.002L329.136 46.0054L329.668 45.0877ZM335.295 49.2121L334.442 49.8909L334.448 49.8986L335.295 49.2121ZM334.815 72.6031L335.692 72.9353L335.694 72.9307L334.815 72.6031ZM329.536 79.1432L330.129 79.822L330.137 79.8143L329.536 79.1432ZM322.312 83.3265L322.496 84.2423L322.505 84.2392L322.312 83.3265ZM310.91 76.7864H309.91L309.721 77.7684H310.721L310.91 76.7864ZM320.865 75.2545L321.285 76.058L321.29 76.055L320.865 75.2545ZM325.146 70.7766L324.292 70.4055L324.287 70.4136L324.282 70.4216L325.146 70.7766ZM327.708 57.4608L326.709 57.8222L326.711 57.8338L326.714 57.8453L327.708 57.4608ZM325.127 53.1008L324.397 53.9043L324.406 53.9112L325.127 53.1008ZM315.761 51.5689L315.95 50.5869H314.95L314.761 51.5689H315.761ZM300.48 84.7406L308.392 43.6147H306.392L298.48 84.7406H300.48ZM307.203 44.5967H321.303L321.681 42.6328H307.581L307.203 44.5967ZM321.303 44.5967C324.358 44.5967 326.956 45.0713 329.119 45.9985L330.218 44.177C327.799 43.1402 324.946 42.6328 321.681 42.6328L321.303 44.5967ZM329.136 46.0054C331.353 46.8993 333.116 48.1956 334.442 49.8909L336.148 48.5333C334.649 46.6149 332.66 45.1616 330.201 44.1701L329.136 46.0054ZM334.448 49.8986C335.78 51.5575 336.659 53.5744 337.074 55.9664L339.084 55.3022C338.627 52.6665 337.649 50.4019 336.142 48.5256L334.448 49.8986ZM337.074 55.9664C337.489 58.3581 337.417 61.052 336.838 64.0598H338.838C339.454 60.8615 339.542 57.9383 339.084 55.3022L337.074 55.9664ZM336.838 64.0598C336.252 67.1081 335.28 69.843 333.935 72.2756L335.694 72.9307C337.172 70.257 338.216 67.2962 338.838 64.0598H336.838ZM333.937 72.271C332.6 74.6662 330.933 76.7291 328.936 78.4721L330.137 79.8143C332.371 77.865 334.222 75.5679 335.692 72.9353L333.937 72.271ZM328.944 78.4644C326.963 80.1627 324.693 81.4804 322.118 82.4137L322.505 84.2392C325.348 83.2086 327.894 81.7374 330.129 79.822L328.944 78.4644ZM322.127 82.4107C319.61 83.3023 316.828 83.7586 313.769 83.7586L313.391 85.7226C316.651 85.7226 319.691 85.2361 322.496 84.2423L322.127 82.4107ZM313.769 83.7586H299.669L299.291 85.7226H313.391L313.769 83.7586ZM310.721 77.7684H314.921L315.299 75.8044H311.099L310.721 77.7684ZM314.921 77.7684C317.246 77.7684 319.383 77.2165 321.285 76.058L320.444 74.4511C318.993 75.335 317.294 75.8044 315.299 75.8044L314.921 77.7684ZM321.29 76.055C323.217 74.8693 324.788 73.212 326.01 71.1317L324.282 70.4216C323.243 72.1907 321.96 73.5186 320.439 74.454L321.29 76.055ZM326.001 71.1477C327.257 69.0817 328.128 66.7121 328.638 64.0598H326.638C326.166 66.5139 325.376 68.6222 324.292 70.4055L326.001 71.1477ZM328.638 64.0598C329.148 61.4091 329.183 59.0723 328.702 57.0763L326.714 57.8453C327.122 59.5416 327.111 61.6041 326.638 64.0598H328.638ZM328.707 57.0994C328.276 55.0548 327.331 53.4353 325.847 52.2903L324.406 53.9112C325.569 54.8088 326.345 56.096 326.709 57.8222L328.707 57.0994ZM325.856 52.2973C324.4 51.1388 322.475 50.5869 320.15 50.5869L319.773 52.5509C321.768 52.5509 323.286 53.0203 324.397 53.9042L325.856 52.2973ZM320.15 50.5869H315.95L315.573 52.5509H319.773L320.15 50.5869ZM314.761 51.5689L309.91 76.7864H311.91L316.761 51.5689H314.761ZM345.69 83.5622L345.063 84.435L345.074 84.4405L345.69 83.5622ZM345.455 43.6147L345.644 42.6328H344.644L344.455 43.6147H345.455ZM355.355 43.6147H356.355L356.544 42.6328H355.544L355.355 43.6147ZM350.417 73.9583L351.388 73.4946L350.417 73.9583ZM352.439 76.5507L351.766 77.3955L351.783 77.4063L351.8 77.4164L352.439 76.5507ZM360.239 76.5507L360.559 77.4092L360.573 77.4025L360.586 77.3955L360.239 76.5507ZM363.257 73.9583L362.465 73.4946L363.257 73.9583ZM369.995 43.6147L370.184 42.6328H369.184L368.995 43.6147H369.995ZM379.895 43.6147H380.895L381.084 42.6328H380.084L379.895 43.6147ZM371.213 78.1416L370.44 77.6513L371.213 78.1416ZM364.29 83.5622L364.568 84.4406L364.58 84.435L364.29 83.5622ZM354.816 84.4656C351.29 84.4656 348.469 83.8567 346.306 82.6838L345.074 84.4405C347.547 85.7816 350.684 86.4296 354.438 86.4296L354.816 84.4656ZM346.316 82.6894C344.15 81.4743 342.659 79.7959 341.813 77.6513L339.892 78.6319C340.874 81.1223 342.608 83.0576 345.064 84.435L346.316 82.6894ZM341.813 77.6513C340.967 75.5053 340.808 72.9695 341.377 70.0107H339.377C338.752 73.258 338.91 76.1428 339.892 78.6319L341.813 77.6513ZM341.377 70.0107L346.455 43.6147H344.455L339.377 70.0107H341.377ZM345.266 44.5967H355.166L355.544 42.6328H345.644L345.266 44.5967ZM354.355 43.6147L349.277 70.0107H351.277L356.355 43.6147H354.355ZM349.277 70.0107C348.958 71.668 348.998 73.1506 349.447 74.422L351.388 73.4946C351.06 72.5663 351.006 71.4172 351.277 70.0107H349.277ZM349.447 74.422C349.89 75.6778 350.666 76.6746 351.766 77.3955L353.111 75.7059C352.293 75.17 351.721 74.4385 351.388 73.4946L349.447 74.422ZM351.8 77.4164C352.957 78.0937 354.362 78.4165 355.98 78.4165L356.358 76.4526C355.015 76.4526 353.933 76.1862 353.077 75.6851L351.8 77.4164ZM355.98 78.4165C357.631 78.4165 359.168 78.0961 360.559 77.4092L359.918 75.6923C358.923 76.1838 357.746 76.4526 356.358 76.4526L355.98 78.4165ZM360.586 77.3955C361.964 76.6746 363.123 75.6778 364.05 74.422L362.465 73.4946C361.769 74.4385 360.916 75.17 359.891 75.7059L360.586 77.3955ZM364.05 74.422C364.988 73.1506 365.598 71.668 365.917 70.0107H363.917C363.646 71.4172 363.15 72.5663 362.465 73.4946L364.05 74.422ZM365.917 70.0107L370.995 43.6147H368.995L363.917 70.0107H365.917ZM369.806 44.5967H379.706L380.084 42.6328H370.184L369.806 44.5967ZM378.895 43.6147L373.817 70.0107H375.817L380.895 43.6147H378.895ZM373.817 70.0107C373.248 72.9695 372.113 75.5053 370.44 77.6513L371.985 78.6319C373.924 76.1428 375.192 73.258 375.817 70.0107H373.817ZM370.44 77.6513C368.769 79.7959 366.633 81.4743 363.999 82.6894L364.58 84.435C367.565 83.0576 370.044 81.1223 371.985 78.6319L370.44 77.6513ZM364.011 82.6838C361.397 83.8567 358.342 84.4656 354.816 84.4656L354.438 86.4296C358.192 86.4296 361.579 85.7816 364.568 84.4405L364.011 82.6838ZM384.789 82.8551L384.08 83.6741L384.086 83.6786L384.092 83.6831L384.789 82.8551ZM379.857 75.4313L378.868 75.8352L378.87 75.8418L378.872 75.8484L379.857 75.4313ZM384.248 52.924L385.073 53.3411L384.248 52.924ZM392.145 45.5591L392.517 46.3905L392.526 46.3851L392.145 45.5591ZM410.566 44.6164L411.156 43.7244L410.566 44.6164ZM415.794 49.5656L414.874 50.1432L414.879 50.1525L415.794 49.5656ZM416.975 57.4608L416.786 58.4428H417.838L417.983 57.4112L416.975 57.4608ZM406.175 57.4608L405.161 57.5566L405.079 58.4428H405.986L406.175 57.4608ZM405.173 52.6883L404.295 53.3333L404.299 53.3393L404.303 53.3453L405.173 52.6883ZM396.41 52.3937L396.876 53.1676L396.88 53.1651L396.41 52.3937ZM392.488 56.8716L391.617 56.5288L391.611 56.539L392.488 56.8716ZM389.677 71.4837L388.671 71.8105L388.672 71.8163L389.677 71.4837ZM391.695 75.9616L390.898 76.7036L390.903 76.7088L390.908 76.7139L391.695 75.9616ZM399.168 76.7275L399.478 77.5911L399.492 77.5843L399.168 76.7275ZM402.021 74.3707L401.269 73.8561L401.259 73.8679L401.25 73.88L402.021 74.3707ZM403.876 70.6588L404.065 69.6768H403.142L402.894 70.5794L403.876 70.6588ZM414.676 70.6588L415.651 70.7603L415.974 69.6768H414.865L414.676 70.6588ZM410.397 78.554L409.669 78.0093L409.666 78.0127L410.397 78.554ZM403.411 83.68L403.67 84.5667L403.682 84.5611L403.411 83.68ZM394.259 84.4656C390.661 84.4656 387.752 83.6406 385.486 82.0272L384.092 83.6831C386.681 85.5263 389.96 86.4296 393.882 86.4296L394.259 84.4656ZM385.499 82.0362C383.266 80.3777 381.709 78.049 380.843 75.0142L378.872 75.8484C379.822 79.1769 381.553 81.7974 384.08 83.6741L385.499 82.0362ZM380.847 75.0274C380.027 71.9573 380 68.3488 380.803 64.1777H378.803C377.958 68.5695 377.968 72.4634 378.868 75.8352L380.847 75.0274ZM380.803 64.1777C381.612 59.9687 383.046 56.3658 385.073 53.3411L383.422 52.507C381.185 55.8455 379.655 59.7451 378.803 64.1777H380.803ZM385.073 53.3411C387.1 50.3152 389.581 48.0104 392.517 46.3905L391.772 44.7277C388.443 46.5644 385.659 49.1695 383.422 52.507L385.073 53.3411ZM392.526 46.3851C395.459 44.7343 398.747 43.8897 402.426 43.8897L402.804 41.9257C398.802 41.9257 395.11 42.8487 391.763 44.7331L392.526 46.3851ZM402.426 43.8897C405.293 43.8897 407.805 44.4333 409.976 45.5084L411.156 43.7244C408.726 42.5213 405.936 41.9257 402.804 41.9257L402.426 43.8897ZM409.976 45.5084C412.138 46.5787 413.766 48.1215 414.874 50.1432L416.714 48.988C415.453 46.689 413.596 44.9323 411.156 43.7244L409.976 45.5084ZM414.879 50.1525C416.002 52.1341 416.38 54.5711 415.966 57.5105L417.983 57.4112C418.443 54.1444 418.034 51.3179 416.708 48.9787L414.879 50.1525ZM417.164 56.4788H406.364L405.986 58.4428H416.786L417.164 56.4788ZM407.188 57.365C407.388 55.2098 407.036 53.4033 406.043 52.0314L404.303 53.3453C405.016 54.3302 405.332 55.7053 405.161 57.5566L407.188 57.365ZM406.051 52.0434C405.034 50.5797 403.396 49.8798 401.273 49.8798L400.895 51.8438C402.532 51.8438 403.62 52.3616 404.295 53.3333L406.051 52.0434ZM401.273 49.8798C399.437 49.8798 397.647 50.4721 395.939 51.6224L396.88 53.1651C398.205 52.2729 399.532 51.8438 400.895 51.8438L401.273 49.8798ZM395.943 51.6199C394.259 52.7455 392.828 54.4116 391.617 56.5288L393.359 57.2145C394.44 55.3251 395.622 54.0059 396.876 53.1676L395.943 51.6199ZM391.611 56.539C390.435 58.6425 389.576 61.1987 389.003 64.1777H391.003C391.548 61.3432 392.345 59.0287 393.365 57.2043L391.611 56.539ZM389.003 64.1777C388.436 67.12 388.314 69.6727 388.671 71.8105L390.683 71.1568C390.371 69.2881 390.465 66.9701 391.003 64.1777H389.003ZM388.672 71.8163C389.033 73.8869 389.755 75.5411 390.898 76.7036L392.493 75.2195C391.628 74.3395 391.005 73.0084 390.682 71.1511L388.672 71.8163ZM390.908 76.7139C392.097 77.8775 393.607 78.4755 395.412 78.4755L395.79 76.5115C394.474 76.5115 393.381 76.0882 392.483 75.2092L390.908 76.7139ZM395.412 78.4755C396.864 78.4755 398.228 78.1941 399.478 77.591L398.858 75.864C397.991 76.2822 396.978 76.5115 395.79 76.5115L395.412 78.4755ZM399.492 77.5843C400.78 76.9438 401.883 76.0283 402.793 74.8614L401.25 73.88C400.567 74.7557 399.768 75.4114 398.844 75.8707L399.492 77.5843ZM402.774 74.8854C403.739 73.7068 404.424 72.3129 404.857 70.7382L402.894 70.5794C402.528 71.9114 401.976 72.9921 401.269 73.8561L402.774 74.8854ZM403.687 71.6408H414.487L414.865 69.6768H404.065L403.687 71.6408ZM413.701 70.5573C412.84 73.4442 411.49 75.9194 409.669 78.0093L411.124 79.0987C413.204 76.7108 414.708 73.9225 415.651 70.7603L413.701 70.5573ZM409.666 78.0127C407.895 80.06 405.727 81.6545 403.138 82.7989L403.682 84.5611C406.603 83.2701 409.092 81.4473 411.127 79.0953L409.666 78.0127ZM403.151 82.7934C400.582 83.8955 397.626 84.4656 394.259 84.4656L393.882 86.4296C397.474 86.4296 400.745 85.8213 403.67 84.5666L403.151 82.7934ZM427.83 84.7406H426.83L426.641 85.7226H427.641L427.83 84.7406ZM435.742 43.6147L435.931 42.6328H434.931L434.742 43.6147H435.742ZM445.642 43.6147H446.642L446.831 42.6328H445.831L445.642 43.6147ZM437.73 84.7406L437.541 85.7226H438.541L438.73 84.7406H437.73ZM426.142 43.6147L426.331 42.6328H425.331L425.142 43.6147H426.142ZM455.242 43.6147H456.242L456.431 42.6328H455.431L455.242 43.6147ZM453.712 51.5689L453.523 52.5509H454.523L454.712 51.5689H453.712ZM424.612 51.5689H423.612L423.423 52.5509H424.423L424.612 51.5689ZM419.76 76.7864L419.949 75.8044H418.949L418.76 76.7864H419.76ZM448.86 76.7864H449.86L450.049 75.8044H449.049L448.86 76.7864ZM447.33 84.7406L447.141 85.7226H448.141L448.33 84.7406H447.33ZM418.23 84.7406H417.23L417.041 85.7226H418.041L418.23 84.7406ZM428.83 84.7406L436.742 43.6147H434.742L426.83 84.7406H428.83ZM435.553 44.5967H445.453L445.831 42.6328H435.931L435.553 44.5967ZM444.642 43.6147L436.73 84.7406H438.73L446.642 43.6147H444.642ZM437.919 83.7586H428.019L427.641 85.7226H437.541L437.919 83.7586ZM425.953 44.5967H455.053L455.431 42.6328H426.331L425.953 44.5967ZM454.242 43.6147L452.712 51.5689H454.712L456.242 43.6147H454.242ZM453.901 50.5869H424.801L424.423 52.5509H453.523L453.901 50.5869ZM425.612 51.5689L427.142 43.6147H425.142L423.612 51.5689H425.612ZM419.571 77.7684H448.671L449.049 75.8044H419.949L419.571 77.7684ZM447.86 76.7864L446.33 84.7406H448.33L449.86 76.7864H447.86ZM447.519 83.7586H418.419L418.041 85.7226H447.141L447.519 83.7586ZM419.23 84.7406L420.76 76.7864H418.76L417.23 84.7406H419.23ZM455.393 84.7406H454.393L454.204 85.7226H455.204L455.393 84.7406ZM463.305 43.6147L463.494 42.6328H462.494L462.305 43.6147H463.305ZM475.905 43.6147L476.905 43.2542L476.775 42.6328H476.094L475.905 43.6147ZM482.006 72.721L481.006 73.0815L483.013 72.6785L482.006 72.721ZM484.225 57.7554H483.225L483.221 57.7767L483.218 57.7979L484.225 57.7554ZM486.945 43.6147L487.134 42.6328H486.134L485.945 43.6147H486.945ZM496.245 43.6147H497.245L497.434 42.6328H496.434L496.245 43.6147ZM488.333 84.7406L488.144 85.7226H489.144L489.333 84.7406H488.333ZM475.733 84.7406L474.736 85.1101L474.871 85.7226H475.544L475.733 84.7406ZM469.411 56.1646L470.409 55.7951L468.402 56.2166L469.411 56.1646ZM467.414 70.5999H468.414L468.419 70.5738L468.422 70.5478L467.414 70.5999ZM464.693 84.7406L464.504 85.7226H465.504L465.693 84.7406H464.693ZM456.393 84.7406L464.305 43.6147H462.305L454.393 84.7406H456.393ZM463.117 44.5967H475.717L476.094 42.6328H463.494L463.117 44.5967ZM474.906 43.9753L481.006 73.0815L483.005 72.3604L476.905 43.2542L474.906 43.9753ZM483.013 72.6785L485.232 57.7129L483.218 57.7979L480.999 72.7635L483.013 72.6785ZM485.225 57.7554L487.945 43.6147H485.945L483.225 57.7554H485.225ZM486.757 44.5967H496.057L496.434 42.6328H487.134L486.757 44.5967ZM495.245 43.6147L487.333 84.7406H489.333L497.245 43.6147H495.245ZM488.522 83.7586H475.922L475.544 85.7226H488.144L488.522 83.7586ZM476.731 84.371L470.409 55.7951L468.413 56.5341L474.736 85.1101L476.731 84.371ZM468.402 56.2166L466.405 70.6519L468.422 70.5478L470.42 56.1126L468.402 56.2166ZM466.414 70.5999L463.693 84.7406H465.693L468.414 70.5999H466.414ZM464.882 83.7586H455.582L455.204 85.7226H464.504L464.882 83.7586ZM501.571 82.7962L500.854 83.6096L500.86 83.6142L500.866 83.6187L501.571 82.7962ZM496.65 75.3134L497.636 74.8964L496.65 75.3134ZM500.935 53.0419L501.76 53.4589L501.763 53.4548L500.935 53.0419ZM508.915 45.5591L508.545 44.7263L508.539 44.7297L508.915 45.5591ZM527.336 44.6164L526.736 45.5032L526.744 45.5074L526.752 45.5113L527.336 44.6164ZM532.515 49.5067L531.596 50.0843L532.515 49.5067ZM533.636 57.4019L533.447 58.3839H534.499L534.645 57.3523L533.636 57.4019ZM522.776 57.4019L521.764 57.4852L521.669 58.3839H522.587L522.776 57.4019ZM521.812 52.7473L520.917 53.3665L520.921 53.3736L520.926 53.3805L521.812 52.7473ZM513.109 52.4527L513.593 53.2148L513.596 53.2127L513.109 52.4527ZM509.187 56.9306L508.319 56.5817L508.315 56.5898L508.31 56.5979L509.187 56.9306ZM506.459 71.4248L505.456 71.7676L505.457 71.7736L506.459 71.4248ZM508.766 75.9616L507.996 76.7306L508.007 76.7404L508.018 76.7498L508.766 75.9616ZM517.164 76.9043L517.347 77.8208L517.364 77.815L517.38 77.8086L517.164 76.9043ZM520.527 75.0188L521.043 75.7579L521.441 75.4644L521.527 75.0188H520.527ZM521.423 70.3642H522.423L522.622 69.328L521.558 69.3836L521.423 70.3642ZM515.786 70.6588L514.794 70.623L514.547 71.6971L515.651 71.6394L515.786 70.6588ZM517.639 62.5868L517.828 61.6048H516.864L516.646 62.551L517.639 62.5868ZM532.639 62.5868H533.639L533.828 61.6048H532.828L532.639 62.5868ZM529.726 77.7291L530.418 78.3121L530.664 78.0522L530.726 77.7291H529.726ZM521.617 83.3854L521.35 82.5022L521.345 82.5046L521.617 83.3854ZM510.97 84.4656C507.418 84.4656 504.535 83.6242 502.275 81.9737L500.866 83.6187C503.447 85.5034 506.704 86.4296 510.592 86.4296L510.97 84.4656ZM502.288 81.9828C500.057 80.2839 498.502 77.9327 497.636 74.8964L495.665 75.7305C496.614 79.0575 498.34 81.6947 500.854 83.6096L502.288 81.9828ZM497.636 74.8964C496.772 71.8694 496.719 68.3051 497.513 64.1777H495.513C494.675 68.5347 494.713 72.3941 495.665 75.7305L497.636 74.8964ZM497.513 64.1777C498.307 60.0502 499.732 56.4859 501.76 53.4589L500.11 52.6248C497.874 55.9612 496.351 59.8207 495.513 64.1777H497.513ZM501.763 53.4548C503.798 50.3914 506.306 48.0476 509.291 46.3885L508.539 44.7297C505.164 46.6058 502.352 49.2504 500.107 52.629L501.763 53.4548ZM509.285 46.3918C512.299 44.737 515.692 43.8897 519.496 43.8897L519.874 41.9257C515.758 41.9257 511.971 42.846 508.545 44.7264L509.285 46.3918ZM519.496 43.8897C522.237 43.8897 524.645 44.4308 526.736 45.5032L527.936 43.7295C525.585 42.5237 522.892 41.9257 519.874 41.9257L519.496 43.8897ZM526.752 45.5113C528.876 46.541 530.487 48.0618 531.596 50.0843L533.435 48.9291C532.175 46.6308 530.333 44.8914 527.92 43.7214L526.752 45.5113ZM531.596 50.0843C532.682 52.0667 533.043 54.5071 532.628 57.4516L534.645 57.3523C535.104 54.0906 534.717 51.2675 533.435 48.9291L531.596 50.0843ZM533.825 56.4199H522.965L522.587 58.3839H533.447L533.825 56.4199ZM523.789 57.3186C524.003 55.2967 523.653 53.5456 522.698 52.114L520.926 53.3805C521.648 54.4629 521.941 55.8148 521.764 57.4852L523.789 57.3186ZM522.707 52.128C521.749 50.6187 520.173 49.8798 518.104 49.8798L517.726 51.8438C519.256 51.8438 520.279 52.362 520.917 53.3665L522.707 52.128ZM518.104 49.8798C516.189 49.8798 514.348 50.4909 512.622 51.6927L513.596 53.2127C514.917 52.2933 516.28 51.8438 517.726 51.8438L518.104 49.8798ZM512.625 51.6905C510.95 52.8487 509.524 54.503 508.319 56.5817L510.055 57.2794C511.126 55.4301 512.314 54.0992 513.593 53.2148L512.625 51.6905ZM508.31 56.5979C507.135 58.7002 506.279 61.2362 505.713 64.1777H507.713C508.25 61.3843 509.043 59.0888 510.064 57.2632L508.31 56.5979ZM505.713 64.1777C505.153 67.0872 505.055 69.6256 505.456 71.7676L507.462 71.0819C507.113 69.2174 507.184 66.9244 507.713 64.1777H505.713ZM505.457 71.7736C505.864 73.8646 506.695 75.5373 507.996 76.7306L509.536 75.1925C508.524 74.2647 507.818 72.9129 507.46 71.0759L505.457 71.7736ZM508.018 76.7498C509.375 77.9012 511.075 78.4755 513.082 78.4755L513.46 76.5115C511.867 76.5115 510.564 76.0645 509.514 75.1733L508.018 76.7498ZM513.082 78.4755C514.647 78.4755 516.076 78.2685 517.347 77.8208L516.982 75.9877C516.022 76.3256 514.855 76.5115 513.46 76.5115L513.082 78.4755ZM517.38 77.8086C518.622 77.331 519.843 76.6428 521.043 75.7579L520.011 74.2798C518.973 75.0447 517.953 75.6134 516.949 75.9999L517.38 77.8086ZM521.527 75.0188L522.423 70.3642H520.423L519.527 75.0188H521.527ZM521.558 69.3836L515.921 69.6782L515.651 71.6394L521.288 71.3448L521.558 69.3836ZM516.778 70.6946L518.631 62.6226L516.646 62.551L514.794 70.623L516.778 70.6946ZM517.45 63.5688H532.45L532.828 61.6048H517.828L517.45 63.5688ZM531.639 62.5868L528.726 77.7291H530.726L533.639 62.5868H531.639ZM529.033 77.1462C526.899 79.4073 524.345 81.1929 521.35 82.5022L521.885 84.2686C525.179 82.8284 528.03 80.8431 530.418 78.3121L529.033 77.1462ZM521.345 82.5046C518.429 83.7959 514.981 84.4656 510.97 84.4656L510.592 86.4296C514.821 86.4296 518.597 85.7245 521.89 84.2662L521.345 82.5046Z" fill="black"/>
<path d="M1205.61 547.243H1204.61L1204.42 548.225H1205.42L1205.61 547.243ZM1211.99 514.071H1212.99L1213.18 513.089H1212.18L1211.99 514.071ZM1199.75 514.071H1198.75L1198.56 515.053H1199.56L1199.75 514.071ZM1201.28 506.117L1201.47 505.135H1200.47L1200.28 506.117H1201.28ZM1235.66 506.117H1236.66L1236.85 505.135H1235.85L1235.66 506.117ZM1234.13 514.071L1233.94 515.053H1234.94L1235.13 514.071H1234.13ZM1221.89 514.071L1222.08 513.089H1221.08L1220.89 514.071H1221.89ZM1215.51 547.243L1215.32 548.225H1216.32L1216.51 547.243H1215.51ZM1206.61 547.243L1212.99 514.071H1210.99L1204.61 547.243H1206.61ZM1212.18 513.089H1199.94L1199.56 515.053H1211.8L1212.18 513.089ZM1200.75 514.071L1202.28 506.117H1200.28L1198.75 514.071H1200.75ZM1201.09 507.099H1235.47L1235.85 505.135H1201.47L1201.09 507.099ZM1234.66 506.117L1233.13 514.071H1235.13L1236.66 506.117H1234.66ZM1234.32 513.089H1222.08L1221.7 515.053H1233.94L1234.32 513.089ZM1220.89 514.071L1214.51 547.243H1216.51L1222.89 514.071H1220.89ZM1215.7 546.261H1205.8L1205.42 548.225H1215.32L1215.7 546.261ZM1256.69 547.243H1255.69L1255.51 548.225H1256.51L1256.69 547.243ZM1264.61 506.117L1264.8 505.135H1263.8L1263.61 506.117H1264.61ZM1274.51 506.117H1275.51L1275.7 505.135H1274.7L1274.51 506.117ZM1266.59 547.243L1266.41 548.225H1267.41L1267.59 547.243H1266.59ZM1232.69 547.243H1231.69L1231.51 548.225H1232.51L1232.69 547.243ZM1240.61 506.117L1240.8 505.135H1239.8L1239.61 506.117H1240.61ZM1250.51 506.117H1251.51L1251.7 505.135H1250.7L1250.51 506.117ZM1242.59 547.243L1242.41 548.225H1243.41L1243.59 547.243H1242.59ZM1244.9 529.979H1243.9L1243.71 530.961H1244.71L1244.9 529.979ZM1246.43 522.025L1246.62 521.043H1245.62L1245.43 522.025H1246.43ZM1262.51 522.025H1263.51L1263.7 521.043H1262.7L1262.51 522.025ZM1260.98 529.979L1260.79 530.961H1261.79L1261.98 529.979H1260.98ZM1257.69 547.243L1265.61 506.117H1263.61L1255.69 547.243H1257.69ZM1264.42 507.099H1274.32L1274.7 505.135H1264.8L1264.42 507.099ZM1273.51 506.117L1265.59 547.243H1267.59L1275.51 506.117H1273.51ZM1266.78 546.261H1256.88L1256.51 548.225H1266.41L1266.78 546.261ZM1233.69 547.243L1241.61 506.117H1239.61L1231.69 547.243H1233.69ZM1240.42 507.099H1250.32L1250.7 505.135H1240.8L1240.42 507.099ZM1249.51 506.117L1241.59 547.243H1243.59L1251.51 506.117H1249.51ZM1242.78 546.261H1232.88L1232.51 548.225H1242.41L1242.78 546.261ZM1245.9 529.979L1247.43 522.025H1245.43L1243.9 529.979H1245.9ZM1246.24 523.007H1262.32L1262.7 521.043H1246.62L1246.24 523.007ZM1261.51 522.025L1259.98 529.979H1261.98L1263.51 522.025H1261.51ZM1261.16 528.997H1245.08L1244.71 530.961H1260.79L1261.16 528.997ZM1273.52 547.243H1272.52L1272.33 548.225H1273.33L1273.52 547.243ZM1281.43 506.117L1281.62 505.135H1280.62L1280.43 506.117H1281.43ZM1312.45 506.117H1313.45L1313.64 505.135H1312.64L1312.45 506.117ZM1310.92 514.071L1310.73 515.053H1311.73L1311.92 514.071H1310.92ZM1289.8 514.071L1289.99 513.089H1288.99L1288.8 514.071H1289.8ZM1288.27 522.025H1287.27L1287.08 523.007H1288.08L1288.27 522.025ZM1301.89 522.025H1302.89L1303.08 521.043H1302.08L1301.89 522.025ZM1300.36 529.979L1300.17 530.961H1301.17L1301.36 529.979H1300.36ZM1286.74 529.979L1286.93 528.997H1285.93L1285.74 529.979H1286.74ZM1284.95 539.288H1283.95L1283.76 540.27H1284.76L1284.95 539.288ZM1306.31 539.288H1307.31L1307.5 538.306H1306.5L1306.31 539.288ZM1304.78 547.243L1304.59 548.225H1305.59L1305.78 547.243H1304.78ZM1274.52 547.243L1282.43 506.117H1280.43L1272.52 547.243H1274.52ZM1281.24 507.099H1312.26L1312.64 505.135H1281.62L1281.24 507.099ZM1311.45 506.117L1309.92 514.071H1311.92L1313.45 506.117H1311.45ZM1311.11 513.089H1289.99L1289.61 515.053H1310.73L1311.11 513.089ZM1288.8 514.071L1287.27 522.025H1289.27L1290.8 514.071H1288.8ZM1288.08 523.007H1301.7L1302.08 521.043H1288.46L1288.08 523.007ZM1300.89 522.025L1299.36 529.979H1301.36L1302.89 522.025H1300.89ZM1300.55 528.997H1286.93L1286.55 530.961H1300.17L1300.55 528.997ZM1285.74 529.979L1283.95 539.288H1285.95L1287.74 529.979H1285.74ZM1284.76 540.27H1306.12L1306.5 538.306H1285.14L1284.76 540.27ZM1305.31 539.288L1303.78 547.243H1305.78L1307.31 539.288H1305.31ZM1304.97 546.261H1273.71L1273.33 548.225H1304.59L1304.97 546.261ZM1380.9 525.737L1380.64 524.853L1378.27 525.883L1380.39 526.664L1380.9 525.737ZM1384.44 527.917L1383.64 528.652L1383.65 528.66L1383.65 528.667L1384.44 527.917ZM1386.17 531.099L1385.17 531.468L1385.18 531.486L1385.18 531.503L1386.17 531.099ZM1383.06 541.645L1382.35 541.084L1383.06 541.645ZM1376.86 545.828L1377.06 546.736L1377.07 546.733L1377.08 546.73L1376.86 545.828ZM1351.02 547.243H1350.02L1349.84 548.225H1350.84L1351.02 547.243ZM1358.94 506.117L1359.13 505.135H1358.13L1357.94 506.117H1358.94ZM1386.32 509.122L1385.55 509.894L1385.56 509.899L1385.56 509.904L1386.32 509.122ZM1387.28 520.67L1388.1 521.083L1388.11 521.072L1387.28 520.67ZM1384.55 523.616L1385.09 524.341L1385.1 524.333L1385.11 524.325L1384.55 523.616ZM1367.31 514.071L1367.5 513.089H1366.5L1366.31 514.071H1367.31ZM1365.67 522.555H1364.67L1364.49 523.537H1365.49L1365.67 522.555ZM1376.16 521.377L1376.64 522.144L1376.64 522.141L1376.16 521.377ZM1377.34 515.249L1376.58 516.028L1376.59 516.035L1376.6 516.042L1377.34 515.249ZM1362.46 539.288H1361.46L1361.27 540.27H1362.27L1362.46 539.288ZM1373.9 538.11L1373.44 537.332L1373.43 537.337L1373.42 537.343L1373.9 538.11ZM1375.2 531.688L1374.43 532.455L1375.2 531.688ZM1364.14 530.509L1364.33 529.527H1363.33L1363.14 530.509H1364.14ZM1380.39 526.664C1381.8 527.181 1382.87 527.85 1383.64 528.652L1385.25 527.181C1384.28 526.177 1382.99 525.393 1381.41 524.81L1380.39 526.664ZM1383.65 528.667C1384.42 529.427 1384.93 530.356 1385.17 531.468L1387.17 530.729C1386.86 529.327 1386.21 528.135 1385.23 527.167L1383.65 528.667ZM1385.18 531.503C1385.47 532.573 1385.49 533.826 1385.21 535.282H1387.21C1387.53 533.596 1387.53 532.059 1387.16 530.694L1385.18 531.503ZM1385.21 535.282C1384.77 537.539 1383.81 539.46 1382.35 541.084L1383.77 542.206C1385.57 540.217 1386.7 537.895 1387.21 535.282H1385.21ZM1382.35 541.084C1380.87 542.722 1378.98 544.008 1376.63 544.927L1377.08 546.73C1379.75 545.685 1381.99 544.182 1383.77 542.206L1382.35 541.084ZM1376.65 544.921C1374.31 545.804 1371.63 546.261 1368.61 546.261L1368.24 548.225C1371.46 548.225 1374.41 547.738 1377.06 546.736L1376.65 544.921ZM1368.61 546.261H1351.21L1350.84 548.225H1368.24L1368.61 546.261ZM1352.02 547.243L1359.94 506.117H1357.94L1350.02 547.243H1352.02ZM1358.75 507.099H1375.55L1375.93 505.135H1359.13L1358.75 507.099ZM1375.55 507.099C1380.26 507.099 1383.54 508.077 1385.55 509.894L1387.08 508.349C1384.66 506.16 1380.89 505.135 1375.93 505.135L1375.55 507.099ZM1385.56 509.904C1387.62 511.69 1388.35 513.959 1387.81 516.781H1389.81C1390.47 513.319 1389.54 510.481 1387.07 508.339L1385.56 509.904ZM1387.81 516.781C1387.55 518.119 1387.09 519.274 1386.44 520.268L1388.11 521.072C1388.95 519.787 1389.5 518.35 1389.81 516.781H1387.81ZM1386.45 520.256C1385.79 521.242 1384.98 522.124 1384 522.906L1385.11 524.325C1386.29 523.379 1387.3 522.298 1388.1 521.083L1386.45 520.256ZM1384.02 522.891C1383.03 523.645 1381.91 524.301 1380.64 524.853L1381.17 526.621C1382.61 525.995 1383.91 525.236 1385.09 524.341L1384.02 522.891ZM1373.8 513.089H1367.5L1367.12 515.053H1373.42L1373.8 513.089ZM1366.31 514.071L1364.67 522.555H1366.67L1368.31 514.071H1366.31ZM1365.49 523.537H1371.79L1372.16 521.573H1365.86L1365.49 523.537ZM1371.79 523.537C1373.59 523.537 1375.23 523.104 1376.64 522.144L1375.68 520.61C1374.79 521.221 1373.64 521.573 1372.16 521.573L1371.79 523.537ZM1376.64 522.141C1378.1 521.139 1379.02 519.823 1379.32 518.254H1377.32C1377.14 519.199 1376.62 519.965 1375.68 520.613L1376.64 522.141ZM1379.32 518.254C1379.62 516.681 1379.2 515.386 1378.08 514.456L1376.6 516.042C1377.27 516.605 1377.5 517.313 1377.32 518.254H1379.32ZM1378.1 514.471C1377.03 513.526 1375.57 513.089 1373.8 513.089L1373.42 515.053C1374.85 515.053 1375.87 515.401 1376.58 516.028L1378.1 514.471ZM1362.27 540.27H1369.47L1369.84 538.306H1362.64L1362.27 540.27ZM1369.47 540.27C1371.3 540.27 1372.97 539.84 1374.38 538.877L1373.42 537.343C1372.53 537.951 1371.37 538.306 1369.84 538.306L1369.47 540.27ZM1374.36 538.888C1375.85 537.909 1376.76 536.556 1377.07 534.928H1375.07C1374.87 535.972 1374.34 536.74 1373.44 537.332L1374.36 538.888ZM1377.07 534.928C1377.39 533.287 1377.04 531.912 1375.97 530.921L1374.43 532.455C1375.05 533.035 1375.29 533.82 1375.07 534.928H1377.07ZM1375.97 530.921C1374.92 529.952 1373.38 529.527 1371.47 529.527L1371.1 531.491C1372.71 531.491 1373.77 531.852 1374.43 532.455L1375.97 530.921ZM1371.47 529.527H1364.33L1363.96 531.491H1371.1L1371.47 529.527ZM1363.14 530.509L1361.46 539.288H1363.46L1365.14 530.509H1363.14ZM1390.59 547.243H1389.59L1389.4 548.225H1390.4L1390.59 547.243ZM1398.5 506.117L1398.69 505.135H1397.69L1397.5 506.117H1398.5ZM1429.52 506.117H1430.52L1430.71 505.135H1429.71L1429.52 506.117ZM1427.99 514.071L1427.8 515.053H1428.8L1428.99 514.071H1427.99ZM1406.87 514.071L1407.06 513.089H1406.06L1405.87 514.071H1406.87ZM1405.34 522.025H1404.34L1404.15 523.007H1405.15L1405.34 522.025ZM1418.96 522.025H1419.96L1420.15 521.043H1419.15L1418.96 522.025ZM1417.43 529.979L1417.24 530.961H1418.24L1418.43 529.979H1417.43ZM1403.81 529.979L1404 528.997H1403L1402.81 529.979H1403.81ZM1402.02 539.288H1401.02L1400.83 540.27H1401.83L1402.02 539.288ZM1423.38 539.288H1424.38L1424.57 538.306H1423.57L1423.38 539.288ZM1421.85 547.243L1421.66 548.225H1422.66L1422.85 547.243H1421.85ZM1391.59 547.243L1399.5 506.117H1397.5L1389.59 547.243H1391.59ZM1398.31 507.099H1429.33L1429.71 505.135H1398.69L1398.31 507.099ZM1428.52 506.117L1426.99 514.071H1428.99L1430.52 506.117H1428.52ZM1428.18 513.089H1407.06L1406.68 515.053H1427.8L1428.18 513.089ZM1405.87 514.071L1404.34 522.025H1406.34L1407.87 514.071H1405.87ZM1405.15 523.007H1418.77L1419.15 521.043H1405.53L1405.15 523.007ZM1417.96 522.025L1416.43 529.979H1418.43L1419.96 522.025H1417.96ZM1417.62 528.997H1404L1403.62 530.961H1417.24L1417.62 528.997ZM1402.81 529.979L1401.02 539.288H1403.02L1404.81 529.979H1402.81ZM1401.83 540.27H1423.19L1423.57 538.306H1402.21L1401.83 540.27ZM1422.38 539.288L1420.85 547.243H1422.85L1424.38 539.288H1422.38ZM1422.04 546.261H1390.78L1390.4 548.225H1421.66L1422.04 546.261ZM1434.55 539.347H1433.55L1433.36 540.329H1434.36L1434.55 539.347ZM1436.08 531.393L1436.27 530.411H1435.27L1435.08 531.393H1436.08ZM1460.74 531.393H1461.74L1461.93 530.411H1460.93L1460.74 531.393ZM1459.21 539.347L1459.02 540.329H1460.02L1460.21 539.347H1459.21ZM1445.2 506.117L1445.39 505.135H1444.61L1444.28 505.877L1445.2 506.117ZM1460.02 506.117L1461.04 505.875L1460.99 505.135H1460.21L1460.02 506.117ZM1462.73 547.243L1462.54 548.225H1463.83L1463.75 547.001L1462.73 547.243ZM1452.65 547.243L1451.63 547.462L1451.67 548.225H1452.46L1452.65 547.243ZM1451.68 523.91L1450.66 524.127L1450.66 524.13L1451.68 523.91ZM1451.27 512.951L1452.29 512.735L1450.34 512.73L1451.27 512.951ZM1446.58 523.91L1447.51 524.135L1447.51 524.132L1446.58 523.91ZM1436.51 547.243L1436.32 548.225H1437.12L1437.44 547.467L1436.51 547.243ZM1426.73 547.243L1425.81 547.002L1425.26 548.225H1426.54L1426.73 547.243ZM1435.55 539.347L1437.08 531.393H1435.08L1433.55 539.347H1435.55ZM1435.89 532.375H1460.55L1460.93 530.411H1436.27L1435.89 532.375ZM1459.74 531.393L1458.21 539.347H1460.21L1461.74 531.393H1459.74ZM1459.4 538.365H1434.74L1434.36 540.329H1459.02L1459.4 538.365ZM1445.01 507.099H1459.83L1460.21 505.135H1445.39L1445.01 507.099ZM1459.01 506.358L1461.72 547.484L1463.75 547.001L1461.04 505.875L1459.01 506.358ZM1462.92 546.261H1452.84L1452.46 548.225H1462.54L1462.92 546.261ZM1453.67 547.023L1452.7 523.69L1450.66 524.13L1451.63 547.462L1453.67 547.023ZM1452.7 523.694L1452.29 512.735L1450.25 513.168L1450.66 524.127L1452.7 523.694ZM1450.34 512.73L1445.65 523.689L1447.51 524.132L1452.2 513.173L1450.34 512.73ZM1445.65 523.686L1435.58 547.018L1437.44 547.467L1447.51 524.135L1445.65 523.686ZM1436.7 546.261H1426.92L1426.54 548.225H1436.32L1436.7 546.261ZM1427.66 547.483L1446.13 506.357L1444.28 505.877L1425.81 547.002L1427.66 547.483ZM1475.34 546.064L1474.7 546.928L1474.71 546.932L1474.72 546.937L1475.34 546.064ZM1470.74 540.644L1469.77 541.106L1469.78 541.114L1469.78 541.123L1470.74 540.644ZM1470.42 532.336L1470.61 531.354H1469.61L1469.42 532.336H1470.42ZM1480.14 532.336H1481.14L1481.33 531.354H1480.33L1480.14 532.336ZM1480.66 538.051L1479.76 538.662L1479.77 538.674L1479.78 538.686L1480.66 538.051ZM1489.86 538.876L1490.3 539.669L1490.31 539.665L1489.86 538.876ZM1491.4 533.102L1490.61 533.853L1490.63 533.871L1490.64 533.887L1491.4 533.102ZM1488.57 531.57L1488.07 532.499L1488.08 532.504L1488.1 532.51L1488.57 531.57ZM1484.54 530.392L1484.1 531.341L1484.11 531.345L1484.13 531.348L1484.54 530.392ZM1480.19 528.977L1479.67 529.899L1479.67 529.902L1480.19 528.977ZM1476.35 526.797L1475.61 527.595L1475.62 527.599L1475.62 527.603L1476.35 526.797ZM1473.91 523.262L1472.93 523.711L1472.94 523.72L1472.94 523.729L1473.91 523.262ZM1476.96 511.478L1476.25 510.914L1476.24 510.92L1476.24 510.926L1476.96 511.478ZM1499.35 507.059L1498.76 507.952L1498.77 507.957L1499.35 507.059ZM1504.39 511.714L1503.47 512.293L1504.39 511.714ZM1505.34 519.256L1505.15 520.238H1506.18L1506.34 519.23L1505.34 519.256ZM1495.44 519.256L1494.43 519.313L1494.31 520.238H1495.25L1495.44 519.256ZM1494.99 515.956L1494.06 516.509L1494.07 516.522L1494.07 516.534L1494.99 515.956ZM1493.03 514.012L1492.43 514.898L1492.43 514.901L1492.44 514.905L1493.03 514.012ZM1486.23 514.424L1486.62 515.246L1486.63 515.239L1486.64 515.232L1486.23 514.424ZM1484.77 519.845L1484 520.616L1484.01 520.623L1484.02 520.631L1484.77 519.845ZM1487.6 521.318L1487.12 522.255L1487.14 522.261L1487.16 522.265L1487.6 521.318ZM1491.66 522.378L1491.24 523.334L1491.25 523.335L1491.66 522.378ZM1496.02 523.734L1495.5 524.655L1495.51 524.66L1495.52 524.665L1496.02 523.734ZM1499.86 525.914L1499.11 526.699L1499.11 526.704L1499.12 526.708L1499.86 525.914ZM1502.25 529.684L1501.27 530.106L1501.27 530.119L1501.28 530.133L1502.25 529.684ZM1498.98 541.999L1498.29 541.42L1498.28 541.423L1498.98 541.999ZM1492.45 546.359L1492.21 545.461L1492.21 545.463L1492.45 546.359ZM1484.05 546.968C1480.73 546.968 1478.05 546.362 1475.97 545.192L1474.72 546.937C1477.11 548.28 1480.11 548.932 1483.67 548.932L1484.05 546.968ZM1475.98 545.2C1473.94 543.99 1472.52 542.315 1471.71 540.164L1469.78 541.123C1470.72 543.607 1472.36 545.545 1474.7 546.928L1475.98 545.2ZM1471.72 540.181C1470.95 537.992 1470.84 535.387 1471.42 532.336H1469.42C1468.79 535.648 1468.89 538.582 1469.77 541.106L1471.72 540.181ZM1470.23 533.318H1479.95L1480.33 531.354H1470.61L1470.23 533.318ZM1479.14 532.336C1478.64 534.935 1478.79 537.089 1479.76 538.662L1481.56 537.44C1480.89 536.342 1480.69 534.686 1481.14 532.336H1479.14ZM1479.78 538.686C1480.84 540.267 1482.73 540.977 1485.2 540.977L1485.58 539.013C1483.49 539.013 1482.23 538.427 1481.55 537.416L1479.78 538.686ZM1485.2 540.977C1487.13 540.977 1488.86 540.578 1490.3 539.669L1489.43 538.083C1488.5 538.666 1487.25 539.013 1485.58 539.013L1485.2 540.977ZM1490.31 539.665C1491.85 538.679 1492.79 537.276 1493.12 535.576H1491.12C1490.9 536.705 1490.34 537.501 1489.42 538.087L1490.31 539.665ZM1493.12 535.576C1493.38 534.235 1493.07 533.107 1492.15 532.316L1490.64 533.887C1491.1 534.275 1491.27 534.796 1491.12 535.576H1493.12ZM1492.18 532.351C1491.43 531.61 1490.36 531.048 1489.04 530.63L1488.1 532.51C1489.27 532.878 1490.08 533.337 1490.61 533.853L1492.18 532.351ZM1489.07 530.641C1487.84 530.196 1486.46 529.795 1484.95 529.435L1484.13 531.348C1485.59 531.696 1486.91 532.079 1488.07 532.499L1489.07 530.641ZM1484.97 529.442C1483.56 529.057 1482.13 528.594 1480.7 528.053L1479.67 529.902C1481.15 530.461 1482.63 530.941 1484.1 531.341L1484.97 529.442ZM1480.71 528.056C1479.37 527.535 1478.16 526.847 1477.08 525.992L1475.62 527.603C1476.83 528.555 1478.18 529.32 1479.67 529.899L1480.71 528.056ZM1477.09 526C1476.09 525.189 1475.36 524.127 1474.88 522.795L1472.94 523.729C1473.5 525.304 1474.39 526.599 1475.61 527.595L1477.09 526ZM1474.88 522.814C1474.46 521.541 1474.42 519.862 1474.83 517.724H1472.83C1472.38 520.064 1472.39 522.077 1472.93 523.711L1474.88 522.814ZM1474.83 517.724C1475.24 515.596 1476.19 513.708 1477.68 512.031L1476.24 510.926C1474.45 512.941 1473.32 515.217 1472.83 517.724H1474.83ZM1477.67 512.043C1479.2 510.35 1481.15 508.98 1483.53 507.944L1483 506.175C1480.32 507.339 1478.06 508.915 1476.25 510.914L1477.67 512.043ZM1483.53 507.944C1485.89 506.92 1488.55 506.392 1491.55 506.392L1491.93 504.428C1488.69 504.428 1485.71 504.999 1483 506.175L1483.53 507.944ZM1491.55 506.392C1494.26 506.392 1496.66 506.914 1498.76 507.952L1499.93 506.167C1497.58 505.005 1494.91 504.428 1491.93 504.428L1491.55 506.392ZM1498.77 507.957C1500.86 508.951 1502.42 510.395 1503.47 512.293L1505.31 511.135C1504.1 508.948 1502.3 507.289 1499.92 506.161L1498.77 507.957ZM1503.47 512.293C1504.49 514.148 1504.8 516.459 1504.33 519.282L1506.34 519.23C1506.87 516.082 1506.54 513.366 1505.31 511.135L1503.47 512.293ZM1505.53 518.274H1495.63L1495.25 520.238H1505.15L1505.53 518.274ZM1496.45 519.198C1496.64 517.722 1496.49 516.429 1495.91 515.379L1494.07 516.534C1494.45 517.212 1494.59 518.118 1494.43 519.313L1496.45 519.198ZM1495.93 515.403C1495.42 514.393 1494.65 513.626 1493.62 513.119L1492.44 514.905C1493.16 515.262 1493.7 515.792 1494.06 516.509L1495.93 515.403ZM1493.63 513.126C1492.67 512.629 1491.59 512.382 1490.4 512.382L1490.02 514.346C1490.92 514.346 1491.71 514.53 1492.43 514.898L1493.63 513.126ZM1490.4 512.382C1488.75 512.382 1487.21 512.778 1485.82 513.617L1486.64 515.232C1487.6 514.657 1488.71 514.346 1490.02 514.346L1490.4 512.382ZM1485.84 513.602C1484.32 514.471 1483.4 515.799 1483.09 517.429H1485.09C1485.29 516.388 1485.8 515.713 1486.62 515.246L1485.84 513.602ZM1483.09 517.429C1482.84 518.725 1483.13 519.825 1484 520.616L1485.53 519.074C1485.11 518.687 1484.95 518.176 1485.09 517.429H1483.09ZM1484.02 520.631C1484.8 521.305 1485.85 521.84 1487.12 522.255L1488.08 520.381C1486.95 520.011 1486.1 519.563 1485.52 519.059L1484.02 520.631ZM1487.16 522.265C1488.42 522.622 1489.78 522.978 1491.24 523.334L1492.07 521.423C1490.63 521.072 1489.29 520.721 1488.05 520.371L1487.16 522.265ZM1491.25 523.335C1492.7 523.679 1494.12 524.119 1495.5 524.655L1496.54 522.812C1495.09 522.248 1493.6 521.785 1492.07 521.422L1491.25 523.335ZM1495.52 524.665C1496.89 525.143 1498.08 525.822 1499.11 526.699L1500.61 525.128C1499.44 524.12 1498.07 523.345 1496.51 522.802L1495.52 524.665ZM1499.12 526.708C1500.13 527.546 1500.85 528.67 1501.27 530.106L1503.24 529.263C1502.74 527.557 1501.86 526.167 1500.6 525.119L1499.12 526.708ZM1501.28 530.133C1501.72 531.482 1501.76 533.279 1501.32 535.576H1503.32C1503.8 533.082 1503.79 530.95 1503.23 529.236L1501.28 530.133ZM1501.32 535.576C1500.9 537.771 1499.89 539.707 1498.29 541.42L1499.68 542.577C1501.6 540.519 1502.82 538.174 1503.32 535.576H1501.32ZM1498.28 541.423C1496.72 543.108 1494.71 544.46 1492.21 545.461L1492.68 547.257C1495.47 546.136 1497.82 544.581 1499.68 542.574L1498.28 541.423ZM1492.21 545.463C1489.77 546.457 1487.05 546.968 1484.05 546.968L1483.67 548.932C1486.91 548.932 1489.92 548.381 1492.68 547.254L1492.21 545.463ZM1517.8 547.243H1516.8L1516.61 548.225H1517.61L1517.8 547.243ZM1524.18 514.071H1525.18L1525.37 513.089H1524.37L1524.18 514.071ZM1511.94 514.071H1510.94L1510.75 515.053H1511.75L1511.94 514.071ZM1513.47 506.117L1513.66 505.135H1512.66L1512.47 506.117H1513.47ZM1547.85 506.117H1548.85L1549.04 505.135H1548.04L1547.85 506.117ZM1546.32 514.071L1546.13 515.053H1547.13L1547.32 514.071H1546.32ZM1534.08 514.071L1534.27 513.089H1533.27L1533.08 514.071H1534.08ZM1527.7 547.243L1527.51 548.225H1528.51L1528.7 547.243H1527.7ZM1518.8 547.243L1525.18 514.071H1523.18L1516.8 547.243H1518.8ZM1524.37 513.089H1512.13L1511.75 515.053H1523.99L1524.37 513.089ZM1512.94 514.071L1514.47 506.117H1512.47L1510.94 514.071H1512.94ZM1513.28 507.099H1547.66L1548.04 505.135H1513.66L1513.28 507.099ZM1546.85 506.117L1545.32 514.071H1547.32L1548.85 506.117H1546.85ZM1546.51 513.089H1534.27L1533.89 515.053H1546.13L1546.51 513.089ZM1533.08 514.071L1526.7 547.243H1528.7L1535.08 514.071H1533.08ZM1527.89 546.261H1517.99L1517.61 548.225H1527.51L1527.89 546.261Z" fill="black"/>
</svg>
