<svg width="41" height="40" viewBox="0 0 41 40" fill="none" xmlns="http://www.w3.org/2000/svg">
<path d="M4.01914 22.7164C3.72018 20.9177 3.72018 19.0819 4.01914 17.2831C5.85581 17.3264 7.50581 16.4464 8.14747 14.8981C8.78914 13.3481 8.24414 11.5581 6.91414 10.2931C7.97483 8.80859 9.27341 7.50944 10.7575 6.44811C12.0241 7.77811 13.8141 8.32311 15.3641 7.68144C16.9141 7.03977 17.7925 5.38811 17.7475 3.55311C19.5473 3.25378 21.3843 3.25378 23.1841 3.55311C23.1391 5.38977 24.0191 7.03977 25.5675 7.68144C27.1175 8.32311 28.9075 7.77811 30.1725 6.44811C31.657 7.5088 32.9561 8.80738 34.0175 10.2914C32.6875 11.5581 32.1425 13.3481 32.7841 14.8981C33.4258 16.4481 35.0775 17.3264 36.9125 17.2814C37.2118 19.0813 37.2118 20.9182 36.9125 22.7181C35.0758 22.6731 33.4258 23.5531 32.7841 25.1014C32.1425 26.6514 32.6875 28.4414 34.0175 29.7064C32.9568 31.191 31.6582 32.4901 30.1741 33.5514C28.9075 32.2214 27.1175 31.6764 25.5675 32.3181C24.0175 32.9598 23.1391 34.6114 23.1841 36.4464C21.3843 36.7458 19.5473 36.7458 17.7475 36.4464C17.7925 34.6098 16.9125 32.9598 15.3641 32.3181C13.8141 31.6764 12.0241 32.2214 10.7591 33.5514C9.27462 32.4908 7.97547 31.1922 6.91414 29.7081C8.24414 28.4414 8.78914 26.6514 8.14747 25.1014C7.50581 23.5514 5.85414 22.6731 4.01914 22.7181V22.7164ZM20.4658 24.9998C21.7919 24.9998 23.0637 24.473 24.0013 23.5353C24.939 22.5976 25.4658 21.3259 25.4658 19.9998C25.4658 18.6737 24.939 17.4019 24.0013 16.4642C23.0637 15.5266 21.7919 14.9998 20.4658 14.9998C19.1397 14.9998 17.868 15.5266 16.9303 16.4642C15.9926 17.4019 15.4658 18.6737 15.4658 19.9998C15.4658 21.3259 15.9926 22.5976 16.9303 23.5353C17.868 24.473 19.1397 24.9998 20.4658 24.9998Z" fill="#10B068"/>
</svg>
