<svg width="40" height="40" viewBox="0 0 40 40" fill="none" xmlns="http://www.w3.org/2000/svg">
<path d="M9.16699 20.0004H6.66699V11.6671H3.33366V8.33374H13.3337V11.6671H10.0003V16.3254L26.3553 11.9437L25.3887 8.33374H20.0003V5.00041H26.6303C27.0034 4.99217 27.3685 5.10941 27.6671 5.33333C27.9657 5.55726 28.1804 5.87491 28.277 6.23541L30.8653 15.8954L27.6453 16.7571L27.2187 15.1637L9.16699 20.0004ZM8.33366 35.0004C6.56555 35.0004 4.86986 34.298 3.61961 33.0478C2.36937 31.7975 1.66699 30.1018 1.66699 28.3337C1.66699 26.5656 2.36937 24.8699 3.61961 23.6197C4.86986 22.3694 6.56555 21.6671 8.33366 21.6671C10.1018 21.6671 11.7975 22.3694 13.0477 23.6197C14.2979 24.8699 15.0003 26.5656 15.0003 28.3337C15.0003 30.1018 14.2979 31.7975 13.0477 33.0478C11.7975 34.298 10.1018 35.0004 8.33366 35.0004ZM8.33366 30.0004C8.77569 30.0004 9.19961 29.8248 9.51217 29.5123C9.82473 29.1997 10.0003 28.7758 10.0003 28.3337C10.0003 27.8917 9.82473 27.4678 9.51217 27.1552C9.19961 26.8427 8.77569 26.6671 8.33366 26.6671C7.89163 26.6671 7.46771 26.8427 7.15515 27.1552C6.84259 27.4678 6.66699 27.8917 6.66699 28.3337C6.66699 28.7758 6.84259 29.1997 7.15515 29.5123C7.46771 29.8248 7.89163 30.0004 8.33366 30.0004ZM30.0003 35.0004C27.7902 35.0004 25.6706 34.1224 24.1078 32.5596C22.545 30.9968 21.667 28.8772 21.667 26.6671C21.667 24.4569 22.545 22.3373 24.1078 20.7745C25.6706 19.2117 27.7902 18.3337 30.0003 18.3337C32.2105 18.3337 34.3301 19.2117 35.8929 20.7745C37.4557 22.3373 38.3337 24.4569 38.3337 26.6671C38.3337 28.8772 37.4557 30.9968 35.8929 32.5596C34.3301 34.1224 32.2105 35.0004 30.0003 35.0004ZM30.0003 28.3337C30.4424 28.3337 30.8663 28.1581 31.1788 27.8456C31.4914 27.533 31.667 27.1091 31.667 26.6671C31.667 26.225 31.4914 25.8011 31.1788 25.4886C30.8663 25.176 30.4424 25.0004 30.0003 25.0004C29.5583 25.0004 29.1344 25.176 28.8218 25.4886C28.5093 25.8011 28.3337 26.225 28.3337 26.6671C28.3337 27.1091 28.5093 27.533 28.8218 27.8456C29.1344 28.1581 29.5583 28.3337 30.0003 28.3337Z" fill="#10B068"/>
</svg>
