<svg width="36" height="35" viewBox="0 0 36 35" fill="none" xmlns="http://www.w3.org/2000/svg">
<path d="M17.5296 2.91699C25.584 2.91699 32.113 9.44595 32.113 17.5003C32.113 25.5547 25.584 32.0837 17.5296 32.0837C9.47525 32.0837 2.94629 25.5547 2.94629 17.5003C2.94629 9.44595 9.47525 2.91699 17.5296 2.91699ZM17.5296 7.29199C11.8917 7.29199 7.32129 11.8624 7.32129 17.5003C7.32129 20.2012 8.37129 22.6585 10.0834 24.4843L10.3109 24.7176L12.373 22.657C11.0546 21.3357 10.238 19.5128 10.238 17.5003C10.238 13.4739 13.5032 10.2087 17.5296 10.2087C18.183 10.2087 18.8159 10.2947 19.4182 10.4566L21.6975 8.17866C20.4244 7.60991 19.0142 7.29199 17.5296 7.29199ZM26.8513 13.3339L24.5748 15.6118C24.7352 16.2141 24.8213 16.847 24.8213 17.5003C24.8213 19.5128 24.0046 21.3357 22.6863 22.657L24.7484 24.7191C26.5946 22.8714 27.738 20.3193 27.738 17.5003C27.738 16.0157 27.4215 14.6055 26.8513 13.3339ZM23.7159 9.25053L18.2836 14.6814C18.043 14.6172 17.7907 14.5837 17.5296 14.5837C15.9182 14.5837 14.613 15.8889 14.613 17.5003C14.613 19.1118 15.9182 20.417 17.5296 20.417C19.1411 20.417 20.4463 19.1118 20.4463 17.5003C20.4463 17.2393 20.4127 16.987 20.3486 16.7464L25.7794 11.3126L23.7173 9.25053H23.7159Z" fill="#10B068"/>
</svg>
