<svg width="16" height="15" viewBox="0 0 16 15" fill="none" xmlns="http://www.w3.org/2000/svg">
<g clip-path="url(#clip0)">
<path d="M15.5 3.81516C15.5 3.14669 14.962 2.60864 14.2935 2.60864H1.70652C1.03804 2.60864 0.5 3.14669 0.5 3.81516V11.201C0.5 11.8532 1.03804 12.3913 1.70652 12.3913H14.3098C14.9783 12.3913 15.5163 11.8532 15.5163 11.1847V3.81516H15.5ZM14.1957 3.91299V5.05429H1.80435V3.91299H14.1957ZM1.80435 11.0869V7.01082H14.1957V11.0869H1.80435ZM12.9728 8.96734C12.9728 9.32603 12.6793 9.61951 12.3207 9.61951H9.22283C8.86413 9.61951 8.57065 9.32603 8.57065 8.96734C8.57065 8.60864 8.86413 8.31516 9.22283 8.31516H12.3207C12.6793 8.31516 12.9728 8.60864 12.9728 8.96734Z" fill="#1A1A1A"/>
</g>
<defs>
<clipPath id="clip0">
<rect width="15" height="15" fill="white" transform="translate(0.5)"/>
</clipPath>
</defs>
</svg>
