<svg width="257" height="19" viewBox="0 0 257 19" fill="none" xmlns="http://www.w3.org/2000/svg">
<g clip-path="url(#clip0)">
<path d="M10.6621 16.0066C10.6621 17.6517 13.0938 16.866 13.0938 17.4798C13.0938 17.7745 12.8483 17.8244 12.4554 17.8244C11.3013 17.8244 10.6621 17.7745 9.18888 17.7745C7.71563 17.7745 7.07722 17.8244 5.92237 17.8244C5.52951 17.8244 5.28396 17.7745 5.28396 17.4798C5.28396 16.866 7.71483 17.6517 7.71483 16.0066L7.69107 1.71361C5.21109 1.71361 3.07408 3.89894 2.11567 5.88863C1.84558 6.45337 1.72281 6.77258 1.57548 6.77258C1.4036 6.77258 1.35449 6.67436 1.35449 6.57615C1.35449 6.2815 1.50182 5.69219 1.60003 5.22566L2.38577 1.19798C2.41032 1.04986 2.43488 0.731445 2.65587 0.731445C2.80319 0.731445 2.8523 0.829662 2.97507 0.927879C3.12319 1.0261 3.34418 1.12431 3.85982 1.12431H14.4934C15.009 1.12431 15.2308 1.0261 15.3773 0.927879C15.5001 0.829662 15.5492 0.731445 15.6965 0.731445C15.9175 0.731445 15.9421 1.05065 15.9666 1.19798L16.7524 5.22566C16.8506 5.69219 16.9987 6.2815 16.9987 6.57615C16.9987 6.67436 16.9488 6.77258 16.7777 6.77258C16.6304 6.77258 16.5076 6.45337 16.2375 5.88863C15.2799 3.89894 13.1429 1.71361 10.6621 1.71361V16.0066Z" fill="#1A1A1A"/>
<path d="M23.3554 9.2779V16.0073C23.3554 17.6525 25.3934 16.8667 25.3934 17.4806C25.3934 17.7752 25.2461 17.8251 24.8532 17.8251C23.9938 17.8251 23.3554 17.7752 21.8822 17.7752C20.4089 17.7752 19.7697 17.8251 18.9103 17.8251C18.5174 17.8251 18.3701 17.7752 18.3701 17.4806C18.3701 16.8667 20.4089 17.6525 20.4089 16.0073V2.89221C20.4089 1.24628 18.3701 2.03281 18.3701 1.41895C18.3701 1.1243 18.5174 1.0752 18.9103 1.0752C19.7697 1.0752 20.4089 1.1243 21.8822 1.1243C23.3554 1.1243 23.9938 1.0752 24.8532 1.0752C25.2461 1.0752 25.3934 1.1243 25.3934 1.41895C25.3934 2.03281 23.3554 1.24708 23.3554 2.89221V8.6878H30.4524V2.89221C30.4524 1.24628 28.4136 2.03281 28.4136 1.41895C28.4136 1.1243 28.5617 1.0752 28.9546 1.0752C29.814 1.0752 30.4524 1.1243 31.9256 1.1243C33.3989 1.1243 34.0381 1.0752 34.8967 1.0752C35.2896 1.0752 35.4377 1.1243 35.4377 1.41895C35.4377 2.03281 33.3989 1.24708 33.3989 2.89221V16.0065C33.3989 17.6517 35.4377 16.8659 35.4377 17.4798C35.4377 17.7745 35.2896 17.8244 34.8967 17.8244C34.0373 17.8244 33.3989 17.7745 31.9256 17.7745C30.4524 17.7745 29.8132 17.8244 28.9546 17.8244C28.5617 17.8244 28.4136 17.7745 28.4136 17.4798C28.4136 16.8659 30.4524 17.6517 30.4524 16.0065V9.2771H23.3554V9.2779Z" fill="#1A1A1A"/>
<path d="M39.1187 2.89221C39.1187 1.24628 37.0799 2.03281 37.0799 1.41895C37.0799 1.1243 37.228 1.0752 37.6209 1.0752C38.4803 1.0752 39.1187 1.1243 40.5919 1.1243C46.0192 1.1243 47.837 1.0752 49.6049 1.0752L50.7835 5.66763C50.8572 5.98684 50.9309 6.18327 50.9309 6.30683C50.9309 6.47871 50.8818 6.55238 50.7344 6.55238C50.4398 6.55238 50.5134 5.93852 49.3103 4.21972C47.8117 2.0835 45.7246 1.66529 42.8018 1.66529H42.0652V8.88582H42.6054C44.7178 8.88582 46.3139 8.05098 46.3139 5.57021C46.3139 5.20189 46.4366 5.10368 46.6085 5.10368C46.805 5.10368 46.9032 5.20189 46.9032 5.57021V12.9135C46.9032 13.2818 46.805 13.3555 46.6085 13.3555C46.4366 13.3555 46.3139 13.2818 46.3139 12.9135C46.3139 10.3345 44.7178 9.47512 42.6054 9.47512H42.0652V15.8608C42.0652 16.7939 42.6545 17.2358 44.1278 17.2358C48.6711 17.2358 50.6117 14.2394 51.3229 11.8078C51.4457 11.4387 51.5194 11.3167 51.6913 11.3167C51.8631 11.3167 51.9122 11.4387 51.9122 11.5622C51.9122 11.7104 51.9122 11.9313 51.8386 12.2743L50.8073 17.8251C48.7685 17.8251 46.6814 17.7752 40.5911 17.7752C39.1179 17.7752 38.4787 17.8251 37.6201 17.8251C37.2272 17.8251 37.0791 17.7752 37.0791 17.4806C37.0791 16.8667 39.1179 17.6525 39.1179 16.0073V2.89221H39.1187Z" fill="#1A1A1A"/>
<path d="M69.543 16.0066C69.543 17.6517 71.9747 16.866 71.9747 17.4798C71.9747 17.7745 71.7291 17.8244 71.3362 17.8244C70.1822 17.8244 69.543 17.7745 68.0697 17.7745C66.5965 17.7745 65.9581 17.8244 64.8032 17.8244C64.4104 17.8244 64.1648 17.7745 64.1648 17.4798C64.1648 16.866 66.5957 17.6517 66.5957 16.0066L66.5719 1.71361C64.092 1.71361 61.9549 3.89894 60.9965 5.88863C60.7264 6.45337 60.6037 6.77258 60.4563 6.77258C60.2845 6.77258 60.2354 6.67436 60.2354 6.57615C60.2354 6.2815 60.3827 5.69219 60.4809 5.22566L61.2666 1.19798C61.2912 1.04986 61.3157 0.731445 61.5367 0.731445C61.6841 0.731445 61.7332 0.829662 61.8559 0.927879C62.0033 1.0261 62.2242 1.12431 62.7399 1.12431H73.3735C73.8891 1.12431 74.1109 1.0261 74.2574 0.927879C74.3802 0.829662 74.4293 0.731445 74.5766 0.731445C74.7976 0.731445 74.8222 1.05065 74.8467 1.19798L75.6324 5.22566C75.7307 5.69219 75.8788 6.2815 75.8788 6.57615C75.8788 6.67436 75.8289 6.77258 75.6578 6.77258C75.5105 6.77258 75.3877 6.45337 75.1176 5.88863C74.16 3.89894 72.023 1.71361 69.5422 1.71361V16.0066H69.543Z" fill="#1A1A1A"/>
<path d="M79.5341 2.89221C79.5341 1.24628 77.4961 2.03281 77.4961 1.41895C77.4961 1.1243 77.6434 1.0752 78.0363 1.0752C78.8957 1.0752 79.5341 1.1243 81.0074 1.1243C82.4806 1.1243 83.1198 1.0752 83.9792 1.0752C84.3721 1.0752 84.5194 1.1243 84.5194 1.41895C84.5194 2.03281 82.4806 1.24708 82.4806 2.89221V16.0065C82.4806 17.6517 84.5194 16.8659 84.5194 17.4798C84.5194 17.7745 84.3721 17.8244 83.9792 17.8244C83.1198 17.8244 82.4806 17.7745 81.0074 17.7745C79.5341 17.7745 78.8957 17.8244 78.0363 17.8244C77.6434 17.8244 77.4961 17.7745 77.4961 17.4798C77.4961 16.8659 79.5341 17.6517 79.5341 16.0065V2.89221Z" fill="#1A1A1A"/>
<path d="M96.3064 13.6739L101.586 1.1243H102.717C104.19 1.1243 104.828 1.0752 105.688 1.0752C106.081 1.0752 106.228 1.1243 106.228 1.41895C106.228 2.03281 104.19 1.24708 104.19 2.89221V16.0065C104.19 17.6517 106.228 16.8659 106.228 17.4798C106.228 17.7745 106.081 17.8244 105.688 17.8244C104.828 17.8244 104.19 17.7745 102.717 17.7745C101.243 17.7745 100.604 17.8244 99.7448 17.8244C99.3519 17.8244 99.2046 17.7745 99.2046 17.4798C99.2046 16.8659 101.243 17.6517 101.243 16.0065V3.23597H101.194L95.4716 17.2588C95.3734 17.4798 95.2751 17.7745 95.1033 17.7745C94.9805 17.7745 94.8823 17.5281 94.7841 17.2588L89.1849 3.4324H89.1358V13.7222C89.1358 15.8101 89.8479 16.8168 90.7809 17.1115C91.4201 17.3079 91.7148 17.2097 91.7148 17.5535C91.7148 17.7745 91.5667 17.8244 91.1738 17.8244C90.4863 17.8244 89.8233 17.7745 88.8411 17.7745C87.3188 17.7745 86.6796 17.8244 86.2376 17.8244C85.8938 17.8244 85.6729 17.7998 85.6729 17.578C85.6729 17.1852 85.9429 17.3079 86.5814 17.1115C88.3247 16.6204 88.5457 14.7044 88.5457 11.7333V3.4324C88.5457 1.24628 86.0166 2.03202 86.0166 1.41895C86.0166 1.1243 86.1639 1.0752 86.5568 1.0752C87.4162 1.0752 88.0554 1.1243 89.5287 1.1243H91.1001L96.3064 13.6739Z" fill="#1A1A1A"/>
<path d="M109.81 2.89221C109.81 1.24628 107.771 2.03281 107.771 1.41895C107.771 1.1243 107.919 1.0752 108.312 1.0752C109.172 1.0752 109.81 1.1243 111.283 1.1243C116.711 1.1243 118.528 1.0752 120.296 1.0752L121.475 5.66763C121.549 5.98684 121.622 6.18327 121.622 6.30683C121.622 6.47871 121.573 6.55238 121.426 6.55238C121.131 6.55238 121.205 5.93852 120.002 4.21972C118.503 2.0835 116.416 1.66529 113.493 1.66529H112.757V8.88582H113.297C115.409 8.88582 117.005 8.05098 117.005 5.57021C117.005 5.20189 117.128 5.10368 117.3 5.10368C117.496 5.10368 117.595 5.20189 117.595 5.57021V12.9135C117.595 13.2818 117.496 13.3555 117.3 13.3555C117.128 13.3555 117.005 13.2818 117.005 12.9135C117.005 10.3345 115.409 9.47512 113.297 9.47512H112.757V15.8608C112.757 16.7939 113.346 17.2358 114.819 17.2358C119.362 17.2358 121.303 14.2394 122.014 11.8078C122.137 11.4387 122.211 11.3167 122.383 11.3167C122.555 11.3167 122.604 11.4387 122.604 11.5622C122.604 11.7104 122.604 11.9313 122.53 12.2743L121.499 17.8251C119.46 17.8251 117.373 17.7752 111.283 17.7752C109.809 17.7752 109.17 17.8251 108.311 17.8251C107.919 17.8251 107.771 17.7752 107.771 17.4806C107.771 16.8667 109.809 17.6525 109.809 16.0073V2.89221H109.81Z" fill="#1A1A1A"/>
<path d="M124.764 11.0213C124.764 10.8003 124.886 10.7266 125.009 10.7266C125.23 10.7266 125.279 10.923 125.353 11.4632C125.77 14.4842 127.072 17.5788 130.314 17.5788C132.771 17.5788 133.875 16.1056 133.875 14.4351C133.875 9.47434 124.764 11.4878 124.764 5.44665C124.764 2.89222 127.122 0.731445 129.921 0.731445C132.107 0.731445 132.942 1.71362 133.899 1.71362C134.612 1.71362 134.292 0.927879 134.759 0.927879C134.932 0.927879 134.98 1.0261 135.005 1.29619C135.324 4.73458 135.422 6.42882 135.422 6.74803C135.422 6.99436 135.3 7.09258 135.152 7.09258C134.955 7.09258 134.906 6.77337 134.832 6.50328C133.998 3.7033 132.671 1.32154 129.897 1.32154C128.031 1.32154 126.925 2.42648 126.925 3.97419C126.925 8.49296 136.036 6.9706 136.036 12.9381C136.036 15.5416 134.17 18.1689 130.167 18.1689C128.374 18.1689 126.729 17.2359 126.09 17.2359C125.084 17.2359 125.452 18.0707 124.985 18.0707C124.887 18.0707 124.764 18.0216 124.764 17.7761V11.0213H124.764Z" fill="#1A1A1A"/>
<path d="M162.579 9.44979C162.579 14.9507 157.913 18.1681 153.763 18.1681C149.612 18.1681 144.946 14.9507 144.946 9.44979C144.946 3.94884 149.612 0.731445 153.763 0.731445C157.913 0.731445 162.579 3.94884 162.579 9.44979ZM153.763 1.32075C150.545 1.32075 148.188 3.89894 148.188 9.44979C148.188 14.9998 150.546 17.5788 153.763 17.5788C156.979 17.5788 159.337 14.9998 159.337 9.44979C159.337 3.89894 156.98 1.32075 153.763 1.32075Z" fill="#1A1A1A"/>
<path d="M166.43 2.89221C166.43 1.24628 164.392 2.03281 164.392 1.41895C164.392 1.1243 164.541 1.0752 164.933 1.0752C165.793 1.0752 166.431 1.1243 167.905 1.1243C173.333 1.1243 175.15 1.0752 176.722 1.0752L177.9 5.66763C177.974 5.98684 178.048 6.18327 178.048 6.30683C178.048 6.47871 177.999 6.55238 177.851 6.55238C177.557 6.55238 177.63 5.93852 176.427 4.21972C174.929 2.0835 172.841 1.66529 169.919 1.66529H169.378V8.88582H169.919C172.031 8.88582 173.627 8.05098 173.627 5.57021C173.627 5.20189 173.75 5.10368 173.922 5.10368C174.118 5.10368 174.216 5.20189 174.216 5.57021V12.9135C174.216 13.2818 174.118 13.3555 173.922 13.3555C173.75 13.3555 173.627 13.2818 173.627 12.9135C173.627 10.3345 172.031 9.47512 169.919 9.47512H169.378V16.0081C169.378 17.6533 171.416 16.8675 171.416 17.4814C171.416 17.776 171.268 17.8259 170.875 17.8259C170.016 17.8259 169.377 17.776 167.904 17.776C166.43 17.776 165.792 17.8259 164.933 17.8259C164.54 17.8259 164.392 17.776 164.392 17.4814C164.392 16.8675 166.43 17.6533 166.43 16.0081V2.89221H166.43Z" fill="#1A1A1A"/>
<path d="M188.653 2.89221C188.653 1.24628 186.615 2.03281 186.615 1.41895C186.615 1.1243 186.763 1.0752 187.155 1.0752C188.015 1.0752 188.654 1.1243 190.127 1.1243C191.601 1.1243 192.239 1.0752 193.099 1.0752C193.492 1.0752 193.639 1.1243 193.639 1.41895C193.639 2.03281 191.601 1.24708 191.601 2.89221V16.0065C191.601 17.6517 193.639 16.8659 193.639 17.4798C193.639 17.7745 193.492 17.8244 193.099 17.8244C192.239 17.8244 191.601 17.7745 190.127 17.7745C188.654 17.7745 188.015 17.8244 187.155 17.8244C186.763 17.8244 186.615 17.7745 186.615 17.4798C186.615 16.8659 188.653 17.6517 188.653 16.0065V2.89221Z" fill="#1A1A1A"/>
<path d="M208.593 5.17557C208.593 3.08846 207.684 2.08173 206.751 1.78708C206.112 1.59065 205.818 1.68887 205.818 1.34432C205.818 1.12333 205.965 1.07422 206.358 1.07422C207.242 1.07422 207.905 1.12333 208.937 1.12333C209.969 1.12333 210.632 1.07422 211.516 1.07422C211.909 1.07422 212.057 1.12333 212.057 1.34432C212.057 1.68887 211.762 1.59065 211.123 1.78708C210.19 2.08173 209.281 3.08846 209.281 5.17557V17.8242C209.281 17.9961 209.183 18.1679 208.986 18.1679C208.815 18.1679 208.618 18.0943 208.495 17.9216L198.081 4.07063H198.032V13.722C198.032 15.8099 198.941 16.8167 199.874 17.1113C200.513 17.3077 200.807 17.2095 200.807 17.5533C200.807 17.7743 200.659 17.8242 200.267 17.8242C199.383 17.8242 198.72 17.7743 197.688 17.7743C196.656 17.7743 195.993 17.8242 195.109 17.8242C194.716 17.8242 194.568 17.7743 194.568 17.5533C194.568 17.2095 194.863 17.3077 195.501 17.1113C196.435 16.8167 197.344 15.8091 197.344 13.722V3.21123C195.919 1.17323 194.593 1.8853 194.593 1.41877C194.593 1.14867 194.765 1.07501 195.133 1.07501C195.722 1.07501 196.213 1.12412 196.999 1.12412H199.284L208.542 13.5509H208.591V5.17557H208.593Z" fill="#1A1A1A"/>
<path d="M214.852 2.89221C214.852 1.24628 212.813 2.03281 212.813 1.41895C212.813 1.1243 212.962 1.0752 213.354 1.0752C214.214 1.0752 214.853 1.1243 216.326 1.1243C217.332 1.1243 218.463 1.0752 219.813 1.0752C225.634 1.0752 229.195 4.48903 229.195 9.52344C229.195 14.1159 226.371 17.8244 220.844 17.8244C219.199 17.8244 217.775 17.7745 216.326 17.7745C214.853 17.7745 214.214 17.8244 213.354 17.8244C212.962 17.8244 212.813 17.7745 212.813 17.4798C212.813 16.8659 214.852 17.6517 214.852 16.0065V2.89221ZM217.8 15.0244C217.8 16.5959 218.707 17.2351 220.476 17.2351C223.276 17.2351 225.952 15.9574 225.952 9.69453C225.952 5.00387 224.087 1.66371 220.329 1.66371H217.8V15.0244Z" fill="#1A1A1A"/>
<path d="M233.218 2.89221C233.218 1.24628 231.18 2.03281 231.18 1.41895C231.18 1.1243 231.328 1.0752 231.721 1.0752C232.58 1.0752 233.219 1.1243 234.693 1.1243C236.166 1.1243 236.804 1.0752 237.664 1.0752C238.056 1.0752 238.205 1.1243 238.205 1.41895C238.205 2.03281 236.167 1.24708 236.167 2.89221V16.0065C236.167 17.6517 238.205 16.8659 238.205 17.4798C238.205 17.7745 238.056 17.8244 237.664 17.8244C236.804 17.8244 236.166 17.7745 234.693 17.7745C233.219 17.7745 232.58 17.8244 231.721 17.8244C231.328 17.8244 231.18 17.7745 231.18 17.4798C231.18 16.8659 233.218 17.6517 233.218 16.0065V2.89221Z" fill="#1A1A1A"/>
<path d="M243.752 11.7827C243.09 13.6742 242.77 14.3854 242.77 15.0983C242.77 17.5545 244.808 16.9644 244.808 17.5545C244.808 17.8254 244.686 17.8254 244.415 17.8254C243.9 17.8254 243.31 17.7755 241.641 17.7755C240.831 17.7755 240.044 17.8254 239.16 17.8254C238.914 17.8254 238.841 17.7264 238.841 17.53C238.841 17.088 239.798 17.3335 240.486 16.7442C241.125 16.204 241.935 14.9027 242.598 13.2322C245.546 5.86433 245.963 4.95582 245.963 4.75939C245.963 4.58751 245.374 4.12098 245.374 3.82633C245.374 3.45801 245.79 3.50712 246.479 2.05842C246.994 0.978037 246.872 0.634277 247.191 0.634277C247.51 0.634277 247.486 1.44457 248.959 4.68652L254.19 16.2539C254.853 17.7026 256.007 16.9906 256.007 17.53C256.007 17.8009 255.835 17.8254 255.59 17.8254C254.608 17.8254 253.626 17.7755 252.643 17.7755C251.66 17.7755 250.702 17.8254 249.695 17.8254C249.449 17.8254 249.303 17.751 249.303 17.53C249.303 16.9169 251.021 17.629 251.021 16.3023C251.021 16.0813 250.775 15.3446 250.604 14.9755L249.204 11.7835H243.752V11.7827ZM246.307 5.15226L243.999 11.1934H248.96L246.307 5.15226Z" fill="#1A1A1A"/>
</g>
<defs>
<clipPath id="clip0">
<rect width="256.171" height="17.9618" fill="white" transform="translate(0.682617 0.10791)"/>
</clipPath>
</defs>
</svg>
