<svg width="41" height="41" viewBox="0 0 41 41" fill="none" xmlns="http://www.w3.org/2000/svg">
<path d="M28.799 13.8901H33.799L38.799 20.6501V30.5568H35.4073C35.2092 31.9473 34.516 33.2196 33.4551 34.14C32.3942 35.0605 31.0369 35.5672 29.6323 35.5672C28.2278 35.5672 26.8704 35.0605 25.8095 34.14C24.7486 33.2196 24.0555 31.9473 23.8573 30.5568H15.4073C15.2092 31.9473 14.516 33.2196 13.4551 34.14C12.3942 35.0605 11.0369 35.5672 9.63232 35.5672C8.22779 35.5672 6.87042 35.0605 5.80953 34.14C4.74863 33.2196 4.05546 31.9473 3.85732 30.5568H2.13232V10.5568C2.13232 10.1148 2.30792 9.69085 2.62048 9.37829C2.93304 9.06573 3.35696 8.89014 3.79899 8.89014H27.1323C27.5743 8.89014 27.9983 9.06573 28.3108 9.37829C28.6234 9.69085 28.799 10.1148 28.799 10.5568V13.8901ZM28.799 17.2235V22.2235H35.4657V21.7485L32.119 17.2235H28.799Z" fill="#10B068"/>
</svg>
