<svg width="21" height="23" viewBox="0 0 21 23" fill="none" xmlns="http://www.w3.org/2000/svg">
<path d="M10.5 2.5C8.01472 2.5 6 4.51472 6 7C6 9.48528 8.01472 11.5 10.5 11.5C12.9853 11.5 15 9.48528 15 7C15 4.51472 12.9853 2.5 10.5 2.5ZM3.75 7C3.75 3.27208 6.77208 0.25 10.5 0.25C14.2279 0.25 17.25 3.27208 17.25 7C17.25 10.7279 14.2279 13.75 10.5 13.75C6.77208 13.75 3.75 10.7279 3.75 7ZM6 18.25C4.13604 18.25 2.625 19.761 2.625 21.625C2.625 22.2463 2.12132 22.75 1.5 22.75C0.87868 22.75 0.375 22.2463 0.375 21.625C0.375 18.5184 2.8934 16 6 16H15C18.1066 16 20.625 18.5184 20.625 21.625C20.625 22.2463 20.1213 22.75 19.5 22.75C18.8787 22.75 18.375 22.2463 18.375 21.625C18.375 19.761 16.864 18.25 15 18.25H6Z" fill="#1A1A1A"/>
</svg>
