<svg width="72" height="72" viewBox="0 0 72 72" fill="none" xmlns="http://www.w3.org/2000/svg">
<circle cx="36" cy="36" r="36" fill="#10B068"/>
<path d="M27.7739 48.8637L28.3582 49.21C30.8134 50.6671 33.6283 51.4377 36.4987 51.4392H36.505C45.3206 51.4392 52.4953 44.2661 52.4987 35.45C52.5001 31.1773 50.8381 27.1603 47.8184 24.1378C44.7985 21.1159 40.7834 19.4505 36.5107 19.4488C27.6885 19.4488 20.5137 26.6208 20.5104 35.4369C20.5092 38.4579 21.3543 41.4002 22.9556 43.9457L23.3362 44.5507L21.7201 50.4509L27.7739 48.8637ZM17.1002 55.0212L19.8301 45.053C18.1463 42.1356 17.2605 38.8262 17.2619 35.436C17.266 24.8294 25.8977 16.2002 36.5054 16.2002C41.6527 16.2024 46.4841 18.2057 50.1173 21.8419C53.75 25.478 55.7501 30.3113 55.7484 35.4515C55.7439 46.0576 47.1103 54.6884 36.5054 54.6884C36.5046 54.6884 36.5058 54.6884 36.5054 54.6884H36.4972C33.2767 54.6873 30.1122 53.8795 27.3017 52.3465L17.1002 55.0212Z" fill="white"/>
<path d="M17.925 35.4461C17.9239 38.7187 18.779 41.9137 20.4049 44.7303L17.7693 54.3535L27.6171 51.7713C30.3304 53.2498 33.3852 54.0304 36.4942 54.0314H36.5022C46.7405 54.0314 55.0741 45.7001 55.0785 35.4607C55.0804 30.4984 53.1499 25.8331 49.6423 22.3225C46.1354 18.8124 41.4713 16.8783 36.5014 16.876C26.2625 16.876 17.929 25.2062 17.9246 35.4461L17.925 35.4461ZM36.502 54.0313H36.5021H36.502C36.5016 54.0313 36.5018 54.0313 36.502 54.0313Z" fill="url(#paint0_linear)"/>
<path d="M17.2617 35.4415C17.2606 38.8316 18.1464 42.1415 19.8302 45.0585L17.1001 55.0261L27.3012 52.3514C30.112 53.8842 33.2763 54.692 36.4967 54.6933H36.505C47.1099 54.6933 55.7435 46.0624 55.748 35.4564C55.7497 30.3159 53.7497 25.4827 50.1168 21.8467C46.4834 18.2108 41.6524 16.2073 36.505 16.2051C25.8978 16.2051 17.2658 24.8343 17.2614 35.4409L17.2617 35.4415ZM23.3363 44.5559L22.9555 43.9511C21.3542 41.4053 20.5091 38.4631 20.5103 35.4423C20.5138 26.6268 27.6884 19.4542 36.5106 19.4542C40.7829 19.4558 44.7981 21.1214 47.8183 24.1432C50.8382 27.1653 52.5 31.1827 52.4988 35.4548C52.4949 44.2709 45.3201 51.4441 36.5046 51.4441H36.4983C33.6279 51.4424 30.8128 50.6719 28.3578 49.2151L27.7735 48.8687L21.7197 50.4559L23.3363 44.5559ZM36.505 54.6933H36.5052H36.505C36.5046 54.6933 36.5048 54.6933 36.505 54.6933Z" fill="url(#paint1_linear)"/>
<path fill-rule="evenodd" clip-rule="evenodd" d="M31.6955 27.3977C31.3353 26.5969 30.9562 26.5809 30.6136 26.5668C30.3332 26.5549 30.0125 26.5557 29.6922 26.5557C29.3714 26.5557 28.8505 26.676 28.4101 27.1572C27.9692 27.6383 26.7271 28.8015 26.7271 31.167C26.7271 33.5328 28.4502 35.8187 28.6903 36.1398C28.9308 36.4603 32.0167 41.4701 36.9035 43.3972C40.9652 44.9989 41.7917 44.6803 42.6732 44.6001C43.5548 44.52 45.518 43.4373 45.9186 42.3145C46.3193 41.1919 46.3193 40.2296 46.1992 40.0287C46.079 39.8283 45.7583 39.7079 45.2775 39.4677C44.7965 39.2272 42.4327 38.0639 41.9921 37.9034C41.5512 37.7431 41.2307 37.6631 40.91 38.1445C40.5894 38.6252 39.6686 39.7079 39.388 40.0287C39.1076 40.35 38.827 40.3901 38.3462 40.1496C37.8652 39.9083 36.3166 39.4011 34.4795 37.7633C33.0501 36.4889 32.0852 34.915 31.8046 34.4336C31.5242 33.9528 31.7747 33.6924 32.0157 33.4527C32.2318 33.2372 32.4967 32.8913 32.7372 32.6106C32.9771 32.3298 33.0571 32.1295 33.2174 31.8087C33.3779 31.4878 33.2976 31.207 33.1775 30.9665C33.0571 30.726 32.1228 28.3483 31.6952 27.3975" fill="white"/>
<defs>
<linearGradient id="paint0_linear" x1="36.4241" y1="54.3496" x2="36.4241" y2="16.872" gradientUnits="userSpaceOnUse">
<stop stop-color="#20B038"/>
<stop offset="1" stop-color="#60D66A"/>
</linearGradient>
<linearGradient id="paint1_linear" x1="36.4243" y1="55.0273" x2="36.4243" y2="16.2062" gradientUnits="userSpaceOnUse">
<stop stop-color="#F9F9F9"/>
<stop offset="1" stop-color="white"/>
</linearGradient>
</defs>
</svg>
