<svg width="36" height="35" viewBox="0 0 36 35" fill="none" xmlns="http://www.w3.org/2000/svg">
<path d="M11.8219 15.0806V18.2802C10.0777 19.2893 8.90519 21.175 8.90519 23.3333C8.90519 26.5562 11.5156 29.1666 14.7385 29.1666C16.8969 29.1666 18.7825 27.9941 19.7917 26.25H22.9898C21.7896 29.6479 18.5477 32.0833 14.7385 32.0833C9.90561 32.0833 5.98853 28.1662 5.98853 23.3333C5.98853 19.5227 8.42394 16.2823 11.8219 15.0806ZM17.6552 24.7916C15.2387 24.7916 13.2802 22.8331 13.2802 20.4166V14.5833C13.2802 12.1668 15.2387 10.2083 17.6552 10.2083C20.0717 10.2083 22.0302 12.1668 22.0302 14.5833V21.875H24.1214C25.0664 21.875 25.9487 22.3329 26.4927 23.0941L26.6225 23.291L30.5717 29.8754L28.0721 31.3745L24.12 24.7916H17.6552ZM17.6552 2.91663C19.6677 2.91663 21.301 4.54996 21.301 6.56246C21.301 8.57496 19.6677 10.2083 17.6552 10.2083C15.6427 10.2083 14.0094 8.57496 14.0094 6.56246C14.0094 4.54996 15.6427 2.91663 17.6552 2.91663Z" fill="#10B068"/>
</svg>
